SplineFontDB: 3.0
FontName: FreeSerifItalic
FullName: FreeSerif Italic
FamilyName: FreeSerif
Weight: Book
Copyright: Copyright 2002, 2003, 2005, 2008, 2009, 2010, 2012 GNU Freefont contributors.
Version: 0412.2268
ItalicAngle: -15.5
UnderlinePosition: -100
UnderlineWidth: 50
Ascent: 800
Descent: 200
sfntRevision: 0x019c3a1d
LayerCount: 2
Layer: 0 1 "Back"  1
Layer: 1 1 "Fore"  0
XUID: [1021 905 1579682281 2721365]
FSType: 0
OS2Version: 3
OS2_WeightWidthSlopeOnly: 0
OS2_UseTypoMetrics: 1
CreationTime: 1203284335
ModificationTime: 1430337542
PfmFamily: 17
TTFWeight: 400
TTFWidth: 5
LineGap: 100
VLineGap: 0
Panose: 2 2 6 3 5 4 5 9 3 4
OS2TypoAscent: 800
OS2TypoAOffset: 0
OS2TypoDescent: -200
OS2TypoDOffset: 0
OS2TypoLinegap: 100
OS2WinAscent: 900
OS2WinAOffset: 0
OS2WinDescent: 300
OS2WinDOffset: 0
HheadAscent: 900
HheadAOffset: 0
HheadDescent: -200
HheadDOffset: 0
OS2SubXSize: 650
OS2SubYSize: 600
OS2SubXOff: 0
OS2SubYOff: 200
OS2SupXSize: 650
OS2SupYSize: 600
OS2SupXOff: 0
OS2SupYOff: 390
OS2StrikeYSize: 49
OS2StrikeYPos: 258
OS2FamilyClass: 261
OS2Vendor: 'GNU '
OS2CodePages: 600101bf.00000000
OS2UnicodeRanges: e5018eff.420061ff.00001020.00000040
Lookup: 2 0 0 "Multiple Substitution lookup 0"  {"Multiple Substitution lookup 0 subtable"  } []
Lookup: 4 0 0 "'ccmp' Glyph Composition/Decomposition in Latin lookup 1"  {"'ccmp' Glyph Composition/Decomposition in Latin lookup 1 subtable"  } ['ccmp' ('latn' <'dflt' > ) ]
Lookup: 6 0 0 "'ccmp' Glyph Composition/Decomposition in Latin lookup 2"  {"'ccmp' Glyph Composition/Decomposition in Latin lookup 2 subtable"  } ['ccmp' ('latn' <'dflt' > ) ]
Lookup: 1 0 0 "'ss01' Style Set 1 in Cyrillic lookup 3"  {"'ss01' Style Set 1 in Cyrillic lookup 3 subtable"  } ['ss01' ('cyrl' <'BGR ' > ) ]
Lookup: 1 0 0 "'locl' Localized Forms in Cyrillic lookup 4"  {"'locl' Localized Forms in Cyrillic lookup 4 subtable"  } ['locl' ('cyrl' <'MKD ' 'SRB ' > ) ]

StartChar: exclam
Encoding: 33 33 1
Width: 333
GlyphClass: 2
Flags: W
LayerCount: 2
Fore
SplineSet
120 181 m 1,0,1
 147 306 147 306 178 470 c 0,2,3
 203 601 203 601 215.5 634 c 128,-1,4
 228 667 228 667 262 667 c 0,5,6
 302 667 302 667 302 616 c 0,7,8
 302 593 302 593 294.5 569.5 c 128,-1,9
 287 546 287 546 272.5 515 c 128,-1,10
 258 484 258 484 220 391.5 c 128,-1,11
 182 299 182 299 137 177 c 1,12,-1
 120 181 l 1,0,1
91 95 m 0,13,14
 113 95 113 95 129 79 c 128,-1,15
 145 63 145 63 145 41 c 0,16,17
 145 20 145 20 128.5 4.5 c 128,-1,18
 112 -11 112 -11 90 -11 c 128,-1,19
 68 -11 68 -11 53.5 4.5 c 128,-1,20
 39 20 39 20 39 43 c 0,21,22
 39 63 39 63 55 79 c 128,-1,23
 71 95 71 95 91 95 c 0,13,14
EndSplineSet
EndChar

StartChar: quotedbl
Encoding: 34 34 2
Width: 333
GlyphClass: 2
Flags: W
LayerCount: 2
Fore
SplineSet
311 421 m 1,0,1
 324 581 324 581 332 612 c 1,2,3
 353 662 353 662 388 666 c 1,4,5
 401 666 401 666 410.5 657.5 c 128,-1,6
 420 649 420 649 420 637 c 0,7,8
 420 612 420 612 332 421 c 1,9,-1
 311 421 l 1,0,1
132 421 m 1,10,11
 145 584 145 584 154 617 c 1,12,13
 174 663 174 663 210 666 c 1,14,15
 223 666 223 666 232 657.5 c 128,-1,16
 241 649 241 649 241 637 c 0,17,18
 241 612 241 612 153 421 c 1,19,-1
 132 421 l 1,10,11
EndSplineSet
EndChar

StartChar: numbersign
Encoding: 35 35 3
Width: 500
GlyphClass: 2
Flags: W
LayerCount: 2
Fore
SplineSet
465 267 m 1,0,-1
 454 213 l 1,1,-1
 349 213 l 1,2,-1
 270 0 l 1,3,-1
 208 0 l 1,4,-1
 288 213 l 1,5,-1
 158 213 l 1,6,-1
 79 0 l 1,7,-1
 17 0 l 1,8,-1
 97 213 l 1,9,-1
 2 213 l 1,10,-1
 13 267 l 1,11,-1
 118 267 l 1,12,-1
 172 410 l 1,13,-1
 76 410 l 1,14,-1
 87 464 l 1,15,-1
 192 464 l 1,16,-1
 272 676 l 1,17,-1
 333 676 l 1,18,-1
 253 464 l 1,19,-1
 383 464 l 1,20,-1
 463 676 l 1,21,-1
 524 676 l 1,22,-1
 444 464 l 1,23,-1
 540 464 l 1,24,-1
 529 410 l 1,25,-1
 424 410 l 1,26,-1
 370 267 l 1,27,-1
 465 267 l 1,0,-1
363 410 m 1,28,-1
 233 410 l 1,29,-1
 179 267 l 1,30,-1
 309 267 l 1,31,-1
 363 410 l 1,28,-1
EndSplineSet
EndChar

StartChar: dollar
Encoding: 36 36 4
Width: 500
GlyphClass: 2
Flags: W
AnchorPoint: "Anchor-1" 281 345 basechar 0
LayerCount: 2
Fore
SplineSet
258 329 m 1,0,1
 193 376 193 376 158 418 c 128,-1,2
 123 460 123 460 123 513 c 0,3,4
 123 552 123 552 143 585.5 c 128,-1,5
 163 619 163 619 198 639 c 0,6,7
 228 657 228 657 256 662.5 c 128,-1,8
 284 668 284 668 341 668 c 1,9,-1
 358 731 l 1,10,-1
 392 731 l 1,11,-1
 376 663 l 1,12,13
 450 646 450 646 497 612 c 1,14,-1
 469 498 l 1,15,-1
 454 500 l 1,16,17
 452 556 452 556 433.5 585.5 c 128,-1,18
 415 615 415 615 369 633 c 1,19,-1
 313 396 l 1,20,21
 401 328 401 328 428 288.5 c 128,-1,22
 455 249 455 249 455 190 c 0,23,24
 455 10 455 10 215 0 c 1,25,-1
 194 -89 l 1,26,-1
 159 -89 l 1,27,-1
 181 2 l 1,28,29
 87 20 87 20 31 67 c 1,30,-1
 58 190 l 1,31,-1
 74 193 l 1,32,33
 82 114 82 114 106.5 80 c 128,-1,34
 131 46 131 46 189 32 c 1,35,-1
 258 329 l 1,0,1
336 641 m 1,36,37
 201 641 201 641 201 538 c 0,38,39
 201 504 201 504 218.5 479 c 128,-1,40
 236 454 236 454 282 420 c 1,41,-1
 336 641 l 1,36,37
289 306 m 1,42,-1
 221 25 l 1,43,44
 380 37 380 37 380 162 c 0,45,46
 380 204 380 204 362 232.5 c 128,-1,47
 344 261 344 261 289 306 c 1,42,-1
EndSplineSet
EndChar

StartChar: percent
Encoding: 37 37 5
Width: 833
GlyphClass: 2
Flags: W
LayerCount: 2
Fore
SplineSet
790 263 m 0,0,1
 790 172 790 172 733.5 86 c 128,-1,2
 677 0 677 0 588 0 c 0,3,4
 531 0 531 0 499.5 35.5 c 128,-1,5
 468 71 468 71 468 136 c 0,6,7
 468 223 468 223 535.5 297 c 128,-1,8
 603 371 603 371 683 371 c 0,9,10
 733 371 733 371 761.5 342 c 128,-1,11
 790 313 790 313 790 263 c 0,0,1
605 30 m 0,12,13
 668 30 668 30 716.5 107.5 c 128,-1,14
 765 185 765 185 765 259 c 0,15,16
 765 292 765 292 744 315.5 c 128,-1,17
 723 339 723 339 694 339 c 0,18,19
 650 339 650 339 613.5 289.5 c 128,-1,20
 577 240 577 240 560.5 186.5 c 128,-1,21
 544 133 544 133 544 101 c 0,22,23
 544 30 544 30 605 30 c 0,12,13
403 541 m 0,24,25
 403 492 403 492 378.5 435 c 128,-1,26
 354 378 354 378 305 333.5 c 128,-1,27
 256 289 256 289 198 289 c 0,28,29
 148 289 148 289 113.5 326.5 c 128,-1,30
 79 364 79 364 79 419 c 0,31,32
 79 511 79 511 146.5 586.5 c 128,-1,33
 214 662 214 662 297 662 c 0,34,35
 340 662 340 662 365 641 c 2,36,-1
 383 625 l 2,37,38
 402 608 402 608 452 608 c 128,-1,39
 502 608 502 608 538.5 623.5 c 128,-1,40
 575 639 575 639 613 676 c 1,41,-1
 653 676 l 1,42,-1
 267 -13 l 1,43,-1
 220 -13 l 1,44,-1
 570 613 l 1,45,46
 515 583 515 583 458 583 c 0,47,48
 421 583 421 583 396 593 c 1,49,50
 397 590 397 590 397 587 c 0,51,52
 403 562 403 562 403 541 c 0,24,25
368 600 m 1,53,54
 335 609 335 609 320.5 620.5 c 128,-1,55
 306 632 306 632 301 632 c 0,56,57
 254 632 254 632 204.5 549 c 128,-1,58
 155 466 155 466 155 386 c 0,59,60
 155 357 155 357 171 340 c 128,-1,61
 187 323 187 323 214 323 c 0,62,63
 275 323 275 323 326 393.5 c 128,-1,64
 377 464 377 464 377 549 c 0,65,66
 377 572 377 572 368 600 c 1,53,54
EndSplineSet
EndChar

StartChar: ampersand
Encoding: 38 38 6
Width: 778
GlyphClass: 2
Flags: W
AnchorPoint: "Anchor-1" 365 345 basechar 0
LayerCount: 2
Fore
SplineSet
586 572 m 0,0,1
 586 483 586 483 414 397 c 1,2,3
 452 235 452 235 501 160 c 1,4,5
 548 217 548 217 564 245 c 128,-1,6
 580 273 580 273 580 299 c 0,7,8
 580 315 580 315 569.5 322 c 128,-1,9
 559 329 559 329 530 331 c 1,10,-1
 530 350 l 1,11,-1
 715 350 l 1,12,-1
 715 333 l 1,13,14
 686 329 686 329 671.5 322.5 c 128,-1,15
 657 316 657 316 649 300 c 0,16,17
 624 248 624 248 520 125 c 1,18,19
 550 75 550 75 578.5 53 c 128,-1,20
 607 31 607 31 642 31 c 0,21,22
 672 31 672 31 712 61 c 1,23,-1
 723 50 l 1,24,25
 691 13 691 13 661 -2.5 c 128,-1,26
 631 -18 631 -18 594 -18 c 0,27,28
 519 -18 519 -18 457 61 c 1,29,30
 380 12 380 12 342.5 -3 c 128,-1,31
 305 -18 305 -18 258 -18 c 0,32,33
 175 -18 175 -18 125.5 24.5 c 128,-1,34
 76 67 76 67 76 140 c 0,35,36
 76 166 76 166 85 190.5 c 128,-1,37
 94 215 94 215 105 233 c 128,-1,38
 116 251 116 251 138.5 270.5 c 128,-1,39
 161 290 161 290 176 301 c 128,-1,40
 191 312 191 312 220 327 c 128,-1,41
 249 342 249 342 260 347.5 c 128,-1,42
 271 353 271 353 300.5 365 c 128,-1,43
 330 377 330 377 331 378 c 1,44,45
 331 385 331 385 327.5 417 c 128,-1,46
 324 449 324 449 324 460 c 0,47,48
 324 551 324 551 369 608.5 c 128,-1,49
 414 666 414 666 484 666 c 0,50,51
 527 666 527 666 556.5 639 c 128,-1,52
 586 612 586 612 586 572 c 0,0,1
333 345 m 1,53,54
 258 317 258 317 214 267.5 c 128,-1,55
 170 218 170 218 170 164 c 0,56,57
 170 109 170 109 206.5 71.5 c 128,-1,58
 243 34 243 34 298 34 c 0,59,60
 371 34 371 34 438 90 c 1,61,62
 387 154 387 154 333 345 c 1,53,54
410 428 m 1,63,64
 474 468 474 468 495.5 498.5 c 128,-1,65
 517 529 517 529 517 577 c 0,66,67
 517 607 517 607 506.5 620.5 c 128,-1,68
 496 634 496 634 472 634 c 0,69,70
 405 634 405 634 405 504 c 0,71,72
 405 466 405 466 410 428 c 1,63,64
EndSplineSet
EndChar

StartChar: quotesingle
Encoding: 39 39 7
Width: 200
GlyphClass: 2
Flags: W
LayerCount: 2
Fore
SplineSet
132 421 m 1,0,1
 145 581 145 581 153 612 c 1,2,3
 174 662 174 662 209 666 c 1,4,5
 222 666 222 666 231.5 657.5 c 128,-1,6
 241 649 241 649 241 637 c 0,7,8
 241 612 241 612 153 421 c 1,9,-1
 132 421 l 1,0,1
EndSplineSet
EndChar

StartChar: parenleft
Encoding: 40 40 8
Width: 333
GlyphClass: 2
Flags: W
LayerCount: 2
Fore
SplineSet
141 -181 m 1,0,1
 88 -84 88 -84 65 -5 c 128,-1,2
 42 74 42 74 42 180 c 0,3,4
 42 270 42 270 66.5 349 c 128,-1,5
 91 428 91 428 135 488.5 c 128,-1,6
 179 549 179 549 210.5 582.5 c 128,-1,7
 242 616 242 616 286 655 c 0,8,9
 297 665 297 665 302 669 c 1,10,-1
 315 654 l 1,11,12
 266 602 266 602 238 560.5 c 128,-1,13
 210 519 210 519 186 460 c 0,14,15
 111 279 111 279 111 85 c 0,16,17
 111 13 111 13 121.5 -43 c 128,-1,18
 132 -99 132 -99 159 -175 c 1,19,-1
 141 -181 l 1,0,1
EndSplineSet
EndChar

StartChar: parenright
Encoding: 41 41 9
Width: 333
GlyphClass: 2
Flags: W
LayerCount: 2
Fore
SplineSet
190 669 m 1,0,1
 240 579 240 579 264.5 495 c 128,-1,2
 289 411 289 411 289 304 c 0,3,4
 289 158 289 158 224 45.5 c 128,-1,5
 159 -67 159 -67 29 -180 c 1,6,-1
 16 -165 l 1,7,8
 98 -79 98 -79 136 6 c 1,9,10
 173 86 173 86 196.5 196 c 128,-1,11
 220 306 220 306 220 402 c 0,12,13
 220 547 220 547 171 664 c 1,14,-1
 190 669 l 1,0,1
EndSplineSet
EndChar

StartChar: asterisk
Encoding: 42 42 10
Width: 500
GlyphClass: 2
Flags: W
LayerCount: 2
Fore
SplineSet
346 627 m 0,0,1
 346 613 346 613 332.5 570.5 c 128,-1,2
 319 528 319 528 319 500 c 2,3,-1
 319 473 l 1,4,5
 357 499 357 499 385.5 527.5 c 128,-1,6
 414 556 414 556 427 569 c 128,-1,7
 440 582 440 582 454 582 c 0,8,9
 471 582 471 582 481.5 571.5 c 128,-1,10
 492 561 492 561 492 545 c 0,11,12
 492 526 492 526 479.5 517 c 128,-1,13
 467 508 467 508 448.5 505.5 c 128,-1,14
 430 503 430 503 395 491 c 128,-1,15
 360 479 360 479 328 459 c 1,16,-1
 365 440 l 2,17,18
 385 429 385 429 420 422.5 c 128,-1,19
 455 416 455 416 473.5 407.5 c 128,-1,20
 492 399 492 399 492 378 c 0,21,22
 492 362 492 362 481 350.5 c 128,-1,23
 470 339 470 339 454 339 c 0,24,25
 441 339 441 339 424 355.5 c 128,-1,26
 407 372 407 372 379 400 c 128,-1,27
 351 428 351 428 319 446 c 1,28,29
 320 385 320 385 333.5 344 c 128,-1,30
 347 303 347 303 347 295 c 0,31,32
 347 278 347 278 336 266.5 c 128,-1,33
 325 255 325 255 308 255 c 0,34,35
 293 255 293 255 283 266 c 128,-1,36
 273 277 273 277 273 293 c 0,37,38
 273 305 273 305 287.5 346.5 c 128,-1,39
 302 388 302 388 302 417 c 0,40,41
 302 429 302 429 300 446 c 1,42,43
 296 442 296 442 283.5 435.5 c 128,-1,44
 271 429 271 429 253 413.5 c 128,-1,45
 235 398 235 398 213 371 c 0,46,47
 188 340 188 340 163 340 c 0,48,49
 149 340 149 340 138.5 351 c 128,-1,50
 128 362 128 362 128 377 c 0,51,52
 128 395 128 395 141 404 c 128,-1,53
 154 413 154 413 173.5 416.5 c 128,-1,54
 193 420 193 420 228 431 c 128,-1,55
 263 442 263 442 294 461 c 1,56,-1
 282 468 l 1,57,58
 251 488 251 488 209.5 495.5 c 128,-1,59
 168 503 168 503 148 511 c 128,-1,60
 128 519 128 519 128 546 c 0,61,62
 128 561 128 561 138 571 c 128,-1,63
 148 581 148 581 163 581 c 0,64,65
 182 581 182 581 194 568 c 128,-1,66
 206 555 206 555 232 527.5 c 128,-1,67
 258 500 258 500 301 476 c 1,68,69
 301 528 301 528 288 573 c 128,-1,70
 275 618 275 618 275 626 c 0,71,72
 275 666 275 666 310 666 c 0,73,74
 326 666 326 666 336 655 c 128,-1,75
 346 644 346 644 346 627 c 0,0,1
EndSplineSet
EndChar

StartChar: plus
Encoding: 43 43 11
Width: 675
GlyphClass: 2
Flags: W
LayerCount: 2
Fore
SplineSet
305 286 m 1,0,-1
 305 506 l 1,1,-1
 371 506 l 1,2,-1
 371 286 l 1,3,-1
 590 286 l 1,4,-1
 590 220 l 1,5,-1
 371 220 l 1,6,-1
 371 0 l 1,7,-1
 305 0 l 1,8,-1
 305 220 l 1,9,-1
 86 220 l 1,10,-1
 86 286 l 1,11,-1
 305 286 l 1,0,-1
EndSplineSet
EndChar

StartChar: comma
Encoding: 44 44 12
Width: 250
GlyphClass: 2
Flags: W
LayerCount: 2
Fore
SplineSet
71 -23 m 0,0,1
 71 -10 71 -10 48.5 11.5 c 128,-1,2
 26 33 26 33 26 54 c 0,3,4
 26 74 26 74 40.5 87.5 c 128,-1,5
 55 101 55 101 77 101 c 0,6,7
 102 101 102 101 118.5 80.5 c 128,-1,8
 135 60 135 60 135 30 c 0,9,10
 135 -56 135 -56 5 -129 c 1,11,-1
 -4 -112 l 1,12,13
 71 -62 71 -62 71 -23 c 0,0,1
EndSplineSet
EndChar

StartChar: hyphen
Encoding: 45 45 13
Width: 333
GlyphClass: 2
Flags: W
LayerCount: 2
Fore
SplineSet
282 255 m 1,0,-1
 269 192 l 1,1,-1
 49 192 l 1,2,-1
 63 255 l 1,3,-1
 282 255 l 1,0,-1
EndSplineSet
EndChar

StartChar: period
Encoding: 46 46 14
Width: 250
GlyphClass: 2
Flags: W
LayerCount: 2
Fore
SplineSet
82 100 m 0,0,1
 105 100 105 100 121.5 83 c 128,-1,2
 138 66 138 66 138 43 c 0,3,4
 138 21 138 21 121 5 c 128,-1,5
 104 -11 104 -11 80 -11 c 0,6,7
 59 -11 59 -11 43 5 c 128,-1,8
 27 21 27 21 27 43 c 0,9,10
 27 66 27 66 43.5 83 c 128,-1,11
 60 100 60 100 82 100 c 0,0,1
EndSplineSet
EndChar

StartChar: slash
Encoding: 47 47 15
Width: 296
GlyphClass: 2
Flags: W
LayerCount: 2
Fore
SplineSet
373 666 m 1,0,-1
 446 666 l 1,1,-1
 68 -18 l 1,2,-1
 -5 -18 l 1,3,-1
 373 666 l 1,0,-1
EndSplineSet
EndChar

StartChar: zero
Encoding: 48 48 16
Width: 500
GlyphClass: 2
Flags: W
AnchorPoint: "Anchor-1" 271 345 basechar 0
LayerCount: 2
Fore
SplineSet
497 423 m 0,0,1
 497 334 497 334 460 236 c 128,-1,2
 423 138 423 138 351 65.5 c 128,-1,3
 279 -7 279 -7 193 -7 c 0,4,5
 120 -7 120 -7 76 53.5 c 128,-1,6
 32 114 32 114 32 213 c 0,7,8
 32 328 32 328 76 436 c 128,-1,9
 120 544 120 544 192 610 c 128,-1,10
 264 676 264 676 341 676 c 0,11,12
 414 676 414 676 455.5 608.5 c 128,-1,13
 497 541 497 541 497 423 c 0,0,1
197 21 m 0,14,15
 244 21 244 21 287 72.5 c 128,-1,16
 330 124 330 124 358 201 c 128,-1,17
 386 278 386 278 402 364 c 128,-1,18
 418 450 418 450 418 522 c 0,19,20
 418 582 418 582 396 615 c 128,-1,21
 374 648 374 648 334 648 c 0,22,23
 281 648 281 648 236 586 c 128,-1,24
 191 524 191 524 165.5 438 c 128,-1,25
 140 352 140 352 125.5 275 c 128,-1,26
 111 198 111 198 111 156 c 0,27,28
 111 92 111 92 133.5 56.5 c 128,-1,29
 156 21 156 21 197 21 c 0,14,15
EndSplineSet
Substitution2: "'pnum' Proportional Numbers lookup 18 subtable" fit.0
Substitution2: "'onum' Oldstyle Figures lookup 17 subtable" old.0
EndChar

StartChar: one
Encoding: 49 49 17
Width: 500
GlyphClass: 2
Flags: W
AnchorPoint: "Anchor-1" 271 345 basechar 0
LayerCount: 2
Fore
SplineSet
49 0 m 1,0,-1
 49 14 l 1,1,2
 109 19 109 19 131.5 30 c 128,-1,3
 154 41 154 41 161 68 c 2,4,-1
 299 560 l 2,5,6
 306 585 306 585 306 594 c 0,7,8
 306 608 306 608 296.5 616.5 c 128,-1,9
 287 625 287 625 270 625 c 0,10,11
 269 625 269 625 268 625 c 2,12,-1
 211 623 l 1,13,-1
 211 638 l 1,14,15
 215 639 215 639 220.5 640 c 128,-1,16
 226 641 226 641 228.5 641.5 c 128,-1,17
 231 642 231 642 232 642 c 2,18,-1
 404 676 l 2,19,20
 409 676 409 676 409 669 c 128,-1,21
 409 662 409 662 403 640 c 2,22,-1
 260 121 l 2,23,24
 260 119 260 119 251 88 c 128,-1,25
 242 57 242 57 242 47 c 0,26,27
 242 15 242 15 312 15 c 2,28,-1
 328 15 l 1,29,-1
 328 0 l 1,30,-1
 49 0 l 1,0,-1
EndSplineSet
Substitution2: "'pnum' Proportional Numbers lookup 18 subtable" fit.1
Substitution2: "'onum' Oldstyle Figures lookup 17 subtable" old.1
EndChar

StartChar: two
Encoding: 50 50 18
Width: 500
GlyphClass: 2
Flags: W
AnchorPoint: "Anchor-1" 230 345 basechar 0
LayerCount: 2
Fore
SplineSet
80 516 m 1,0,1
 145 676 145 676 290 676 c 0,2,3
 358 676 358 676 405 627 c 128,-1,4
 452 578 452 578 452 506 c 0,5,6
 452 457 452 457 421.5 409 c 128,-1,7
 391 361 391 361 303 273 c 2,8,-1
 111 81 l 1,9,-1
 111 76 l 1,10,-1
 301 76 l 2,11,12
 342 76 342 76 362 89 c 128,-1,13
 382 102 382 102 400 139 c 1,14,-1
 417 132 l 1,15,-1
 367 0 l 1,16,-1
 12 0 l 1,17,-1
 12 17 l 1,18,-1
 222 241 l 2,19,20
 366 394 366 394 366 481 c 0,21,22
 366 533 366 533 330 568 c 128,-1,23
 294 603 294 603 241 603 c 0,24,25
 155 603 155 603 101 509 c 1,26,-1
 80 516 l 1,0,1
EndSplineSet
Substitution2: "'pnum' Proportional Numbers lookup 18 subtable" fit.2
Substitution2: "'onum' Oldstyle Figures lookup 17 subtable" old.2
EndChar

StartChar: three
Encoding: 51 51 19
Width: 500
GlyphClass: 2
Flags: W
AnchorPoint: "Anchor-1" 255 345 basechar 0
LayerCount: 2
Fore
SplineSet
140 377 m 1,0,1
 379 416 379 416 379 543 c 0,2,3
 379 584 379 584 354.5 609 c 128,-1,4
 330 634 330 634 290 634 c 0,5,6
 229 634 229 634 178 567 c 1,7,-1
 162 572 l 1,8,9
 187 620 187 620 230.5 648 c 128,-1,10
 274 676 274 676 326 676 c 0,11,12
 386 676 386 676 426 640 c 128,-1,13
 466 604 466 604 466 549 c 0,14,15
 466 498 466 498 433.5 467 c 128,-1,16
 401 436 401 436 310 401 c 1,17,-1
 310 398 l 1,18,19
 406 354 406 354 406 249 c 0,20,21
 406 145 406 145 329 69 c 128,-1,22
 252 -7 252 -7 127 -7 c 0,23,24
 15 -7 15 -7 15 52 c 0,25,26
 15 91 15 91 59 91 c 0,27,28
 84 91 84 91 126 61 c 128,-1,29
 168 31 168 31 195 31 c 0,30,31
 249 31 249 31 287.5 76.5 c 128,-1,32
 326 122 326 122 326 195 c 0,33,34
 326 289 326 289 279 325 c 128,-1,35
 232 361 232 361 140 361 c 1,36,-1
 140 377 l 1,0,1
EndSplineSet
Substitution2: "'pnum' Proportional Numbers lookup 18 subtable" fit.3
Substitution2: "'onum' Oldstyle Figures lookup 17 subtable" old.3
EndChar

StartChar: four
Encoding: 52 52 20
Width: 500
GlyphClass: 2
Flags: W
AnchorPoint: "Anchor-1" 289 345 basechar 0
LayerCount: 2
Fore
SplineSet
453 241 m 1,0,-1
 439 176 l 1,1,-1
 339 176 l 1,2,-1
 293 0 l 1,3,-1
 214 0 l 1,4,-1
 263 178 l 1,5,-1
 1 178 l 1,6,-1
 21 245 l 1,7,-1
 438 676 l 1,8,-1
 479 676 l 1,9,-1
 358 241 l 1,10,-1
 453 241 l 1,0,-1
277 241 m 1,11,-1
 373 563 l 1,12,-1
 369 563 l 1,13,-1
 65 245 l 1,14,-1
 65 241 l 1,15,-1
 277 241 l 1,11,-1
EndSplineSet
Substitution2: "'pnum' Proportional Numbers lookup 18 subtable" fit.4
Substitution2: "'onum' Oldstyle Figures lookup 17 subtable" old.4
EndChar

StartChar: five
Encoding: 53 53 21
Width: 500
GlyphClass: 2
Flags: W
AnchorPoint: "Anchor-1" 248 345 basechar 0
LayerCount: 2
Fore
SplineSet
350 242 m 0,0,1
 350 283 350 283 336 315 c 128,-1,2
 322 347 322 347 304 365 c 128,-1,3
 286 383 286 383 253 397.5 c 128,-1,4
 220 412 220 412 200 417 c 128,-1,5
 180 422 180 422 145 430 c 0,6,7
 135 432 135 432 131 433 c 1,8,-1
 131 448 l 1,9,-1
 235 666 l 1,10,-1
 491 666 l 1,11,-1
 468 595 l 1,12,-1
 238 595 l 1,13,-1
 199 507 l 1,14,15
 260 492 260 492 292.5 477 c 128,-1,16
 325 462 325 462 353 436 c 0,17,18
 419 373 419 373 419 280 c 0,19,20
 419 161 419 161 332 77 c 128,-1,21
 245 -7 245 -7 121 -7 c 0,22,23
 72 -7 72 -7 43.5 8.5 c 128,-1,24
 15 24 15 24 15 50 c 0,25,26
 15 68 15 68 26.5 79 c 128,-1,27
 38 90 38 90 56 90 c 0,28,29
 75 90 75 90 113.5 62.5 c 128,-1,30
 152 35 152 35 179 35 c 0,31,32
 247 35 247 35 298.5 97.5 c 128,-1,33
 350 160 350 160 350 242 c 0,0,1
EndSplineSet
Substitution2: "'pnum' Proportional Numbers lookup 18 subtable" fit.5
Substitution2: "'onum' Oldstyle Figures lookup 17 subtable" old.5
EndChar

StartChar: six
Encoding: 54 54 22
Width: 500
GlyphClass: 2
Flags: W
AnchorPoint: "Anchor-1" 271 345 basechar 0
LayerCount: 2
Fore
SplineSet
521 686 m 1,0,-1
 521 670 l 1,1,2
 433 660 433 660 342.5 591.5 c 128,-1,3
 252 523 252 523 199 428 c 1,4,-1
 203 426 l 1,5,6
 248 447 248 447 292 447 c 0,7,8
 366 447 366 447 414 397.5 c 128,-1,9
 462 348 462 348 462 271 c 0,10,11
 462 158 462 158 388 75.5 c 128,-1,12
 314 -7 314 -7 213 -7 c 0,13,14
 130 -7 130 -7 80 50.5 c 128,-1,15
 30 108 30 108 30 204 c 0,16,17
 30 311 30 311 84.5 411.5 c 128,-1,18
 139 512 139 512 234 583 c 0,19,20
 299 631 299 631 360 653 c 128,-1,21
 421 675 421 675 521 686 c 1,0,-1
203 19 m 0,22,23
 250 19 250 19 286 51.5 c 128,-1,24
 322 84 322 84 339.5 131 c 128,-1,25
 357 178 357 178 365 217.5 c 128,-1,26
 373 257 373 257 373 284 c 0,27,28
 373 342 373 342 342 376.5 c 128,-1,29
 311 411 311 411 259 411 c 0,30,31
 192 411 192 411 152 345 c 0,32,33
 132 312 132 312 119 256 c 128,-1,34
 106 200 106 200 106 150 c 0,35,36
 106 88 106 88 131.5 53.5 c 128,-1,37
 157 19 157 19 203 19 c 0,22,23
EndSplineSet
Substitution2: "'pnum' Proportional Numbers lookup 18 subtable" fit.6
Substitution2: "'onum' Oldstyle Figures lookup 17 subtable" old.6
EndChar

StartChar: seven
Encoding: 55 55 23
Width: 500
GlyphClass: 2
Flags: W
AnchorPoint: "Anchor-1" 238 345 basechar 0
LayerCount: 2
Fore
SplineSet
537 656 m 1,0,-1
 149 -8 l 1,1,-1
 79 -8 l 1,2,-1
 446 590 l 1,3,-1
 444 593 l 1,4,-1
 222 593 l 2,5,6
 179 593 179 593 152 578.5 c 128,-1,7
 125 564 125 564 89 521 c 1,8,-1
 75 530 l 1,9,-1
 156 666 l 1,10,-1
 531 666 l 1,11,-1
 537 656 l 1,0,-1
EndSplineSet
Substitution2: "'pnum' Proportional Numbers lookup 18 subtable" fit.7
Substitution2: "'onum' Oldstyle Figures lookup 17 subtable" old.7
EndChar

StartChar: eight
Encoding: 56 56 24
Width: 500
GlyphClass: 2
Flags: W
AnchorPoint: "Anchor-1" 271 345 basechar 0
LayerCount: 2
Fore
SplineSet
229 -7 m 0,0,1
 139 -7 139 -7 84.5 40 c 128,-1,2
 30 87 30 87 30 161 c 0,3,4
 30 227 30 227 80 278 c 128,-1,5
 130 329 130 329 225 360 c 1,6,7
 175 415 175 415 156.5 450.5 c 128,-1,8
 138 486 138 486 138 526 c 0,9,10
 138 593 138 593 188 634.5 c 128,-1,11
 238 676 238 676 318 676 c 0,12,13
 394 676 394 676 443.5 636.5 c 128,-1,14
 493 597 493 597 493 535 c 0,15,16
 493 482 493 482 455 446.5 c 128,-1,17
 417 411 417 411 329 382 c 1,18,19
 393 316 393 316 418.5 269.5 c 128,-1,20
 444 223 444 223 444 173 c 0,21,22
 444 96 444 96 382.5 44.5 c 128,-1,23
 321 -7 321 -7 229 -7 c 0,0,1
247 344 m 1,24,25
 227 336 227 336 206.5 324 c 128,-1,26
 186 312 186 312 159 289.5 c 128,-1,27
 132 267 132 267 115 232 c 128,-1,28
 98 197 98 197 98 155 c 0,29,30
 98 94 98 94 136 54.5 c 128,-1,31
 174 15 174 15 233 15 c 128,-1,32
 292 15 292 15 330.5 54.5 c 128,-1,33
 369 94 369 94 369 155 c 0,34,35
 369 197 369 197 349.5 227 c 128,-1,36
 330 257 330 257 247 344 c 1,24,25
311 399 m 1,37,-1
 344 415 l 1,38,39
 425 457 425 457 425 535 c 0,40,41
 425 588 425 588 395.5 620.5 c 128,-1,42
 366 653 366 653 318 653 c 0,43,44
 271 653 271 653 243.5 622.5 c 128,-1,45
 216 592 216 592 216 540 c 0,46,47
 216 508 216 508 234.5 480.5 c 128,-1,48
 253 453 253 453 311 399 c 1,37,-1
EndSplineSet
Substitution2: "'pnum' Proportional Numbers lookup 18 subtable" fit.8
Substitution2: "'onum' Oldstyle Figures lookup 17 subtable" old.8
EndChar

StartChar: nine
Encoding: 57 57 25
Width: 500
GlyphClass: 2
Flags: W
AnchorPoint: "Anchor-1" 252 345 basechar 0
LayerCount: 2
Fore
SplineSet
23 -17 m 1,0,-1
 23 1 l 1,1,2
 90 15 90 15 151.5 51.5 c 128,-1,3
 213 88 213 88 253 131 c 128,-1,4
 293 174 293 174 318 210.5 c 128,-1,5
 343 247 343 247 352 272 c 1,6,-1
 348 274 l 1,7,8
 277 229 277 229 219 229 c 0,9,10
 153 229 153 229 111 279.5 c 128,-1,11
 69 330 69 330 69 408 c 0,12,13
 69 513 69 513 142.5 594.5 c 128,-1,14
 216 676 216 676 311 676 c 0,15,16
 393 676 393 676 442.5 616 c 128,-1,17
 492 556 492 556 492 458 c 0,18,19
 492 357 492 357 443.5 261.5 c 128,-1,20
 395 166 395 166 308 98 c 0,21,22
 246 49 246 49 185 24.5 c 128,-1,23
 124 0 124 0 23 -17 c 1,0,-1
318 650 m 0,24,25
 280 650 280 650 249.5 629.5 c 128,-1,26
 219 609 219 609 202.5 580 c 128,-1,27
 186 551 186 551 175 516 c 128,-1,28
 164 481 164 481 160.5 456 c 128,-1,29
 157 431 157 431 157 414 c 0,30,31
 157 348 157 348 183.5 311.5 c 128,-1,32
 210 275 210 275 257 275 c 0,33,34
 319 275 319 275 362 318 c 0,35,36
 384 340 384 340 400.5 399.5 c 128,-1,37
 417 459 417 459 417 518 c 0,38,39
 417 580 417 580 391 615 c 128,-1,40
 365 650 365 650 318 650 c 0,24,25
EndSplineSet
Substitution2: "'pnum' Proportional Numbers lookup 18 subtable" fit.9
Substitution2: "'onum' Oldstyle Figures lookup 17 subtable" old.9
EndChar

StartChar: colon
Encoding: 58 58 26
Width: 250
GlyphClass: 2
Flags: W
LayerCount: 2
Fore
SplineSet
106 100 m 0,0,1
 128 100 128 100 144.5 83 c 128,-1,2
 161 66 161 66 161 43 c 128,-1,3
 161 20 161 20 144.5 4.5 c 128,-1,4
 128 -11 128 -11 104 -11 c 0,5,6
 82 -11 82 -11 66 5 c 128,-1,7
 50 21 50 21 50 43 c 0,8,9
 50 66 50 66 66.5 83 c 128,-1,10
 83 100 83 100 106 100 c 0,0,1
200 441 m 128,-1,12
 223 441 223 441 239.5 424.5 c 128,-1,13
 256 408 256 408 256 384 c 0,14,15
 256 361 256 361 239.5 345.5 c 128,-1,16
 223 330 223 330 199 330 c 0,17,18
 176 330 176 330 160.5 346 c 128,-1,19
 145 362 145 362 145 384 c 0,20,21
 145 408 145 408 161 424.5 c 128,-1,11
 177 441 177 441 200 441 c 128,-1,12
EndSplineSet
EndChar

StartChar: semicolon
Encoding: 59 59 27
Width: 250
GlyphClass: 2
Flags: W
LayerCount: 2
Fore
SplineSet
102 -23 m 0,0,1
 102 -10 102 -10 79.5 11.5 c 128,-1,2
 57 33 57 33 57 54 c 0,3,4
 57 74 57 74 71.5 87.5 c 128,-1,5
 86 101 86 101 108 101 c 0,6,7
 133 101 133 101 149.5 80.5 c 128,-1,8
 166 60 166 60 166 30 c 0,9,10
 166 -56 166 -56 36 -129 c 1,11,-1
 27 -112 l 1,12,13
 102 -62 102 -62 102 -23 c 0,0,1
205 441 m 128,-1,15
 228 441 228 441 244.5 424.5 c 128,-1,16
 261 408 261 408 261 384 c 0,17,18
 261 361 261 361 244.5 345.5 c 128,-1,19
 228 330 228 330 204 330 c 0,20,21
 182 330 182 330 166 346 c 128,-1,22
 150 362 150 362 150 384 c 0,23,24
 150 408 150 408 166 424.5 c 128,-1,14
 182 441 182 441 205 441 c 128,-1,15
EndSplineSet
EndChar

StartChar: less
Encoding: 60 60 28
Width: 570
GlyphClass: 2
Flags: W
LayerCount: 2
Fore
SplineSet
562 -10 m 1,0,-1
 54 220 l 1,1,-1
 54 286 l 1,2,-1
 562 516 l 1,3,-1
 562 444 l 1,4,-1
 142 253 l 1,5,-1
 562 62 l 1,6,-1
 562 -10 l 1,0,-1
EndSplineSet
EndChar

StartChar: equal
Encoding: 61 61 29
Width: 664
GlyphClass: 2
Flags: W
LayerCount: 2
Fore
SplineSet
590 386 m 1,0,-1
 590 320 l 1,1,-1
 86 320 l 1,2,-1
 86 386 l 1,3,-1
 590 386 l 1,0,-1
590 186 m 1,4,-1
 590 120 l 1,5,-1
 86 120 l 1,6,-1
 86 186 l 1,7,-1
 590 186 l 1,4,-1
EndSplineSet
EndChar

StartChar: greater
Encoding: 62 62 30
Width: 570
GlyphClass: 2
Flags: W
LayerCount: 2
Fore
SplineSet
64 -10 m 1,0,-1
 64 62 l 1,1,-1
 484 253 l 1,2,-1
 64 444 l 1,3,-1
 64 516 l 1,4,-1
 572 286 l 1,5,-1
 572 220 l 1,6,-1
 64 -10 l 1,0,-1
EndSplineSet
EndChar

StartChar: question
Encoding: 63 63 31
Width: 444
GlyphClass: 2
Flags: W
LayerCount: 2
Fore
SplineSet
248 594 m 0,0,1
 248 584 248 584 255.5 567.5 c 128,-1,2
 263 551 263 551 263 542 c 0,3,4
 263 527 263 527 251.5 517 c 128,-1,5
 240 507 240 507 223 507 c 0,6,7
 205 507 205 507 194.5 520 c 128,-1,8
 184 533 184 533 184 555 c 0,9,10
 184 603 184 603 223 633.5 c 128,-1,11
 262 664 262 664 324 664 c 0,12,13
 391 664 391 664 431.5 628.5 c 128,-1,14
 472 593 472 593 472 535 c 0,15,16
 472 496 472 496 450 462 c 128,-1,17
 428 428 428 428 395 401 c 128,-1,18
 362 374 362 374 327.5 347 c 128,-1,19
 293 320 293 320 263.5 282.5 c 128,-1,20
 234 245 234 245 223 203 c 2,21,-1
 216 174 l 1,22,-1
 199 176 l 1,23,24
 212 251 212 251 230 286.5 c 128,-1,25
 248 322 248 322 311 392 c 0,26,27
 360 447 360 447 379 483 c 128,-1,28
 398 519 398 519 398 557 c 0,29,30
 398 598 398 598 377 620 c 128,-1,31
 356 642 356 642 318 642 c 0,32,33
 286 642 286 642 267 629 c 128,-1,34
 248 616 248 616 248 594 c 0,0,1
184 93 m 128,-1,36
 206 93 206 93 221.5 77.5 c 128,-1,37
 237 62 237 62 237 40 c 0,38,39
 237 20 237 20 221 4 c 128,-1,40
 205 -12 205 -12 185 -12 c 0,41,42
 163 -12 163 -12 147.5 3 c 128,-1,43
 132 18 132 18 132 40 c 128,-1,44
 132 62 132 62 147 77.5 c 128,-1,35
 162 93 162 93 184 93 c 128,-1,36
EndSplineSet
EndChar

StartChar: at
Encoding: 64 64 32
Width: 780
GlyphClass: 2
Flags: W
LayerCount: 2
Fore
SplineSet
271 250 m 0,0,1
 271 303 271 303 293 359 c 128,-1,2
 315 415 315 415 361.5 457.5 c 128,-1,3
 408 500 408 500 466 500 c 0,4,5
 492 500 492 500 506.5 490 c 128,-1,6
 521 480 521 480 537 449 c 1,7,-1
 547 486 l 1,8,-1
 616 486 l 1,9,-1
 551 234 l 2,10,11
 548 224 548 224 548 213 c 0,12,13
 548 171 548 171 585 171 c 0,14,15
 643 171 643 171 679.5 235.5 c 128,-1,16
 716 300 716 300 716 367 c 0,17,18
 716 477 716 477 632 556 c 128,-1,19
 548 635 548 635 431 635 c 0,20,21
 309 635 309 635 230 544 c 128,-1,22
 151 453 151 453 151 313 c 0,23,24
 151 185 151 185 233.5 103 c 128,-1,25
 316 21 316 21 444 21 c 0,26,27
 531 21 531 21 636 68 c 1,28,-1
 648 39 l 1,29,30
 578 6 578 6 532 -6 c 128,-1,31
 486 -18 486 -18 432 -18 c 0,32,33
 279 -18 279 -18 173.5 79.5 c 128,-1,34
 68 177 68 177 68 319 c 0,35,36
 68 464 68 464 173.5 565 c 128,-1,37
 279 666 279 666 431 666 c 0,38,39
 568 666 568 666 662 582 c 128,-1,40
 756 498 756 498 756 376 c 0,41,42
 756 280 756 280 701 209 c 128,-1,43
 646 138 646 138 572 138 c 0,44,45
 537 138 537 138 512 158 c 128,-1,46
 487 178 487 178 483 210 c 1,47,48
 426 139 426 139 360 139 c 0,49,50
 322 139 322 139 296.5 171 c 128,-1,51
 271 203 271 203 271 250 c 0,0,1
520 400 m 0,52,53
 520 430 520 430 507 443 c 128,-1,54
 494 456 494 456 477 456 c 0,55,56
 434 456 434 456 388 400 c 128,-1,57
 342 344 342 344 342 265 c 0,58,59
 342 226 342 226 357.5 203.5 c 128,-1,60
 373 181 373 181 401 181 c 0,61,62
 448 181 448 181 484 255 c 128,-1,63
 520 329 520 329 520 400 c 0,52,53
EndSplineSet
EndChar

StartChar: A
Encoding: 65 65 33
Width: 651
GlyphClass: 2
Flags: W
AnchorPoint: "Anchor-4" 433 659 basechar 0
AnchorPoint: "Anchor-3" 543 0 basechar 0
AnchorPoint: "Anchor-2" 276 0 basechar 0
AnchorPoint: "Anchor-1" 327 273 basechar 0
LayerCount: 2
Fore
SplineSet
615 16 m 1,0,-1
 615 0 l 1,1,-1
 369 0 l 1,2,-1
 369 16 l 1,3,4
 417 21 417 21 432 31 c 128,-1,5
 447 41 447 41 447 69 c 0,6,7
 447 77 447 77 445 95 c 2,8,-1
 425 226 l 1,9,-1
 205 226 l 1,10,-1
 148 113 l 2,11,12
 128 73 128 73 128 51 c 0,13,14
 128 32 128 32 138.5 26 c 128,-1,15
 149 20 149 20 187 16 c 1,16,-1
 187 0 l 1,17,-1
 0 0 l 1,18,-1
 0 16 l 1,19,20
 31 22 31 22 51.5 46 c 128,-1,21
 72 70 72 70 129 168 c 2,22,-1
 419 668 l 1,23,-1
 445 668 l 1,24,-1
 539 102 l 2,25,26
 549 47 549 47 561 33.5 c 128,-1,27
 573 20 573 20 615 16 c 1,0,-1
226 262 m 1,28,-1
 420 262 l 1,29,-1
 376 522 l 1,30,-1
 226 262 l 1,28,-1
EndSplineSet
EndChar

StartChar: B
Encoding: 66 66 34
Width: 591
GlyphClass: 2
Flags: W
AnchorPoint: "Anchor-4" 410 659 basechar 0 {} {150-150 -4}
AnchorPoint: "Anchor-2" 253 0 basechar 0
AnchorPoint: "Anchor-1" 328 345 basechar 0
LayerCount: 2
Fore
SplineSet
421 351 m 1,0,1
 450 339 450 339 468 328.5 c 128,-1,2
 486 318 486 318 506.5 300.5 c 128,-1,3
 527 283 527 283 537 258 c 128,-1,4
 547 233 547 233 547 200 c 0,5,6
 547 111 547 111 473.5 55.5 c 128,-1,7
 400 0 400 0 282 0 c 2,8,-1
 0 0 l 1,9,-1
 0 16 l 1,10,11
 43 24 43 24 56 35.5 c 128,-1,12
 69 47 69 47 81 90 c 2,13,-1
 204 532 l 2,14,15
 215 570 215 570 215 596 c 0,16,17
 215 617 215 617 199.5 625 c 128,-1,18
 184 633 184 633 138 637 c 1,19,-1
 138 653 l 1,20,-1
 396 653 l 2,21,22
 493 653 493 653 544.5 615 c 128,-1,23
 596 577 596 577 596 506 c 0,24,25
 596 391 596 391 428 353 c 0,26,27
 423 351 423 351 421 351 c 1,0,1
246 331 m 1,28,29
 229 264 229 264 213.5 211 c 128,-1,30
 198 158 198 158 192 139 c 128,-1,31
 186 120 186 120 182.5 104 c 128,-1,32
 179 88 179 88 179 72 c 0,33,34
 179 30 179 30 243 30 c 0,35,36
 334 30 334 30 386.5 76.5 c 128,-1,37
 439 123 439 123 439 204 c 0,38,39
 439 245 439 245 421.5 275.5 c 128,-1,40
 404 306 404 306 373 319 c 0,41,42
 343 331 343 331 246 331 c 1,28,29
321 595 m 2,43,-1
 256 363 l 1,44,45
 382 363 382 363 428 390 c 1,46,47
 495 427 495 427 495 515 c 0,48,49
 495 570 495 570 466.5 596.5 c 128,-1,50
 438 623 438 623 378 623 c 0,51,52
 349 623 349 623 337.5 617.5 c 128,-1,53
 326 612 326 612 321 595 c 2,43,-1
EndSplineSet
EndChar

StartChar: C
Encoding: 67 67 35
Width: 611
GlyphClass: 2
Flags: W
AnchorPoint: "Anchor-4" 454 659 basechar 0
AnchorPoint: "Anchor-2" 309 0 basechar 0
AnchorPoint: "Anchor-1" 367 345 basechar 0
LayerCount: 2
Fore
SplineSet
449 666 m 0,0,1
 487 666 487 666 542.5 654 c 128,-1,2
 598 642 598 642 607 642 c 0,3,4
 634 642 634 642 645 664 c 1,5,-1
 666 664 l 1,6,-1
 629 465 l 1,7,-1
 611 468 l 1,8,9
 596 630 596 630 458 630 c 0,10,11
 356 630 356 630 281 553 c 0,12,13
 222 492 222 492 188.5 406.5 c 128,-1,14
 155 321 155 321 155 232 c 0,15,16
 155 135 155 135 201 81 c 128,-1,17
 247 27 247 27 330 27 c 0,18,19
 391 27 391 27 441.5 53 c 128,-1,20
 492 79 492 79 560 145 c 1,21,-1
 577 131 l 1,22,23
 509 52 509 52 445 17 c 128,-1,24
 381 -18 381 -18 304 -18 c 0,25,26
 189 -18 189 -18 116 55 c 128,-1,27
 43 128 43 128 43 243 c 0,28,29
 43 352 43 352 99.5 450 c 128,-1,30
 156 548 156 548 250.5 607 c 128,-1,31
 345 666 345 666 449 666 c 0,0,1
EndSplineSet
EndChar

StartChar: D
Encoding: 68 68 36
Width: 702
GlyphClass: 2
Flags: W
AnchorPoint: "Anchor-4" 416 659 basechar 0
AnchorPoint: "Anchor-2" 233 0 basechar 0
AnchorPoint: "Anchor-1" 361 345 basechar 0
LayerCount: 2
Fore
SplineSet
708 384 m 0,0,1
 708 219 708 219 581.5 109.5 c 128,-1,2
 455 0 455 0 253 0 c 2,3,-1
 0 0 l 1,4,-1
 0 16 l 1,5,6
 43 24 43 24 56 35.5 c 128,-1,7
 69 47 69 47 81 90 c 2,8,-1
 204 532 l 2,9,10
 215 571 215 571 215 596 c 0,11,12
 215 616 215 616 199.5 624.5 c 128,-1,13
 184 633 184 633 138 637 c 1,14,-1
 138 653 l 1,15,-1
 416 653 l 2,16,17
 550 653 550 653 629 580 c 128,-1,18
 708 507 708 507 708 384 c 0,0,1
597 408 m 0,19,20
 597 446 597 446 588.5 479.5 c 128,-1,21
 580 513 580 513 558.5 547.5 c 128,-1,22
 537 582 537 582 492 602.5 c 128,-1,23
 447 623 447 623 382 623 c 0,24,25
 352 623 352 623 338.5 616.5 c 128,-1,26
 325 610 325 610 321 594 c 2,27,-1
 200 162 l 2,28,29
 178 84 178 84 178 67 c 0,30,31
 178 30 178 30 243 30 c 0,32,33
 402 30 402 30 499.5 134 c 128,-1,34
 597 238 597 238 597 408 c 0,19,20
EndSplineSet
EndChar

StartChar: E
Encoding: 69 69 37
Width: 574
GlyphClass: 2
Flags: W
AnchorPoint: "Anchor-4" 420 659 basechar 0
AnchorPoint: "Anchor-3" 490 0 basechar 0
AnchorPoint: "Anchor-2" 273 0 basechar 0
AnchorPoint: "Anchor-1" 347 345 basechar 0
LayerCount: 2
Fore
SplineSet
257 33 m 0,0,1
 327 33 327 33 372.5 40.5 c 128,-1,2
 418 48 418 48 451.5 68.5 c 128,-1,3
 485 89 485 89 503.5 109 c 128,-1,4
 522 129 522 129 553 170 c 1,5,-1
 569 162 l 1,6,-1
 507 0 l 1,7,-1
 0 0 l 1,8,-1
 0 16 l 1,9,10
 42 24 42 24 55.5 36 c 128,-1,11
 69 48 69 48 81 90 c 2,12,-1
 204 532 l 2,13,14
 215 572 215 572 215 596 c 0,15,16
 215 616 215 616 199.5 624.5 c 128,-1,17
 184 633 184 633 138 637 c 1,18,-1
 138 653 l 1,19,-1
 635 653 l 1,20,-1
 604 500 l 1,21,-1
 583 502 l 1,22,23
 585 536 585 536 585 547 c 0,24,25
 585 592 585 592 548 606 c 128,-1,26
 511 620 511 620 393 620 c 0,27,28
 351 620 351 620 338 615.5 c 128,-1,29
 325 611 325 611 320 594 c 2,30,-1
 254 361 l 1,31,32
 324 363 324 363 333 363 c 0,33,34
 401 366 401 366 422 380 c 128,-1,35
 443 394 443 394 471 458 c 1,36,-1
 489 454 l 1,37,-1
 421 222 l 1,38,-1
 401 227 l 1,39,40
 408 258 408 258 408 279 c 0,41,42
 408 305 408 305 392.5 315 c 128,-1,43
 377 325 377 325 331 325 c 2,44,-1
 323 325 l 2,45,46
 298 325 298 325 245 328 c 1,47,48
 227 261 227 261 211.5 207.5 c 128,-1,49
 196 154 196 154 190 135 c 128,-1,50
 184 116 184 116 180.5 99.5 c 128,-1,51
 177 83 177 83 177 67 c 0,52,53
 177 33 177 33 257 33 c 0,0,1
EndSplineSet
EndChar

StartChar: F
Encoding: 70 70 38
Width: 576
GlyphClass: 2
Flags: W
AnchorPoint: "Anchor-4" 413 659 basechar 0
AnchorPoint: "Anchor-2" 160 0 basechar 0
AnchorPoint: "Anchor-1" 337 345 basechar 0
LayerCount: 2
Fore
SplineSet
404 279 m 0,0,1
 404 310 404 310 388.5 317.5 c 128,-1,2
 373 325 373 325 327 325 c 0,3,4
 302 325 302 325 246 328 c 1,5,-1
 184 105 l 2,6,7
 175 72 175 72 175 60 c 0,8,9
 175 37 175 37 191.5 27.5 c 128,-1,10
 208 18 208 18 251 16 c 1,11,-1
 251 0 l 1,12,-1
 0 0 l 1,13,-1
 0 16 l 1,14,15
 43 22 43 22 55.5 33.5 c 128,-1,16
 68 45 68 45 81 90 c 2,17,-1
 204 532 l 2,18,19
 215 570 215 570 215 596 c 0,20,21
 215 618 215 618 201 625 c 128,-1,22
 187 632 187 632 138 637 c 1,23,-1
 138 653 l 1,24,-1
 636 653 l 1,25,-1
 604 500 l 1,26,-1
 583 502 l 1,27,28
 586 534 586 534 586 545 c 0,29,30
 586 591 586 591 547 605.5 c 128,-1,31
 508 620 508 620 382 620 c 0,32,33
 351 620 351 620 338.5 614.5 c 128,-1,34
 326 609 326 609 321 594 c 2,35,-1
 255 361 l 1,36,37
 305 362 305 362 326.5 362 c 128,-1,38
 348 362 348 362 375 366.5 c 128,-1,39
 402 371 402 371 410 374.5 c 128,-1,40
 418 378 418 378 432 391 c 128,-1,41
 446 404 446 404 452 415.5 c 128,-1,42
 458 427 458 427 471 454 c 1,43,-1
 489 449 l 1,44,-1
 413 215 l 1,45,-1
 396 220 l 1,46,47
 404 261 404 261 404 279 c 0,0,1
EndSplineSet
EndChar

StartChar: G
Encoding: 71 71 39
Width: 690
GlyphClass: 2
Flags: W
AnchorPoint: "Anchor-4" 461 659 basechar 0
AnchorPoint: "Anchor-2" 321 0 basechar 0
AnchorPoint: "Anchor-1" 374 345 basechar 0
LayerCount: 2
Fore
SplineSet
447 666 m 0,0,1
 500 666 500 666 557.5 649 c 128,-1,2
 615 632 615 632 625 632 c 0,3,4
 661 632 661 632 685 666 c 1,5,-1
 700 662 l 1,6,-1
 651 465 l 1,7,-1
 633 468 l 1,8,9
 624 549 624 549 577.5 590.5 c 128,-1,10
 531 632 531 632 455 632 c 0,11,12
 398 632 398 632 349.5 609 c 128,-1,13
 301 586 301 586 269.5 547.5 c 128,-1,14
 238 509 238 509 214.5 464.5 c 128,-1,15
 191 420 191 420 178.5 372.5 c 128,-1,16
 166 325 166 325 160 288 c 128,-1,17
 154 251 154 251 154 224 c 0,18,19
 154 126 154 126 206.5 72.5 c 128,-1,20
 259 19 259 19 356 19 c 0,21,22
 378 19 378 19 396.5 22.5 c 128,-1,23
 415 26 415 26 427.5 30.5 c 128,-1,24
 440 35 440 35 450 44.5 c 128,-1,25
 460 54 460 54 466 61 c 128,-1,26
 472 68 472 68 477.5 81 c 128,-1,27
 483 94 483 94 485.5 101.5 c 128,-1,28
 488 109 488 109 492 124 c 128,-1,29
 496 139 496 139 498 145 c 0,30,31
 526 239 526 239 526 269 c 0,32,33
 526 296 526 296 477 300 c 0,34,35
 475 300 475 300 470.5 300.5 c 128,-1,36
 466 301 466 301 459.5 302 c 128,-1,37
 453 303 453 303 448 303 c 1,38,-1
 448 319 l 1,39,-1
 714 319 l 1,40,-1
 714 303 l 1,41,42
 665 300 665 300 646.5 286.5 c 128,-1,43
 628 273 628 273 617 231 c 2,44,-1
 568 44 l 1,45,46
 457 -18 457 -18 331 -18 c 0,47,48
 202 -18 202 -18 123 58 c 128,-1,49
 44 134 44 134 44 246 c 0,50,51
 44 411 44 411 166.5 538.5 c 128,-1,52
 289 666 289 666 447 666 c 0,0,1
EndSplineSet
EndChar

StartChar: H
Encoding: 72 72 40
Width: 705
GlyphClass: 2
Flags: W
AnchorPoint: "Anchor-4" 470 659 basechar 0
AnchorPoint: "Anchor-2" 303 0 basechar 0
AnchorPoint: "Anchor-1" 383 345 basechar 0
LayerCount: 2
Fore
SplineSet
775 653 m 1,0,-1
 775 637 l 1,1,2
 732 629 732 629 718.5 617.5 c 128,-1,3
 705 606 705 606 693 563 c 2,4,-1
 561 82 l 2,5,6
 558 70 558 70 558 58 c 0,7,8
 558 37 558 37 573 28.5 c 128,-1,9
 588 20 588 20 636 16 c 1,10,-1
 636 0 l 1,11,-1
 363 0 l 1,12,-1
 363 16 l 1,13,14
 412 21 412 21 433 36 c 128,-1,15
 454 51 454 51 464 90 c 2,16,-1
 529 326 l 1,17,-1
 244 326 l 1,18,-1
 178 82 l 2,19,20
 175 72 175 72 175 60 c 0,21,22
 175 38 175 38 188 30 c 128,-1,23
 201 22 201 22 246 16 c 1,24,-1
 246 0 l 1,25,-1
 0 0 l 1,26,-1
 0 16 l 1,27,28
 43 24 43 24 56 35.5 c 128,-1,29
 69 47 69 47 81 90 c 2,30,-1
 204 532 l 2,31,32
 215 571 215 571 215 594 c 0,33,34
 215 616 215 616 200 624 c 128,-1,35
 185 632 185 632 138 637 c 1,36,-1
 138 653 l 1,37,-1
 411 653 l 1,38,-1
 411 637 l 1,39,40
 366 634 366 634 343 617.5 c 128,-1,41
 320 601 320 601 310 563 c 2,42,-1
 256 368 l 1,43,-1
 541 368 l 1,44,-1
 587 532 l 2,45,46
 598 571 598 571 598 594 c 0,47,48
 598 615 598 615 584.5 623.5 c 128,-1,49
 571 632 571 632 528 637 c 1,50,-1
 528 653 l 1,51,-1
 775 653 l 1,0,-1
EndSplineSet
EndChar

StartChar: I
Encoding: 73 73 41
Width: 322
GlyphClass: 2
Flags: W
AnchorPoint: "Anchor-4" 285 659 basechar 0
AnchorPoint: "Anchor-3" 120 0 basechar 0
AnchorPoint: "Anchor-2" 112 0 basechar 0
AnchorPoint: "Anchor-1" 207 345 basechar 0
LayerCount: 2
Fore
SplineSet
0 0 m 1,0,-1
 0 16 l 1,1,2
 43 24 43 24 56 35.5 c 128,-1,3
 69 47 69 47 81 90 c 2,4,-1
 204 532 l 2,5,6
 215 571 215 571 215 594 c 0,7,8
 215 615 215 615 201.5 623.5 c 128,-1,9
 188 632 188 632 145 637 c 1,10,-1
 145 653 l 1,11,-1
 392 653 l 1,12,-1
 392 637 l 1,13,14
 348 629 348 629 335 617.5 c 128,-1,15
 322 606 322 606 310 563 c 2,16,-1
 187 120 l 2,17,18
 176 81 176 81 176 57 c 0,19,20
 176 36 176 36 188.5 28.5 c 128,-1,21
 201 21 201 21 244 16 c 1,22,-1
 244 0 l 1,23,-1
 0 0 l 1,0,-1
EndSplineSet
EndChar

StartChar: J
Encoding: 74 74 42
Width: 427
GlyphClass: 2
Flags: W
AnchorPoint: "Anchor-4" 388 659 basechar 0
AnchorPoint: "Anchor-2" 129 0 basechar 0
AnchorPoint: "Anchor-1" 306 345 basechar 0
LayerCount: 2
Fore
SplineSet
497 653 m 1,0,-1
 497 637 l 1,1,2
 454 631 454 631 441 619.5 c 128,-1,3
 428 608 428 608 415 563 c 2,4,-1
 312 192 l 2,5,6
 288 104 288 104 262 64 c 0,7,8
 209 -18 209 -18 117 -18 c 0,9,10
 65 -18 65 -18 32.5 6.5 c 128,-1,11
 0 31 0 31 0 70 c 0,12,13
 0 94 0 94 13 109 c 128,-1,14
 26 124 26 124 46 124 c 0,15,16
 65 124 65 124 79.5 110 c 128,-1,17
 94 96 94 96 94 77 c 0,18,19
 94 74 94 74 93.5 64.5 c 128,-1,20
 93 55 93 55 93 53 c 0,21,22
 93 13 93 13 128 13 c 0,23,24
 162 13 162 13 177 67 c 2,25,-1
 308 532 l 2,26,27
 320 574 320 574 320 596 c 0,28,29
 320 616 320 616 305 624.5 c 128,-1,30
 290 633 290 633 243 637 c 1,31,-1
 243 653 l 1,32,-1
 497 653 l 1,0,-1
EndSplineSet
EndChar

StartChar: K
Encoding: 75 75 43
Width: 641
GlyphClass: 2
Flags: W
AnchorPoint: "Anchor-4" 449 659 basechar 0
AnchorPoint: "Anchor-2" 283 0 basechar 0
AnchorPoint: "Anchor-1" 308 345 basechar 0
LayerCount: 2
Fore
SplineSet
715 653 m 1,0,-1
 715 637 l 1,1,2
 680 631 680 631 640 601 c 2,3,-1
 340 375 l 1,4,-1
 514 72 l 2,5,6
 535 37 535 37 549.5 29 c 128,-1,7
 564 21 564 21 611 16 c 1,8,-1
 611 0 l 1,9,-1
 336 0 l 1,10,-1
 336 16 l 1,11,12
 356 19 356 19 365 19 c 0,13,14
 411 23 411 23 411 45 c 0,15,16
 411 75 411 75 373 140 c 2,17,-1
 252 348 l 1,18,-1
 184 99 l 2,19,20
 176 72 176 72 176 60 c 0,21,22
 176 37 176 37 188.5 29 c 128,-1,23
 201 21 201 21 248 16 c 1,24,-1
 248 0 l 1,25,-1
 0 0 l 1,26,-1
 0 16 l 1,27,28
 44 23 44 23 56.5 34 c 128,-1,29
 69 45 69 45 82 90 c 2,30,-1
 205 532 l 2,31,32
 216 571 216 571 216 594 c 0,33,34
 216 616 216 616 201 624 c 128,-1,35
 186 632 186 632 139 637 c 1,36,-1
 139 653 l 1,37,-1
 412 653 l 1,38,-1
 412 637 l 1,39,40
 368 634 368 634 344.5 617 c 128,-1,41
 321 600 321 600 311 563 c 2,42,-1
 258 369 l 1,43,-1
 410 475 l 2,44,45
 476 521 476 521 515 559 c 128,-1,46
 554 597 554 597 554 615 c 0,47,48
 554 631 554 631 520 634 c 0,49,50
 518 634 518 634 508.5 635 c 128,-1,51
 499 636 499 636 493 637 c 1,52,-1
 493 653 l 1,53,-1
 715 653 l 1,0,-1
EndSplineSet
EndChar

StartChar: L
Encoding: 76 76 44
Width: 568
GlyphClass: 2
Flags: W
AnchorPoint: "Anchor-4" 413 659 basechar 0
AnchorPoint: "Anchor-2" 270 0 basechar 0
AnchorPoint: "Anchor-1" 214 345 basechar 0
LayerCount: 2
Fore
SplineSet
278 36 m 0,0,1
 400 36 400 36 450.5 63.5 c 128,-1,2
 501 91 501 91 547 185 c 1,3,-1
 567 179 l 1,4,-1
 509 0 l 1,5,-1
 0 0 l 1,6,-1
 0 16 l 1,7,8
 43 24 43 24 56 35.5 c 128,-1,9
 69 47 69 47 81 90 c 2,10,-1
 204 532 l 2,11,12
 215 571 215 571 215 594 c 0,13,14
 215 616 215 616 200 624 c 128,-1,15
 185 632 185 632 138 637 c 1,16,-1
 138 653 l 1,17,-1
 411 653 l 1,18,-1
 411 637 l 1,19,20
 366 634 366 634 343 617.5 c 128,-1,21
 320 601 320 601 310 563 c 2,22,-1
 187 120 l 2,23,24
 177 82 177 82 177 70 c 0,25,26
 177 51 177 51 199 43.5 c 128,-1,27
 221 36 221 36 278 36 c 0,0,1
EndSplineSet
EndChar

StartChar: M
Encoding: 77 77 45
Width: 821
GlyphClass: 2
Flags: W
AnchorPoint: "Anchor-4" 523 659 basechar 0
AnchorPoint: "Anchor-2" 325 0 basechar 0
AnchorPoint: "Anchor-1" 431 345 basechar 0
LayerCount: 2
Fore
SplineSet
891 653 m 1,0,-1
 891 637 l 1,1,2
 847 630 847 630 834.5 619 c 128,-1,3
 822 608 822 608 809 563 c 2,4,-1
 686 120 l 2,5,6
 675 82 675 82 675 59 c 128,-1,7
 675 36 675 36 688 28 c 128,-1,8
 701 20 701 20 752 16 c 1,9,-1
 752 0 l 1,10,-1
 479 0 l 1,11,-1
 479 16 l 1,12,13
 528 21 528 21 548.5 36 c 128,-1,14
 569 51 569 51 580 91 c 2,15,-1
 709 561 l 1,16,-1
 332 0 l 1,17,-1
 315 0 l 1,18,-1
 254 546 l 1,19,-1
 136 113 l 2,20,21
 127 82 127 82 127 60 c 0,22,23
 127 39 127 39 143.5 29 c 128,-1,24
 160 19 160 19 198 16 c 1,25,-1
 198 0 l 1,26,-1
 0 0 l 1,27,-1
 0 16 l 1,28,29
 39 21 39 21 57.5 44.5 c 128,-1,30
 76 68 76 68 98 146 c 2,31,-1
 204 518 l 2,32,33
 208 535 208 535 214 553 c 128,-1,34
 220 571 220 571 223 582 c 128,-1,35
 226 593 226 593 226 600 c 0,36,37
 226 633 226 633 152 637 c 1,38,-1
 152 653 l 1,39,-1
 333 653 l 1,40,-1
 388 160 l 1,41,-1
 724 653 l 1,42,-1
 891 653 l 1,0,-1
EndSplineSet
EndChar

StartChar: N
Encoding: 78 78 46
Width: 677
GlyphClass: 2
Flags: W
AnchorPoint: "Anchor-4" 464 659 basechar 0
AnchorPoint: "Anchor-2" 285 0 basechar 0
AnchorPoint: "Anchor-1" 378 345 basechar 0
LayerCount: 2
Fore
SplineSet
607 534 m 2,0,1
 607 536 607 536 612.5 553 c 128,-1,2
 618 570 618 570 618 586 c 0,3,4
 618 613 618 613 604.5 623 c 128,-1,5
 591 633 591 633 548 637 c 1,6,-1
 548 653 l 1,7,-1
 747 653 l 1,8,-1
 747 637 l 1,9,10
 700 627 700 627 685.5 606 c 128,-1,11
 671 585 671 585 643 488 c 2,12,-1
 499 -15 l 1,13,-1
 481 -15 l 1,14,-1
 251 535 l 1,15,-1
 137 113 l 2,16,17
 128 82 128 82 128 59 c 0,18,19
 128 38 128 38 144 28.5 c 128,-1,20
 160 19 160 19 198 16 c 1,21,-1
 198 0 l 1,22,-1
 0 0 l 1,23,-1
 0 16 l 1,24,25
 43 22 43 22 59 45 c 128,-1,26
 75 68 75 68 103 164 c 2,27,-1
 222 581 l 1,28,29
 209 610 209 610 190 622 c 128,-1,30
 171 634 171 634 136 637 c 1,31,-1
 136 653 l 1,32,-1
 297 653 l 1,33,-1
 505 154 l 1,34,-1
 607 534 l 2,0,1
EndSplineSet
EndChar

StartChar: O
Encoding: 79 79 47
Width: 656
GlyphClass: 2
Flags: W
AnchorPoint: "Anchor-4" 452 659 basechar 0
AnchorPoint: "Anchor-3" 279 0 basechar 0
AnchorPoint: "Anchor-2" 268 0 basechar 0
AnchorPoint: "Anchor-1" 348 345 basechar 0
LayerCount: 2
Fore
SplineSet
37 221 m 0,0,1
 37 309 37 309 77 393.5 c 128,-1,2
 117 478 117 478 178.5 536.5 c 128,-1,3
 240 595 240 595 312.5 630.5 c 128,-1,4
 385 666 385 666 451 666 c 0,5,6
 548 666 548 666 612 599.5 c 128,-1,7
 676 533 676 533 676 432 c 0,8,9
 676 361 676 361 644.5 282.5 c 128,-1,10
 613 204 613 204 559 137 c 128,-1,11
 505 70 505 70 424.5 26 c 128,-1,12
 344 -18 344 -18 255 -18 c 0,13,14
 160 -18 160 -18 98.5 49 c 128,-1,15
 37 116 37 116 37 221 c 0,0,1
272 15 m 0,16,17
 336 15 336 15 394 63 c 128,-1,18
 452 111 452 111 489.5 182.5 c 128,-1,19
 527 254 527 254 549 334 c 128,-1,20
 571 414 571 414 571 481 c 0,21,22
 571 551 571 551 536 592 c 128,-1,23
 501 633 501 633 442 633 c 0,24,25
 334 633 334 633 252 514 c 0,26,27
 207 449 207 449 174.5 351.5 c 128,-1,28
 142 254 142 254 142 184 c 0,29,30
 142 103 142 103 175.5 59 c 128,-1,31
 209 15 209 15 272 15 c 0,16,17
EndSplineSet
EndChar

StartChar: P
Encoding: 80 80 48
Width: 566
GlyphClass: 2
Flags: W
AnchorPoint: "Anchor-4" 413 659 basechar 0
AnchorPoint: "Anchor-2" 204 0 basechar 0
AnchorPoint: "Anchor-1" 321 345 basechar 0
LayerCount: 2
Fore
SplineSet
605 504 m 0,0,1
 605 470 605 470 592.5 438 c 128,-1,2
 580 406 580 406 551.5 374.5 c 128,-1,3
 523 343 523 343 467 324 c 128,-1,4
 411 305 411 305 334 305 c 0,5,6
 275 305 275 305 242 313 c 1,7,-1
 189 120 l 2,8,9
 177 77 177 77 177 62 c 0,10,11
 177 37 177 37 187.5 30 c 128,-1,12
 198 23 198 23 245 16 c 1,13,-1
 245 0 l 1,14,-1
 0 0 l 1,15,-1
 0 16 l 1,16,17
 44 25 44 25 56.5 35.5 c 128,-1,18
 69 46 69 46 81 90 c 2,19,-1
 199 515 l 2,20,21
 215 570 215 570 215 595 c 0,22,23
 215 616 215 616 199.5 623.5 c 128,-1,24
 184 631 184 631 138 637 c 1,25,-1
 138 653 l 1,26,-1
 394 653 l 2,27,28
 496 653 496 653 550.5 614.5 c 128,-1,29
 605 576 605 576 605 504 c 0,0,1
502 504 m 0,30,31
 502 560 502 560 473.5 591.5 c 128,-1,32
 445 623 445 623 368 623 c 0,33,34
 330 623 330 623 322 595 c 2,35,-1
 251 347 l 1,36,37
 285 342 285 342 303 342 c 0,38,39
 399 342 399 342 450.5 377 c 128,-1,40
 502 412 502 412 502 504 c 0,30,31
EndSplineSet
EndChar

StartChar: Q
Encoding: 81 81 49
Width: 656
GlyphClass: 2
Flags: W
AnchorPoint: "Anchor-4" 453 659 basechar 0
AnchorPoint: "Anchor-1" 362 345 basechar 0
LayerCount: 2
Fore
SplineSet
37 221 m 0,0,1
 37 309 37 309 77.5 393.5 c 128,-1,2
 118 478 118 478 179.5 536.5 c 128,-1,3
 241 595 241 595 312.5 630.5 c 128,-1,4
 384 666 384 666 447 666 c 0,5,6
 547 666 547 666 611.5 600 c 128,-1,7
 676 534 676 534 676 433 c 0,8,9
 676 315 676 315 607 203.5 c 128,-1,10
 538 92 538 92 427 30 c 0,11,12
 356 -10 356 -10 256 -16 c 1,13,-1
 202 -73 l 1,14,-1
 227 -73 l 2,15,16
 228 -73 228 -73 231 -72 c 1,17,-1
 234 -72 l 2,18,19
 247 -72 247 -72 339 -93.5 c 128,-1,20
 431 -115 431 -115 461 -115 c 0,21,22
 515 -115 515 -115 551.5 -98.5 c 128,-1,23
 588 -82 588 -82 630 -38 c 1,24,-1
 645 -49 l 1,25,26
 601 -110 601 -110 536 -146.5 c 128,-1,27
 471 -183 471 -183 406 -183 c 0,28,29
 358 -183 358 -183 271 -160.5 c 128,-1,30
 184 -138 184 -138 161 -138 c 0,31,32
 102 -138 102 -138 46 -169 c 1,33,-1
 36 -154 l 1,34,35
 92 -115 92 -115 117 -94.5 c 128,-1,36
 142 -74 142 -74 213 -12 c 1,37,38
 156 1 156 1 121 29 c 0,39,40
 37 94 37 94 37 221 c 0,0,1
270 17 m 0,41,42
 336 17 336 17 395 65.5 c 128,-1,43
 454 114 454 114 491 186 c 128,-1,44
 528 258 528 258 549.5 336.5 c 128,-1,45
 571 415 571 415 571 480 c 0,46,47
 571 551 571 551 536.5 592 c 128,-1,48
 502 633 502 633 442 633 c 0,49,50
 334 633 334 633 252 514 c 0,51,52
 206 449 206 449 174 352 c 128,-1,53
 142 255 142 255 142 183 c 0,54,55
 142 104 142 104 175.5 60.5 c 128,-1,56
 209 17 209 17 270 17 c 0,41,42
EndSplineSet
EndChar

StartChar: R
Encoding: 82 82 50
Width: 616
GlyphClass: 2
Flags: W
AnchorPoint: "Anchor-4" 398 659 basechar 0
AnchorPoint: "Anchor-2" 279 0 basechar 0
AnchorPoint: "Anchor-1" 308 345 basechar 0
LayerCount: 2
Fore
SplineSet
601 509 m 0,0,1
 601 374 601 374 410 334 c 0,2,3
 406 333 406 333 404 333 c 1,4,-1
 497 88 l 2,5,6
 511 49 511 49 529 33.5 c 128,-1,7
 547 18 547 18 580 16 c 1,8,-1
 580 0 l 1,9,-1
 432 0 l 1,10,-1
 309 324 l 1,11,-1
 246 329 l 1,12,-1
 188 120 l 1,13,14
 176 73 176 73 176 62 c 0,15,16
 176 37 176 37 187 29.5 c 128,-1,17
 198 22 198 22 244 16 c 1,18,-1
 244 0 l 1,19,-1
 0 0 l 1,20,-1
 0 16 l 1,21,22
 43 24 43 24 56 35.5 c 128,-1,23
 69 47 69 47 81 90 c 2,24,-1
 204 532 l 2,25,26
 215 574 215 574 215 595 c 128,-1,27
 215 616 215 616 200 624 c 128,-1,28
 185 632 185 632 138 637 c 1,29,-1
 138 653 l 1,30,-1
 393 653 l 2,31,32
 494 653 494 653 547.5 616 c 128,-1,33
 601 579 601 579 601 509 c 0,0,1
321 595 m 2,34,-1
 256 366 l 1,35,36
 286 361 286 361 307 361 c 0,37,38
 496 361 496 361 496 511 c 0,39,40
 496 623 496 623 372 623 c 0,41,42
 348 623 348 623 336.5 617 c 128,-1,43
 325 611 325 611 321 595 c 2,34,-1
EndSplineSet
EndChar

StartChar: S
Encoding: 83 83 51
Width: 454
GlyphClass: 2
Flags: W
AnchorPoint: "Anchor-4" 326 659 basechar 0
AnchorPoint: "Anchor-2" 201 0 basechar 0
AnchorPoint: "Anchor-1" 258 345 basechar 0
LayerCount: 2
Fore
SplineSet
292 666 m 0,0,1
 333 666 333 666 373.5 653.5 c 128,-1,2
 414 641 414 641 423 641 c 0,3,4
 440 641 440 641 449 646 c 128,-1,5
 458 651 458 651 468 667 c 1,6,-1
 491 667 l 1,7,-1
 451 468 l 1,8,-1
 433 471 l 1,9,10
 430 550 430 550 405.5 591.5 c 128,-1,11
 381 633 381 633 312 633 c 0,12,13
 261 633 261 633 231.5 605.5 c 128,-1,14
 202 578 202 578 202 531 c 0,15,16
 202 494 202 494 218 469.5 c 128,-1,17
 234 445 234 445 301 377 c 0,18,19
 369 309 369 309 391.5 270 c 128,-1,20
 414 231 414 231 414 182 c 0,21,22
 414 97 414 97 356 39.5 c 128,-1,23
 298 -18 298 -18 212 -18 c 0,24,25
 174 -18 174 -18 121.5 0 c 128,-1,26
 69 18 69 18 56 18 c 0,27,28
 28 18 28 18 18 -15 c 1,29,-1
 0 -15 l 1,30,-1
 34 208 l 1,31,-1
 54 206 l 1,32,33
 52 192 52 192 52 183 c 0,34,35
 52 112 52 112 94 64.5 c 128,-1,36
 136 17 136 17 198 17 c 0,37,38
 253 17 253 17 290 55.5 c 128,-1,39
 327 94 327 94 327 150 c 0,40,41
 327 186 327 186 305 221.5 c 128,-1,42
 283 257 283 257 252 287.5 c 128,-1,43
 221 318 221 318 189.5 349 c 128,-1,44
 158 380 158 380 136 419 c 128,-1,45
 114 458 114 458 114 499 c 0,46,47
 114 572 114 572 164 619 c 128,-1,48
 214 666 214 666 292 666 c 0,0,1
EndSplineSet
EndChar

StartChar: T
Encoding: 84 84 52
Width: 589
GlyphClass: 2
Flags: W
AnchorPoint: "Anchor-4" 418 659 basechar 0
AnchorPoint: "Anchor-2" 232 0 basechar 0
AnchorPoint: "Anchor-1" 328 345 basechar 0
LayerCount: 2
Fore
SplineSet
668 653 m 1,0,-1
 624 490 l 1,1,-1
 607 492 l 1,2,3
 610 518 610 518 610 537 c 0,4,5
 610 579 610 579 585 598.5 c 128,-1,6
 560 618 560 618 506 618 c 2,7,-1
 451 618 l 1,8,-1
 312 120 l 2,9,10
 300 75 300 75 300 61 c 0,11,12
 300 39 300 39 311 30 c 128,-1,13
 322 21 322 21 352 19 c 0,14,15
 355 19 355 19 368 18 c 128,-1,16
 381 17 381 17 390 16 c 1,17,-1
 390 0 l 1,18,-1
 100 0 l 1,19,-1
 100 16 l 1,20,21
 150 20 150 20 173 35.5 c 128,-1,22
 196 51 196 51 206 90 c 2,23,-1
 350 618 l 1,24,-1
 329 618 l 2,25,26
 228 618 228 618 189 595.5 c 128,-1,27
 150 573 150 573 112 495 c 1,28,-1
 94 499 l 1,29,-1
 136 653 l 1,30,-1
 668 653 l 1,0,-1
EndSplineSet
EndChar

StartChar: U
Encoding: 85 85 53
Width: 706
GlyphClass: 2
Flags: W
AnchorPoint: "Anchor-4" 476 659 basechar 0
AnchorPoint: "Anchor-3" 340 0 basechar 0
AnchorPoint: "Anchor-2" 324 0 basechar 0
AnchorPoint: "Anchor-1" 405 345 basechar 0
LayerCount: 2
Fore
SplineSet
648 591 m 0,0,1
 648 615 648 615 631 624.5 c 128,-1,2
 614 634 614 634 577 637 c 1,3,-1
 577 653 l 1,4,-1
 776 653 l 1,5,-1
 776 637 l 1,6,7
 755 632 755 632 744.5 627.5 c 128,-1,8
 734 623 734 623 724 616.5 c 128,-1,9
 714 610 714 610 706.5 592 c 128,-1,10
 699 574 699 574 692 553 c 128,-1,11
 685 532 685 532 672 488 c 2,12,-1
 589 203 l 2,13,14
 556 91 556 91 492.5 36.5 c 128,-1,15
 429 -18 429 -18 331 -18 c 0,16,17
 236 -18 236 -18 174.5 28.5 c 128,-1,18
 113 75 113 75 113 147 c 0,19,20
 113 204 113 204 156 359 c 2,21,-1
 209 551 l 1,22,23
 216 581 216 581 216 596 c 0,24,25
 216 618 216 618 202 625.5 c 128,-1,26
 188 633 188 633 138 637 c 1,27,-1
 138 653 l 1,28,-1
 411 653 l 1,29,-1
 411 637 l 1,30,31
 391 635 391 635 376.5 631.5 c 128,-1,32
 362 628 362 628 351.5 620.5 c 128,-1,33
 341 613 341 613 334.5 608.5 c 128,-1,34
 328 604 328 604 322 591 c 128,-1,35
 316 578 316 578 314 573 c 128,-1,36
 312 568 312 568 307 550 c 128,-1,37
 302 532 302 532 301 527 c 0,38,39
 203 189 203 189 203 141 c 0,40,41
 203 89 203 89 242 56 c 128,-1,42
 281 23 281 23 343 23 c 0,43,44
 386 23 386 23 422 40.5 c 128,-1,45
 458 58 458 58 479.5 81 c 128,-1,46
 501 104 501 104 519.5 141.5 c 128,-1,47
 538 179 538 179 546 202.5 c 128,-1,48
 554 226 554 226 563.5 262.5 c 128,-1,49
 573 299 573 299 574 304 c 0,50,51
 648 565 648 565 648 591 c 0,0,1
EndSplineSet
EndChar

StartChar: V
Encoding: 86 86 54
Width: 663
GlyphClass: 2
Flags: W
AnchorPoint: "Anchor-4" 432 659 basechar 0
AnchorPoint: "Anchor-2" 303 0 basechar 0
AnchorPoint: "Anchor-1" 383 345 basechar 0
LayerCount: 2
Fore
SplineSet
738 653 m 1,0,-1
 738 637 l 1,1,2
 706 636 706 636 682 597 c 2,3,-1
 309 -18 l 1,4,-1
 290 -18 l 1,5,-1
 205 502 l 2,6,7
 189 596 189 596 178.5 614 c 128,-1,8
 168 632 168 632 126 637 c 1,9,-1
 126 653 l 1,10,-1
 367 653 l 1,11,-1
 367 637 l 1,12,13
 320 632 320 632 305 622 c 128,-1,14
 290 612 290 612 290 586 c 0,15,16
 290 576 290 576 291 571 c 2,17,-1
 357 128 l 1,18,-1
 563 484 l 2,19,20
 615 574 615 574 615 603 c 0,21,22
 615 630 615 630 552 637 c 1,23,-1
 552 653 l 1,24,-1
 738 653 l 1,0,-1
EndSplineSet
EndChar

StartChar: W
Encoding: 87 87 55
Width: 888
GlyphClass: 2
Flags: W
AnchorPoint: "Anchor-4" 555 659 basechar 0
AnchorPoint: "Anchor-2" 430 0 basechar 0
AnchorPoint: "Anchor-1" 494 345 basechar 0
LayerCount: 2
Fore
SplineSet
963 653 m 1,0,-1
 963 637 l 1,1,2
 934 628 934 628 921 615.5 c 128,-1,3
 908 603 908 603 888 565 c 2,4,-1
 585 -18 l 1,5,-1
 565 -18 l 1,6,-1
 515 436 l 1,7,-1
 510 436 l 1,8,-1
 288 -18 l 1,9,-1
 269 -18 l 1,10,-1
 207 499 l 2,11,12
 205 512 205 512 202.5 534 c 128,-1,13
 200 556 200 556 199 563.5 c 128,-1,14
 198 571 198 571 195 585.5 c 128,-1,15
 192 600 192 600 189 604 c 128,-1,16
 186 608 186 608 181 616 c 128,-1,17
 176 624 176 624 168.5 626.5 c 128,-1,18
 161 629 161 629 151.5 632 c 128,-1,19
 142 635 142 635 128 637 c 1,20,-1
 128 653 l 1,21,-1
 364 653 l 1,22,-1
 364 637 l 1,23,24
 318 632 318 632 304.5 621.5 c 128,-1,25
 291 611 291 611 291 582 c 0,26,27
 291 573 291 573 292 568 c 2,28,-1
 336 162 l 1,29,-1
 508 510 l 1,30,-1
 499 579 l 2,31,32
 494 616 494 616 481 625.5 c 128,-1,33
 468 635 468 635 424 637 c 1,34,-1
 424 653 l 1,35,-1
 662 653 l 1,36,-1
 662 637 l 1,37,38
 622 633 622 633 608 621 c 128,-1,39
 594 609 594 609 594 578 c 1,40,-1
 635 162 l 1,41,-1
 822 530 l 2,42,43
 843 572 843 572 843 597 c 0,44,45
 843 618 843 618 830.5 625.5 c 128,-1,46
 818 633 818 633 778 637 c 1,47,-1
 778 653 l 1,48,-1
 963 653 l 1,0,-1
EndSplineSet
EndChar

StartChar: X
Encoding: 88 88 56
Width: 665
GlyphClass: 2
Flags: W
AnchorPoint: "Anchor-4" 411 659 basechar 0
AnchorPoint: "Anchor-2" 292 0 basechar 0
AnchorPoint: "Anchor-1" 347 337 basechar 0
LayerCount: 2
Fore
SplineSet
684 653 m 1,0,-1
 684 637 l 1,1,2
 624 618 624 618 559 542 c 2,3,-1
 390 348 l 1,4,-1
 492 90 l 1,5,6
 511 45 511 45 527 33.5 c 128,-1,7
 543 22 543 22 596 16 c 1,8,-1
 596 0 l 1,9,-1
 323 0 l 1,10,-1
 323 16 l 1,11,12
 373 20 373 20 386 26.5 c 128,-1,13
 399 33 399 33 399 55 c 0,14,15
 399 76 399 76 388 104 c 2,16,-1
 321 269 l 1,17,-1
 170 97 l 2,18,19
 149 73 149 73 149 50 c 0,20,21
 149 31 149 31 163.5 23.5 c 128,-1,22
 178 16 178 16 214 16 c 1,23,-1
 214 0 l 1,24,-1
 0 0 l 1,25,-1
 0 16 l 1,26,27
 19 20 19 20 35 28.5 c 128,-1,28
 51 37 51 37 65 47.5 c 128,-1,29
 79 58 79 58 104 85 c 128,-1,30
 129 112 129 112 150 136 c 128,-1,31
 171 160 171 160 216.5 213 c 128,-1,32
 262 266 262 266 303 313 c 1,33,-1
 197 576 l 2,34,35
 183 611 183 611 165.5 622 c 128,-1,36
 148 633 148 633 105 637 c 1,37,-1
 105 653 l 1,38,-1
 369 653 l 1,39,-1
 369 637 l 1,40,41
 328 632 328 632 313 623.5 c 128,-1,42
 298 615 298 615 298 596 c 0,43,44
 298 575 298 575 313 540 c 2,45,-1
 372 393 l 1,46,-1
 517 560 l 2,47,48
 537 583 537 583 537 601 c 0,49,50
 537 618 537 618 525 625 c 128,-1,51
 513 632 513 632 476 637 c 1,52,-1
 476 653 l 1,53,-1
 684 653 l 1,0,-1
EndSplineSet
EndChar

StartChar: Y
Encoding: 89 89 57
Width: 593
GlyphClass: 2
Flags: W
AnchorPoint: "Anchor-4" 407 659 basechar 0
AnchorPoint: "Anchor-3" 267 0 basechar 0
AnchorPoint: "Anchor-2" 235 0 basechar 0
AnchorPoint: "Anchor-1" 338 345 basechar 0
LayerCount: 2
Fore
SplineSet
313 56 m 0,0,1
 313 33 313 33 330.5 26 c 128,-1,2
 348 19 348 19 402 16 c 1,3,-1
 402 0 l 1,4,-1
 113 0 l 1,5,-1
 113 16 l 1,6,7
 163 19 163 19 184.5 34.5 c 128,-1,8
 206 50 206 50 218 90 c 2,9,-1
 279 302 l 1,10,-1
 202 571 l 1,11,12
 189 612 189 612 178.5 621.5 c 128,-1,13
 168 631 168 631 126 637 c 1,14,-1
 126 653 l 1,15,-1
 365 653 l 1,16,-1
 365 637 l 1,17,18
 320 632 320 632 306.5 625.5 c 128,-1,19
 293 619 293 619 293 601 c 0,20,21
 293 594 293 594 294.5 584.5 c 128,-1,22
 296 575 296 575 301.5 554.5 c 128,-1,23
 307 534 307 534 313.5 512 c 128,-1,24
 320 490 320 490 333.5 443 c 128,-1,25
 347 396 347 396 360 347 c 1,26,-1
 398 393 l 1,27,28
 548 568 548 568 548 606 c 0,29,30
 548 623 548 623 531.5 628.5 c 128,-1,31
 515 634 515 634 479 637 c 1,32,-1
 479 653 l 1,33,-1
 668 653 l 1,34,-1
 668 637 l 1,35,36
 646 627 646 627 634 616.5 c 128,-1,37
 622 606 622 606 598 576 c 2,38,-1
 379 306 l 1,39,-1
 350 205 l 2,40,41
 348 196 348 196 338 163.5 c 128,-1,42
 328 131 328 131 320.5 101 c 128,-1,43
 313 71 313 71 313 56 c 0,0,1
EndSplineSet
EndChar

StartChar: Z
Encoding: 90 90 58
Width: 563
GlyphClass: 2
Flags: W
AnchorPoint: "Anchor-4" 388 659 basechar 0
AnchorPoint: "Anchor-2" 263 0 basechar 0
AnchorPoint: "Anchor-1" 313 345 basechar 0
LayerCount: 2
Fore
SplineSet
308 617 m 2,0,1
 276 617 276 617 249 613.5 c 128,-1,2
 222 610 222 610 204 605 c 128,-1,3
 186 600 186 600 170 591 c 128,-1,4
 154 582 154 582 145 575.5 c 128,-1,5
 136 569 136 569 127.5 556.5 c 128,-1,6
 119 544 119 544 115.5 537.5 c 128,-1,7
 112 531 112 531 106.5 518 c 128,-1,8
 101 505 101 505 99 502 c 1,9,-1
 80 507 l 1,10,-1
 126 653 l 1,11,-1
 612 653 l 1,12,-1
 612 639 l 1,13,-1
 129 36 l 1,14,-1
 290 36 l 2,15,16
 344 36 344 36 382.5 42.5 c 128,-1,17
 421 49 421 49 444 57 c 128,-1,18
 467 65 467 65 486 85.5 c 128,-1,19
 505 106 505 106 514 121.5 c 128,-1,20
 523 137 523 137 540 171 c 1,21,-1
 559 168 l 1,22,-1
 505 0 l 1,23,-1
 0 0 l 1,24,-1
 0 14 l 1,25,-1
 479 617 l 1,26,-1
 308 617 l 2,0,1
EndSplineSet
EndChar

StartChar: bracketleft
Encoding: 91 91 59
Width: 389
GlyphClass: 2
Flags: W
LayerCount: 2
Fore
SplineSet
384 636 m 1,0,-1
 322 636 l 2,1,2
 300 636 300 636 290 628.5 c 128,-1,3
 280 621 280 621 275 601 c 2,4,-1
 115 -77 l 2,5,6
 111 -93 111 -93 111 -98 c 0,7,8
 111 -126 111 -126 160 -126 c 2,9,-1
 216 -126 l 1,10,-1
 209 -153 l 1,11,-1
 21 -153 l 1,12,-1
 218 663 l 1,13,-1
 391 663 l 1,14,-1
 384 636 l 1,0,-1
EndSplineSet
EndChar

StartChar: backslash
Encoding: 92 92 60
Width: 490
GlyphClass: 2
Flags: W
LayerCount: 2
Fore
SplineSet
109 666 m 1,0,-1
 181 666 l 1,1,-1
 469 -18 l 1,2,-1
 398 -18 l 1,3,-1
 109 666 l 1,0,-1
EndSplineSet
EndChar

StartChar: bracketright
Encoding: 93 93 61
Width: 389
GlyphClass: 2
Flags: W
LayerCount: 2
Fore
SplineSet
19 -126 m 1,0,-1
 81 -126 l 2,1,2
 104 -126 104 -126 113 -119 c 128,-1,3
 122 -112 122 -112 127 -90 c 2,4,-1
 288 588 l 2,5,6
 292 604 292 604 292 609 c 0,7,8
 292 636 292 636 243 636 c 2,9,-1
 186 636 l 1,10,-1
 193 663 l 1,11,-1
 382 663 l 1,12,-1
 185 -153 l 1,13,-1
 12 -153 l 1,14,-1
 19 -126 l 1,0,-1
EndSplineSet
EndChar

StartChar: asciicircum
Encoding: 94 94 62
Width: 422
GlyphClass: 2
Flags: W
LayerCount: 2
Fore
SplineSet
68 301 m 1,0,-1
 0 301 l 1,1,-1
 181 666 l 1,2,-1
 241 666 l 1,3,-1
 422 301 l 1,4,-1
 354 301 l 1,5,-1
 211 590 l 1,6,-1
 68 301 l 1,0,-1
EndSplineSet
EndChar

StartChar: underscore
Encoding: 95 95 63
Width: 500
GlyphClass: 2
Flags: W
LayerCount: 2
Fore
SplineSet
500 -125 m 1,0,-1
 0 -125 l 1,1,-1
 0 -75 l 1,2,-1
 500 -75 l 1,3,-1
 500 -125 l 1,0,-1
EndSplineSet
EndChar

StartChar: grave
Encoding: 96 96 64
Width: 250
GlyphClass: 2
Flags: W
LayerCount: 2
Fore
SplineSet
298 495 m 1,0,-1
 258 495 l 1,1,-1
 146 592 l 2,2,3
 132 604 132 604 132 623 c 0,4,5
 132 639 132 639 143 652.5 c 128,-1,6
 154 666 154 666 178 666 c 0,7,8
 201 666 201 666 214 643 c 2,9,-1
 298 495 l 1,0,-1
EndSplineSet
EndChar

StartChar: a
Encoding: 97 97 65
Width: 498
GlyphClass: 2
Flags: W
AnchorPoint: "Anchor-4" 307 443 basechar 0
AnchorPoint: "Anchor-3" 339 0 basechar 0
AnchorPoint: "Anchor-2" 203 0 basechar 0
AnchorPoint: "Anchor-1" 250 233 basechar 0
AnchorPoint: "Anchor-0" 400 442 basechar 0
LayerCount: 2
Fore
SplineSet
384 41 m 0,0,1
 388 41 388 41 394 44.5 c 128,-1,2
 400 48 400 48 409.5 56 c 128,-1,3
 419 64 419 64 425 70.5 c 128,-1,4
 431 77 431 77 444.5 90.5 c 128,-1,5
 458 104 458 104 464 110 c 1,6,-1
 476 100 l 1,7,8
 421 32 421 32 394 11 c 128,-1,9
 367 -10 367 -10 337 -10 c 0,10,11
 297 -10 297 -10 297 31 c 0,12,13
 297 56 297 56 320 146 c 1,14,15
 254 53 254 53 213 21 c 128,-1,16
 172 -11 172 -11 119 -11 c 0,17,18
 71 -11 71 -11 44 18.5 c 128,-1,19
 17 48 17 48 17 100 c 0,20,21
 17 177 17 177 60.5 257 c 128,-1,22
 104 337 104 337 171.5 389 c 128,-1,23
 239 441 239 441 303 441 c 0,24,25
 370 441 370 441 383 383 c 1,26,-1
 394 431 l 1,27,-1
 397 434 l 1,28,-1
 458 441 l 1,29,-1
 465 438 l 1,30,31
 464 434 464 434 459 417 c 0,32,33
 370 91 370 91 370 54 c 0,34,35
 370 41 370 41 384 41 c 0,0,1
365 358 m 0,36,37
 365 386 365 386 348.5 402.5 c 128,-1,38
 332 419 332 419 304 419 c 0,39,40
 249 419 249 419 199.5 355 c 128,-1,41
 150 291 150 291 125.5 221.5 c 128,-1,42
 101 152 101 152 101 113 c 0,43,44
 101 79 101 79 117 58.5 c 128,-1,45
 133 38 133 38 159 38 c 0,46,47
 206 38 206 38 255 92.5 c 128,-1,48
 304 147 304 147 334.5 222 c 128,-1,49
 365 297 365 297 365 358 c 0,36,37
EndSplineSet
EndChar

StartChar: b
Encoding: 98 98 66
Width: 476
GlyphClass: 2
Flags: W
AnchorPoint: "Anchor-4" 374 666 basechar 0
AnchorPoint: "Anchor-2" 164 0 basechar 0
AnchorPoint: "Anchor-1" 270 233 basechar 0
AnchorPoint: "Anchor-0" 380 442 basechar 0
LayerCount: 2
Fore
SplineSet
112 643 m 1,0,-1
 112 660 l 1,1,2
 187 669 187 669 265 683 c 1,3,-1
 270 678 l 1,4,-1
 166 290 l 1,5,6
 219 373 219 373 263 407 c 128,-1,7
 307 441 307 441 359 441 c 0,8,9
 409 441 409 441 442 407 c 128,-1,10
 475 373 475 373 475 321 c 0,11,12
 475 244 475 244 427.5 166.5 c 128,-1,13
 380 89 380 89 306 39 c 128,-1,14
 232 -11 232 -11 158 -11 c 0,15,16
 112 -11 112 -11 68.5 7.5 c 128,-1,17
 25 26 25 26 25 46 c 1,18,-1
 161 547 l 2,19,20
 177 603 177 603 177 616 c 0,21,22
 177 633 177 633 166.5 637.5 c 128,-1,23
 156 642 156 642 112 643 c 1,0,-1
157 12 m 0,24,25
 208 12 208 12 254.5 48 c 128,-1,26
 301 84 301 84 329 134 c 128,-1,27
 357 184 357 184 373.5 231 c 128,-1,28
 390 278 390 278 390 306 c 0,29,30
 390 346 390 346 371 369 c 128,-1,31
 352 392 352 392 320 392 c 0,32,33
 275 392 275 392 234 349.5 c 128,-1,34
 193 307 193 307 167 248 c 128,-1,35
 141 189 141 189 126 133.5 c 128,-1,36
 111 78 111 78 111 46 c 0,37,38
 111 12 111 12 157 12 c 0,24,25
EndSplineSet
EndChar

StartChar: c
Encoding: 99 99 67
Width: 403
GlyphClass: 2
Flags: W
AnchorPoint: "Anchor-4" 318 443 basechar 0
AnchorPoint: "Anchor-2" 184 0 basechar 0
AnchorPoint: "Anchor-1" 238 233 basechar 0
AnchorPoint: "Anchor-0" 330 442 basechar 0
LayerCount: 2
Fore
SplineSet
309 420 m 0,0,1
 249 420 249 420 202 372.5 c 128,-1,2
 155 325 155 325 132.5 261.5 c 128,-1,3
 110 198 110 198 110 139 c 0,4,5
 110 86 110 86 134 55.5 c 128,-1,6
 158 25 158 25 201 25 c 0,7,8
 238 25 238 25 270.5 43.5 c 128,-1,9
 303 62 303 62 344 106 c 1,10,-1
 360 96 l 1,11,12
 315 39 315 39 271 14 c 128,-1,13
 227 -11 227 -11 171 -11 c 0,14,15
 101 -11 101 -11 62.5 28.5 c 128,-1,16
 24 68 24 68 24 139 c 0,17,18
 24 256 24 256 113 348.5 c 128,-1,19
 202 441 202 441 314 441 c 0,20,21
 359 441 359 441 389 418 c 128,-1,22
 419 395 419 395 419 360 c 0,23,24
 419 341 419 341 405 327.5 c 128,-1,25
 391 314 391 314 371 314 c 0,26,27
 332 314 332 314 332 352 c 0,28,29
 332 362 332 362 339.5 378.5 c 128,-1,30
 347 395 347 395 347 400 c 0,31,32
 347 420 347 420 309 420 c 0,0,1
EndSplineSet
EndChar

StartChar: d
Encoding: 100 100 68
Width: 500
GlyphClass: 2
Flags: W
AnchorPoint: "Anchor-4" 328 664 basechar 0
AnchorPoint: "Anchor-2" 167 0 basechar 0
AnchorPoint: "Anchor-1" 247 233 basechar 0
AnchorPoint: "Anchor-0" 493 442 basechar 0
LayerCount: 2
Fore
SplineSet
466 111 m 1,0,-1
 478 101 l 1,1,2
 397 -13 397 -13 332 -13 c 0,3,4
 313 -13 313 -13 301.5 -0.5 c 128,-1,5
 290 12 290 12 290 32 c 0,6,7
 290 61 290 61 303 121 c 1,8,9
 252 46 252 46 213 17.5 c 128,-1,10
 174 -11 174 -11 123 -11 c 0,11,12
 74 -11 74 -11 46 19.5 c 128,-1,13
 18 50 18 50 18 103 c 0,14,15
 18 176 18 176 63.5 256 c 128,-1,16
 109 336 109 336 178 388.5 c 128,-1,17
 247 441 247 441 310 441 c 0,18,19
 339 441 339 441 354 427.5 c 128,-1,20
 369 414 369 414 375 383 c 1,21,-1
 419 547 l 2,22,23
 434 602 434 602 434 617 c 0,24,25
 434 643 434 643 372 643 c 1,26,-1
 372 660 l 1,27,28
 449 667 449 667 525 683 c 1,29,-1
 530 678 l 1,30,31
 463 414 463 414 431 306 c 0,32,33
 366 89 366 89 366 60 c 0,34,35
 366 52 366 52 371.5 46 c 128,-1,36
 377 40 377 40 384 40 c 0,37,38
 397 40 397 40 411.5 52.5 c 128,-1,39
 426 65 426 65 466 111 c 1,0,-1
359 361 m 0,40,41
 359 418 359 418 310 418 c 0,42,43
 265 418 265 418 216 365.5 c 128,-1,44
 167 313 167 313 136 238.5 c 128,-1,45
 105 164 105 164 105 103 c 0,46,47
 105 74 105 74 121 55.5 c 128,-1,48
 137 37 137 37 163 37 c 0,49,50
 208 37 208 37 254 86 c 128,-1,51
 300 135 300 135 329.5 211 c 128,-1,52
 359 287 359 287 359 361 c 0,40,41
EndSplineSet
EndChar

StartChar: e
Encoding: 101 101 69
Width: 406
GlyphClass: 2
Flags: W
AnchorPoint: "Anchor-4" 328 443 basechar 0
AnchorPoint: "Anchor-3" 165 0 basechar 0
AnchorPoint: "Anchor-2" 150 0 basechar 0
AnchorPoint: "Anchor-1" 237 233 basechar 0
AnchorPoint: "Anchor-0" 320 442 basechar 0
LayerCount: 2
Fore
SplineSet
351 109 m 1,0,-1
 363 97 l 1,1,2
 319 46 319 46 264 17.5 c 128,-1,3
 209 -11 209 -11 156 -11 c 0,4,5
 97 -11 97 -11 60.5 27 c 128,-1,6
 24 65 24 65 24 126 c 0,7,8
 24 199 24 199 69 273 c 128,-1,9
 114 347 114 347 184.5 394 c 128,-1,10
 255 441 255 441 325 441 c 0,11,12
 362 441 362 441 383.5 423 c 128,-1,13
 405 405 405 405 405 373 c 0,14,15
 405 308 405 308 333 257 c 128,-1,16
 261 206 261 206 149 190 c 2,17,-1
 121 186 l 1,18,19
 111 146 111 146 111 124 c 0,20,21
 111 83 111 83 136.5 58.5 c 128,-1,22
 162 34 162 34 205 34 c 0,23,24
 237 34 237 34 267 49.5 c 128,-1,25
 297 65 297 65 351 109 c 1,0,-1
128 208 m 1,26,27
 182 221 182 221 222.5 240 c 128,-1,28
 263 259 263 259 284.5 277 c 128,-1,29
 306 295 306 295 319 316 c 128,-1,30
 332 337 332 337 335.5 351 c 128,-1,31
 339 365 339 365 339 379 c 0,32,33
 339 396 339 396 329.5 407 c 128,-1,34
 320 418 320 418 304 418 c 0,35,36
 266 418 266 418 218 368.5 c 128,-1,37
 170 319 170 319 145 252 c 2,38,-1
 128 208 l 1,26,27
EndSplineSet
EndChar

StartChar: f
Encoding: 102 102 70
Width: 424
GlyphClass: 2
Flags: W
AnchorPoint: "Anchor-4" 377 662 basechar 0
AnchorPoint: "Anchor-2" 90 -200 basechar 0
AnchorPoint: "Anchor-1" 177 233 basechar 0
AnchorPoint: "Anchor-0" 490 442 basechar 0
LayerCount: 2
Fore
SplineSet
-1 -143 m 0,0,1
 -1 -151 -1 -151 -5.5 -158.5 c 128,-1,2
 -10 -166 -10 -166 -10 -170 c 0,3,4
 -10 -186 -10 -186 10 -186 c 0,5,6
 74 -186 74 -186 107 -24 c 2,7,-1
 195 396 l 1,8,-1
 105 396 l 1,9,-1
 112 428 l 1,10,-1
 204 428 l 1,11,12
 217 469 217 469 226.5 496 c 128,-1,13
 236 523 236 523 254.5 561 c 128,-1,14
 273 599 273 599 293 622 c 128,-1,15
 313 645 313 645 343 661.5 c 128,-1,16
 373 678 373 678 408 678 c 0,17,18
 445 678 445 678 469.5 659.5 c 128,-1,19
 494 641 494 641 494 613 c 0,20,21
 494 597 494 597 481.5 585 c 128,-1,22
 469 573 469 573 452 573 c 128,-1,23
 435 573 435 573 425 584 c 128,-1,24
 415 595 415 595 415 613 c 0,25,26
 415 622 415 622 420 632 c 128,-1,27
 425 642 425 642 425 644 c 0,28,29
 425 656 425 656 403 656 c 0,30,31
 361 656 361 656 332 601 c 128,-1,32
 303 546 303 546 281 428 c 1,33,-1
 389 428 l 1,34,-1
 383 396 l 1,35,-1
 274 396 l 1,36,-1
 202 76 l 2,37,38
 171 -62 171 -62 120 -134.5 c 128,-1,39
 69 -207 69 -207 2 -207 c 0,40,41
 -31 -207 -31 -207 -54 -189 c 128,-1,42
 -77 -171 -77 -171 -77 -146 c 0,43,44
 -77 -129 -77 -129 -66.5 -117 c 128,-1,45
 -56 -105 -56 -105 -40 -105 c 128,-1,46
 -24 -105 -24 -105 -12.5 -116 c 128,-1,47
 -1 -127 -1 -127 -1 -143 c 0,0,1
EndSplineSet
EndChar

StartChar: g
Encoding: 103 103 71
Width: 440
GlyphClass: 2
Flags: W
AnchorPoint: "Anchor-4" 266 443 basechar 0
AnchorPoint: "Anchor-2" 151 -200 basechar 0
AnchorPoint: "Anchor-1" 212 233 basechar 0
AnchorPoint: "Anchor-0" 340 442 basechar 0
LayerCount: 2
Fore
SplineSet
265 441 m 0,0,1
 299 441 299 441 324 432 c 128,-1,2
 349 423 349 423 362 414 c 128,-1,3
 375 405 375 405 379 405 c 2,4,-1
 440 405 l 1,5,-1
 440 366 l 1,6,-1
 390 366 l 1,7,8
 399 336 399 336 399 310 c 0,9,10
 399 251 399 251 340.5 201 c 128,-1,11
 282 151 282 151 214 151 c 0,12,13
 200 151 200 151 188.5 153 c 128,-1,14
 177 155 177 155 176 155 c 0,15,16
 166 155 166 155 153 140 c 128,-1,17
 140 125 140 125 140 114 c 0,18,19
 140 98 140 98 173.5 84.5 c 128,-1,20
 207 71 207 71 246.5 60 c 128,-1,21
 286 49 286 49 319.5 18 c 128,-1,22
 353 -13 353 -13 353 -60 c 0,23,24
 353 -125 353 -125 295 -165.5 c 128,-1,25
 237 -206 237 -206 143 -206 c 0,26,27
 67 -206 67 -206 21.5 -175 c 128,-1,28
 -24 -144 -24 -144 -24 -92 c 0,29,30
 -24 -58 -24 -58 -2.5 -34 c 128,-1,31
 19 -10 19 -10 93 39 c 1,32,33
 66 59 66 59 66 78 c 0,34,35
 66 96 66 96 82.5 114 c 128,-1,36
 99 132 99 132 143 162 c 1,37,38
 100 182 100 182 82 206.5 c 128,-1,39
 64 231 64 231 64 270 c 0,40,41
 64 341 64 341 123 391 c 128,-1,42
 182 441 182 441 265 441 c 0,0,1
116 28 m 1,43,44
 112 26 112 26 106 22.5 c 128,-1,45
 100 19 100 19 85.5 8.5 c 128,-1,46
 71 -2 71 -2 60 -14 c 128,-1,47
 49 -26 49 -26 40 -44.5 c 128,-1,48
 31 -63 31 -63 31 -82 c 0,49,50
 31 -130 31 -130 64.5 -157 c 128,-1,51
 98 -184 98 -184 158 -184 c 0,52,53
 216 -184 216 -184 254.5 -157 c 128,-1,54
 293 -130 293 -130 293 -90 c 0,55,56
 293 -63 293 -63 273.5 -43 c 128,-1,57
 254 -23 254 -23 233 -14 c 128,-1,58
 212 -5 212 -5 172 8 c 128,-1,59
 132 21 132 21 116 28 c 1,43,44
202 172 m 0,60,61
 253 172 253 172 286.5 230.5 c 128,-1,62
 320 289 320 289 320 348 c 0,63,64
 320 419 320 419 264 419 c 0,65,66
 215 419 215 419 178.5 367.5 c 128,-1,67
 142 316 142 316 142 247 c 0,68,69
 142 212 142 212 158 192 c 128,-1,70
 174 172 174 172 202 172 c 0,60,61
EndSplineSet
EndChar

StartChar: h
Encoding: 104 104 72
Width: 499
GlyphClass: 2
Flags: W
AnchorPoint: "Anchor-4" 347 658 basechar 0
AnchorPoint: "Anchor-2" 187 0 basechar 0
AnchorPoint: "Anchor-1" 185 233 basechar 0
AnchorPoint: "Anchor-0" 380 442 basechar 0
LayerCount: 2
Fore
SplineSet
448 374 m 0,0,1
 448 342 448 342 407.5 206.5 c 128,-1,2
 367 71 367 71 367 56 c 0,3,4
 367 49 367 49 371.5 43.5 c 128,-1,5
 376 38 376 38 383 38 c 0,6,7
 395 38 395 38 410 52.5 c 128,-1,8
 425 67 425 67 465 117 c 1,9,-1
 478 105 l 1,10,11
 433 40 433 40 401.5 15.5 c 128,-1,12
 370 -9 370 -9 332 -9 c 0,13,14
 312 -9 312 -9 300 2.5 c 128,-1,15
 288 14 288 14 288 33 c 0,16,17
 288 50 288 50 308 125 c 2,18,-1
 363 332 l 2,19,20
 370 360 370 360 370 365 c 0,21,22
 370 375 370 375 361.5 382.5 c 128,-1,23
 353 390 353 390 342 390 c 0,24,25
 316 390 316 390 271 349 c 128,-1,26
 226 308 226 308 187 249 c 0,27,28
 157 203 157 203 140.5 159 c 128,-1,29
 124 115 124 115 94 0 c 1,30,-1
 19 0 l 1,31,-1
 154 512 l 1,32,33
 178 598 178 598 178 617 c 0,34,35
 178 641 178 641 137 641 c 2,36,-1
 111 641 l 1,37,-1
 111 656 l 1,38,39
 187 665 187 665 268 683 c 1,40,-1
 273 678 l 1,41,-1
 153 230 l 1,42,43
 288 441 288 441 382 441 c 0,44,45
 411 441 411 441 429.5 422.5 c 128,-1,46
 448 404 448 404 448 374 c 0,0,1
EndSplineSet
EndChar

StartChar: i
Encoding: 105 105 73
Width: 246
GlyphClass: 2
Flags: W
AnchorPoint: "Anchor-4" 209 650 basechar 0
AnchorPoint: "Anchor-3" 92 0 basechar 0
AnchorPoint: "Anchor-2" 85 0 basechar 0
AnchorPoint: "Anchor-1" 126 233 basechar 0
AnchorPoint: "Anchor-0" 250 420 basechar 0
LayerCount: 2
Fore
SplineSet
130 36 m 0,0,1
 153 36 153 36 212 114 c 1,2,-1
 225 103 l 1,3,4
 182 40 182 40 151 14.5 c 128,-1,5
 120 -11 120 -11 85 -11 c 0,6,7
 39 -11 39 -11 39 46 c 0,8,9
 39 75 39 75 61 155 c 2,10,-1
 109 332 l 2,11,12
 118 362 118 362 118 376 c 0,13,14
 118 391 118 391 106.5 395 c 128,-1,15
 95 399 95 399 55 400 c 1,16,-1
 55 416 l 1,17,18
 101 420 101 420 215 441 c 1,19,-1
 218 439 l 1,20,-1
 124 95 l 2,21,22
 114 59 114 59 114 51 c 0,23,24
 114 46 114 46 119 41 c 128,-1,25
 124 36 124 36 130 36 c 0,0,1
204 654 m 128,-1,27
 224 654 224 654 239 637.5 c 128,-1,28
 254 621 254 621 254 599 c 0,29,30
 254 578 254 578 239.5 563 c 128,-1,31
 225 548 225 548 205 548 c 0,32,33
 183 548 183 548 170 562.5 c 128,-1,34
 157 577 157 577 157 601 c 0,35,36
 157 624 157 624 170.5 639 c 128,-1,26
 184 654 184 654 204 654 c 128,-1,27
EndSplineSet
EndChar

StartChar: j
Encoding: 106 106 74
Width: 285
GlyphClass: 2
Flags: W
AnchorPoint: "Anchor-4" 268 648 basechar 0
AnchorPoint: "Anchor-2" 70 -200 basechar 0
AnchorPoint: "Anchor-1" 197 233 basechar 0
AnchorPoint: "Anchor-0" 320 442 basechar 0
LayerCount: 2
Fore
SplineSet
159 400 m 2,0,-1
 123 400 l 1,1,-1
 123 416 l 1,2,3
 161 417 161 417 293 441 c 1,4,-1
 296 439 l 1,5,-1
 192 28 l 2,6,7
 133 -207 133 -207 5 -207 c 0,8,9
 -29 -207 -29 -207 -51.5 -189.5 c 128,-1,10
 -74 -172 -74 -172 -74 -146 c 0,11,12
 -74 -128 -74 -128 -62.5 -116 c 128,-1,13
 -51 -104 -51 -104 -34 -104 c 128,-1,14
 -17 -104 -17 -104 -5 -114.5 c 128,-1,15
 7 -125 7 -125 7 -141 c 0,16,17
 7 -152 7 -152 0.5 -160 c 128,-1,18
 -6 -168 -6 -168 -6 -173 c 0,19,20
 -6 -184 -6 -184 12 -184 c 0,21,22
 42 -184 42 -184 62.5 -145 c 128,-1,23
 83 -106 83 -106 109 -3 c 2,24,-1
 181 289 l 2,25,26
 197 352 197 352 197 369 c 0,27,28
 197 400 197 400 159 400 c 2,0,-1
276 654 m 128,-1,30
 296 654 296 654 311 637.5 c 128,-1,31
 326 621 326 621 326 599 c 0,32,33
 326 578 326 578 311.5 563 c 128,-1,34
 297 548 297 548 277 548 c 0,35,36
 255 548 255 548 242 562.5 c 128,-1,37
 229 577 229 577 229 601 c 0,38,39
 229 624 229 624 242.5 639 c 128,-1,29
 256 654 256 654 276 654 c 128,-1,30
EndSplineSet
EndChar

StartChar: k
Encoding: 107 107 75
Width: 453
GlyphClass: 2
Flags: W
AnchorPoint: "Anchor-4" 339 656 basechar 0
AnchorPoint: "Anchor-2" 181 0 basechar 0
AnchorPoint: "Anchor-1" 191 233 basechar 0
AnchorPoint: "Anchor-0" 340 442 basechar 0
LayerCount: 2
Fore
SplineSet
240 258 m 1,0,1
 252 230 252 230 272 185 c 0,2,3
 313 90 313 90 327 65.5 c 128,-1,4
 341 41 341 41 358 41 c 0,5,6
 379 41 379 41 418 109 c 1,7,-1
 433 98 l 1,8,9
 399 35 399 35 375.5 12 c 128,-1,10
 352 -11 352 -11 322 -11 c 0,11,12
 306 -11 306 -11 291 0.5 c 128,-1,13
 276 12 276 12 247 64.5 c 128,-1,14
 218 117 218 117 183 212 c 1,15,-1
 141 180 l 1,16,-1
 93 0 l 1,17,-1
 18 0 l 1,18,-1
 145 483 l 2,19,20
 147 493 147 493 161.5 545.5 c 128,-1,21
 176 598 176 598 178 615 c 1,22,23
 177 640 177 640 110 640 c 1,24,-1
 110 656 l 1,25,26
 182 665 182 665 266 683 c 1,27,-1
 271 678 l 1,28,-1
 151 221 l 1,29,30
 200 255 200 255 268.5 314 c 128,-1,31
 337 373 337 373 337 394 c 0,32,33
 337 412 337 412 298 412 c 2,34,-1
 282 412 l 1,35,-1
 282 428 l 1,36,-1
 465 428 l 1,37,-1
 465 412 l 1,38,39
 429 410 429 410 389 382.5 c 128,-1,40
 349 355 349 355 240 258 c 1,0,1
EndSplineSet
EndChar

StartChar: l
Encoding: 108 108 76
Width: 251
GlyphClass: 2
Flags: W
AnchorPoint: "Anchor-4" 238 666 basechar 0
AnchorPoint: "Anchor-2" 80 0 basechar 0
AnchorPoint: "Anchor-1" 140 308 basechar 0
AnchorPoint: "Anchor-0" 262 442 basechar 0
LayerCount: 2
Fore
SplineSet
124 32 m 0,0,1
 140 32 140 32 154.5 46 c 128,-1,2
 169 60 169 60 220 123 c 1,3,-1
 233 114 l 1,4,5
 184 42 184 42 152 15.5 c 128,-1,6
 120 -11 120 -11 81 -11 c 0,7,8
 32 -11 32 -11 32 45 c 0,9,10
 32 53 32 53 37 71 c 2,11,-1
 174 599 l 2,12,13
 178 611 178 611 178 617 c 0,14,15
 178 640 178 640 110 640 c 1,16,-1
 110 656 l 1,17,18
 182 665 182 665 266 683 c 1,19,-1
 271 678 l 1,20,-1
 120 99 l 2,21,22
 119 97 119 97 114 77 c 128,-1,23
 109 57 109 57 109 50 c 0,24,25
 109 32 109 32 124 32 c 0,0,1
EndSplineSet
EndChar

StartChar: m
Encoding: 109 109 77
Width: 725
GlyphClass: 2
Flags: W
AnchorPoint: "Anchor-4" 407 443 basechar 0
AnchorPoint: "Anchor-2" 291 0 basechar 0
AnchorPoint: "Anchor-1" 357 233 basechar 0
AnchorPoint: "Anchor-0" 600 442 basechar 0
LayerCount: 2
Fore
SplineSet
604 38 m 128,-1,1
 617 38 617 38 632 52.5 c 128,-1,2
 647 67 647 67 689 117 c 1,3,-1
 704 105 l 1,4,5
 665 51 665 51 630.5 21 c 128,-1,6
 596 -9 596 -9 555 -9 c 0,7,8
 515 -9 515 -9 515 37 c 0,9,10
 515 50 515 50 528 103 c 2,11,-1
 586 333 l 2,12,13
 593 358 593 358 593 368 c 0,14,15
 593 376 593 376 587 382.5 c 128,-1,16
 581 389 581 389 573 389 c 0,17,18
 551 389 551 389 516.5 358.5 c 128,-1,19
 482 328 482 328 445 277 c 0,20,21
 407 224 407 224 385.5 170.5 c 128,-1,22
 364 117 364 117 334 0 c 1,23,-1
 259 0 l 1,24,25
 354 353 354 353 354 364 c 0,26,27
 354 389 354 389 334 389 c 0,28,29
 308 389 308 389 267 350.5 c 128,-1,30
 226 312 226 312 184 248 c 0,31,32
 158 209 158 209 140.5 163.5 c 128,-1,33
 123 118 123 118 87 0 c 1,34,-1
 12 0 l 1,35,36
 23 43 23 43 51 143 c 0,37,38
 110 351 110 351 110 372 c 0,39,40
 110 394 110 394 71 394 c 2,41,-1
 46 394 l 1,42,-1
 46 410 l 1,43,44
 144 428 144 428 206 441 c 1,45,-1
 209 439 l 1,46,-1
 151 230 l 1,47,48
 285 441 285 441 374 441 c 0,49,50
 399 441 399 441 415 424 c 128,-1,51
 431 407 431 407 431 381 c 0,52,53
 431 351 431 351 391 229 c 1,54,55
 469 352 469 352 524 399 c 0,56,57
 572 441 572 441 613 441 c 0,58,59
 638 441 638 441 655 423 c 128,-1,60
 672 405 672 405 672 378 c 0,61,62
 672 362 672 362 669 350 c 2,63,-1
 601 99 l 2,64,65
 591 59 591 59 591 54 c 0,66,0
 591 38 591 38 604 38 c 128,-1,1
EndSplineSet
EndChar

StartChar: n
Encoding: 110 110 78
Width: 493
GlyphClass: 2
Flags: W
AnchorPoint: "Anchor-4" 314 443 basechar 0
AnchorPoint: "Anchor-2" 185 0 basechar 0
AnchorPoint: "Anchor-1" 242 233 basechar 0
AnchorPoint: "Anchor-0" 368 442 basechar 0
LayerCount: 2
Fore
SplineSet
458 117 m 1,0,-1
 472 104 l 1,1,2
 420 35 420 35 393 13 c 128,-1,3
 366 -9 366 -9 332 -9 c 0,4,5
 307 -9 307 -9 296 4 c 128,-1,6
 285 17 285 17 285 45 c 0,7,8
 285 60 285 60 301 120 c 2,9,-1
 345 285 l 2,10,11
 359 339 359 339 359 361 c 0,12,13
 359 390 359 390 335 390 c 0,14,15
 280 390 280 390 187 248 c 0,16,17
 154 197 154 197 138 157.5 c 128,-1,18
 122 118 122 118 87 0 c 1,19,-1
 12 0 l 1,20,-1
 108 350 l 2,21,22
 110 360 110 360 110 367 c 0,23,24
 110 382 110 382 97 387.5 c 128,-1,25
 84 393 84 393 46 394 c 1,26,-1
 46 410 l 1,27,28
 147 429 147 429 208 441 c 1,29,-1
 211 439 l 1,30,-1
 144 221 l 1,31,32
 221 341 221 341 273.5 391 c 128,-1,33
 326 441 326 441 374 441 c 0,34,35
 403 441 403 441 421.5 424 c 128,-1,36
 440 407 440 407 440 380 c 0,37,38
 440 354 440 354 431 323 c 2,39,-1
 374 117 l 1,40,41
 360 61 360 61 360 54 c 0,42,43
 360 48 360 48 365 43 c 128,-1,44
 370 38 370 38 376 38 c 0,45,46
 394 38 394 38 458 117 c 1,0,-1
EndSplineSet
EndChar

StartChar: o
Encoding: 111 111 79
Width: 473
GlyphClass: 2
Flags: W
AnchorPoint: "Anchor-4" 330 443 basechar 0
AnchorPoint: "Anchor-3" 190 0 basechar 0
AnchorPoint: "Anchor-2" 177 0 basechar 0
AnchorPoint: "Anchor-1" 242 233 basechar 0
AnchorPoint: "Anchor-0" 370 442 basechar 0
LayerCount: 2
Fore
SplineSet
466 301 m 0,0,1
 466 235 466 235 427.5 163.5 c 128,-1,2
 389 92 389 92 319 40.5 c 128,-1,3
 249 -11 249 -11 172 -11 c 0,4,5
 104 -11 104 -11 64.5 26.5 c 128,-1,6
 25 64 25 64 25 129 c 0,7,8
 25 247 25 247 118 344 c 128,-1,9
 211 441 211 441 323 441 c 0,10,11
 387 441 387 441 426.5 402 c 128,-1,12
 466 363 466 363 466 301 c 0,0,1
187 10 m 0,13,14
 240 10 240 10 286.5 65 c 128,-1,15
 333 120 333 120 357.5 192.5 c 128,-1,16
 382 265 382 265 382 326 c 0,17,18
 382 369 382 369 362.5 394.5 c 128,-1,19
 343 420 343 420 311 420 c 0,20,21
 261 420 261 420 213 367 c 128,-1,22
 165 314 165 314 137 240 c 128,-1,23
 109 166 109 166 109 101 c 0,24,25
 109 60 109 60 130.5 35 c 128,-1,26
 152 10 152 10 187 10 c 0,13,14
EndSplineSet
EndChar

StartChar: p
Encoding: 112 112 80
Width: 469
GlyphClass: 2
Flags: W
AnchorPoint: "Anchor-4" 312 443 basechar 0
AnchorPoint: "Anchor-2" 148 -200 basechar 0
AnchorPoint: "Anchor-1" 242 233 basechar 0
AnchorPoint: "Anchor-0" 370 442 basechar 0
LayerCount: 2
Fore
SplineSet
87 404 m 2,0,-1
 54 404 l 1,1,-1
 52 419 l 1,2,3
 206 441 206 441 208 441 c 0,4,5
 213 441 213 441 213 437 c 1,6,-1
 181 328 l 1,7,8
 225 389 225 389 264 415 c 128,-1,9
 303 441 303 441 352 441 c 0,10,11
 405 441 405 441 436 407.5 c 128,-1,12
 467 374 467 374 467 316 c 0,13,14
 467 197 467 197 371.5 93 c 128,-1,15
 276 -11 276 -11 167 -11 c 0,16,17
 134 -11 134 -11 101 6 c 1,18,19
 64 -131 64 -131 64 -160 c 0,20,21
 64 -190 64 -190 128 -190 c 1,22,-1
 128 -205 l 1,23,-1
 -77 -205 l 1,24,-1
 -77 -189 l 1,25,26
 -64 -189 -64 -189 -56 -187.5 c 128,-1,27
 -48 -186 -48 -186 -40 -181.5 c 128,-1,28
 -32 -177 -32 -177 -28 -171.5 c 128,-1,29
 -24 -166 -24 -166 -18 -153.5 c 128,-1,30
 -12 -141 -12 -141 -8.5 -128.5 c 128,-1,31
 -5 -116 -5 -116 1 -92 c 128,-1,32
 7 -68 7 -68 12.5 -44.5 c 128,-1,33
 18 -21 18 -21 28 17.5 c 128,-1,34
 38 56 38 56 48 94 c 0,35,36
 119 362 119 362 119 377 c 0,37,38
 119 386 119 386 108 395 c 128,-1,39
 97 404 97 404 87 404 c 2,0,-1
377 312 m 0,40,41
 377 398 377 398 311 398 c 0,42,43
 274 398 274 398 236.5 365.5 c 128,-1,44
 199 333 199 333 180 284 c 0,45,46
 158 228 158 228 136.5 149 c 128,-1,47
 115 70 115 70 115 45 c 0,48,49
 115 29 115 29 128.5 18.5 c 128,-1,50
 142 8 142 8 163 8 c 0,51,52
 223 8 223 8 274.5 62 c 128,-1,53
 326 116 326 116 351.5 185 c 128,-1,54
 377 254 377 254 377 312 c 0,40,41
EndSplineSet
EndChar

StartChar: q
Encoding: 113 113 81
Width: 483
GlyphClass: 2
Flags: W
AnchorPoint: "Anchor-4" 321 443 basechar 0
AnchorPoint: "Anchor-2" 124 -200 basechar 0
AnchorPoint: "Anchor-1" 238 233 basechar 0
AnchorPoint: "Anchor-0" 390 442 basechar 0
LayerCount: 2
Fore
SplineSet
385 -191 m 1,0,-1
 385 -209 l 1,1,-1
 144 -209 l 1,2,-1
 144 -193 l 1,3,4
 193 -189 193 -189 211 -179.5 c 128,-1,5
 229 -170 229 -170 238 -140 c 2,6,-1
 327 153 l 1,7,8
 260 58 260 58 217 23.5 c 128,-1,9
 174 -11 174 -11 121 -11 c 0,10,11
 74 -11 74 -11 46.5 20.5 c 128,-1,12
 19 52 19 52 19 105 c 0,13,14
 19 179 19 179 64.5 258 c 128,-1,15
 110 337 110 337 179 389 c 128,-1,16
 248 441 248 441 312 441 c 0,17,18
 343 441 343 441 360 427 c 128,-1,19
 377 413 377 413 389 379 c 1,20,-1
 404 426 l 1,21,-1
 477 426 l 1,22,-1
 313 -151 l 2,23,24
 311 -159 311 -159 311 -163 c 0,25,26
 311 -191 311 -191 368 -191 c 2,27,-1
 385 -191 l 1,0,-1
161 42 m 0,28,29
 206 42 206 42 257 96 c 128,-1,30
 308 150 308 150 341 224.5 c 128,-1,31
 374 299 374 299 374 358 c 0,32,33
 374 384 374 384 357 401.5 c 128,-1,34
 340 419 340 419 315 419 c 0,35,36
 271 419 271 419 221 368 c 128,-1,37
 171 317 171 317 138 246.5 c 128,-1,38
 105 176 105 176 105 119 c 0,39,40
 105 84 105 84 120 63 c 128,-1,41
 135 42 135 42 161 42 c 0,28,29
EndSplineSet
EndChar

StartChar: r
Encoding: 114 114 82
Width: 366
GlyphClass: 2
Flags: W
AnchorPoint: "Anchor-4" 220 443 basechar 0
AnchorPoint: "Anchor-2" 121 0 basechar 0
AnchorPoint: "Anchor-1" 134 233 basechar 0
AnchorPoint: "Anchor-0" 290 442 basechar 0
LayerCount: 2
Fore
SplineSet
340 340 m 0,0,1
 321 340 321 340 313 349 c 128,-1,2
 305 358 305 358 301 367 c 128,-1,3
 297 376 297 376 288 376 c 0,4,5
 261 376 261 376 210 289 c 0,6,7
 176 232 176 232 155 180 c 128,-1,8
 134 128 134 128 95 0 c 1,9,-1
 19 0 l 1,10,-1
 100 292 l 2,11,12
 116 350 116 350 116 374 c 0,13,14
 116 402 116 402 81 402 c 0,15,16
 71 402 71 402 47 397 c 1,17,-1
 47 414 l 1,18,19
 91 421 91 421 202 441 c 1,20,-1
 205 439 l 1,21,-1
 152 222 l 1,22,23
 162 248 162 248 178.5 280 c 128,-1,24
 195 312 195 312 220 351 c 128,-1,25
 245 390 245 390 277 415.5 c 128,-1,26
 309 441 309 441 339 441 c 0,27,28
 360 441 360 441 373 426.5 c 128,-1,29
 386 412 386 412 386 389 c 0,30,31
 386 340 386 340 340 340 c 0,0,1
EndSplineSet
EndChar

StartChar: s
Encoding: 115 115 83
Width: 345
GlyphClass: 2
Flags: W
AnchorPoint: "Anchor-4" 233 443 basechar 0
AnchorPoint: "Anchor-2" 140 0 basechar 0
AnchorPoint: "Anchor-1" 187 233 basechar 0
AnchorPoint: "Anchor-0" 260 442 basechar 0
LayerCount: 2
Fore
SplineSet
144 -11 m 0,0,1
 124 -11 124 -11 90 -1.5 c 128,-1,2
 56 8 56 8 40 8 c 0,3,4
 26 8 26 8 16 -13 c 1,5,-1
 0 -13 l 1,6,-1
 20 146 l 1,7,-1
 36 146 l 1,8,9
 48 75 48 75 72.5 42.5 c 128,-1,10
 97 10 97 10 138 10 c 0,11,12
 171 10 171 10 191.5 31.5 c 128,-1,13
 212 53 212 53 212 87 c 0,14,15
 212 116 212 116 193.5 149 c 128,-1,16
 175 182 175 182 152.5 206.5 c 128,-1,17
 130 231 130 231 111.5 265 c 128,-1,18
 93 299 93 299 93 331 c 0,19,20
 93 381 93 381 126 411 c 128,-1,21
 159 441 159 441 214 441 c 0,22,23
 234 441 234 441 265.5 432.5 c 128,-1,24
 297 424 297 424 306 424 c 0,25,26
 326 424 326 424 336 442 c 1,27,-1
 350 442 l 1,28,-1
 330 303 l 1,29,-1
 314 303 l 1,30,31
 299 418 299 418 222 418 c 0,32,33
 196 418 196 418 181 403.5 c 128,-1,34
 166 389 166 389 166 364 c 0,35,36
 166 340 166 340 185 308 c 128,-1,37
 204 276 204 276 227 249.5 c 128,-1,38
 250 223 250 223 269 187 c 128,-1,39
 288 151 288 151 288 119 c 0,40,41
 288 62 288 62 247.5 25.5 c 128,-1,42
 207 -11 207 -11 144 -11 c 0,0,1
EndSplineSet
Substitution2: "'hist' Historical Forms in Latin lookup 13 subtable" longs
EndChar

StartChar: t
Encoding: 116 116 84
Width: 238
GlyphClass: 2
Flags: W
AnchorPoint: "Anchor-4" 235 552 basechar 0
AnchorPoint: "Anchor-2" 78 0 basechar 0
AnchorPoint: "Anchor-1" 121 233 basechar 0
AnchorPoint: "Anchor-0" 279 442 basechar 0
LayerCount: 2
Fore
SplineSet
285 428 m 1,0,-1
 280 396 l 1,1,-1
 196 396 l 1,2,-1
 108 63 l 2,3,4
 107 60 107 60 107 58 c 0,5,6
 107 38 107 38 122 38 c 0,7,8
 134 38 134 38 150 53.5 c 128,-1,9
 166 69 166 69 203 117 c 1,10,-1
 216 110 l 1,11,12
 169 40 169 40 139 14.5 c 128,-1,13
 109 -11 109 -11 74 -11 c 0,14,15
 54 -11 54 -11 40 0 c 128,-1,16
 26 11 26 11 26 27 c 0,17,18
 26 35 26 35 31 55 c 128,-1,19
 36 75 36 75 42 96.5 c 128,-1,20
 48 118 48 118 49 121 c 2,21,-1
 121 396 l 1,22,-1
 47 396 l 1,23,24
 46 399 46 399 46 402 c 0,25,26
 46 412 46 412 59 419.5 c 128,-1,27
 72 427 72 427 92 434.5 c 128,-1,28
 112 442 112 442 145.5 468.5 c 128,-1,29
 179 495 179 495 211 537 c 0,30,31
 218 546 218 546 226 546 c 128,-1,32
 234 546 234 546 234 536 c 0,33,34
 234 533 234 533 233 531 c 2,35,-1
 205 428 l 1,36,-1
 285 428 l 1,0,-1
EndSplineSet
EndChar

StartChar: u
Encoding: 117 117 85
Width: 484
GlyphClass: 2
Flags: W
AnchorPoint: "Anchor-4" 291 443 basechar 0
AnchorPoint: "Anchor-3" 331 0 basechar 0
AnchorPoint: "Anchor-2" 181 0 basechar 0
AnchorPoint: "Anchor-1" 233 233 basechar 0
AnchorPoint: "Anchor-0" 380 442 basechar 0
LayerCount: 2
Fore
SplineSet
107 376 m 128,-1,1
 107 390 107 390 93.5 395 c 128,-1,2
 80 400 80 400 47 400 c 1,3,-1
 47 414 l 1,4,5
 115 422 115 422 197 441 c 1,6,-1
 200 439 l 1,7,-1
 109 76 l 2,8,9
 108 73 108 73 108 67 c 0,10,11
 108 42 108 42 129 42 c 0,12,13
 178 42 178 42 270 188 c 0,14,15
 304 242 304 242 320.5 278.5 c 128,-1,16
 337 315 337 315 380 432 c 1,17,-1
 454 432 l 1,18,-1
 375 133 l 2,19,20
 356 61 356 61 356 55 c 0,21,22
 356 38 356 38 367 38 c 0,23,24
 379 38 379 38 395 53 c 128,-1,25
 411 68 411 68 450 117 c 1,26,-1
 464 108 l 1,27,28
 413 35 413 35 387 13 c 128,-1,29
 361 -9 361 -9 326 -9 c 0,30,31
 304 -9 304 -9 291 3.5 c 128,-1,32
 278 16 278 16 278 39 c 0,33,34
 278 70 278 70 323 236 c 1,35,36
 237 92 237 92 187 40.5 c 128,-1,37
 137 -11 137 -11 84 -11 c 128,-1,38
 31 -11 31 -11 31 44 c 0,39,40
 31 68 31 68 56 167 c 2,41,-1
 93 309 l 2,42,0
 107 362 107 362 107 376 c 128,-1,1
EndSplineSet
EndChar

StartChar: v
Encoding: 118 118 86
Width: 456
GlyphClass: 2
Flags: W
AnchorPoint: "Anchor-4" 302 443 basechar 0
AnchorPoint: "Anchor-2" 208 0 basechar 0
AnchorPoint: "Anchor-1" 274 233 basechar 0
AnchorPoint: "Anchor-0" 360 442 basechar 0
LayerCount: 2
Fore
SplineSet
405 333 m 0,0,1
 405 346 405 346 384 366 c 128,-1,2
 363 386 363 386 363 407 c 0,3,4
 363 423 363 423 373 432 c 128,-1,5
 383 441 383 441 400 441 c 0,6,7
 423 441 423 441 439.5 423.5 c 128,-1,8
 456 406 456 406 456 382 c 0,9,10
 456 354 456 354 438.5 310.5 c 128,-1,11
 421 267 421 267 395 230 c 0,12,13
 318 122 318 122 256 52 c 128,-1,14
 194 -18 194 -18 175 -18 c 0,15,16
 166 -18 166 -18 166 17 c 0,17,18
 166 60 166 60 159 151.5 c 128,-1,19
 152 243 152 243 144 295 c 0,20,21
 134 364 134 364 122 384 c 128,-1,22
 110 404 110 404 81 404 c 0,23,24
 62 404 62 404 51 403 c 1,25,-1
 51 416 l 1,26,27
 86 422 86 422 112 427 c 128,-1,28
 138 432 138 432 148 435 c 128,-1,29
 158 438 158 438 166 439.5 c 128,-1,30
 174 441 174 441 182 441 c 0,31,32
 198 441 198 441 214.5 323 c 128,-1,33
 231 205 231 205 237 70 c 1,34,-1
 268 102 l 2,35,36
 321 158 321 158 363 228.5 c 128,-1,37
 405 299 405 299 405 333 c 0,0,1
EndSplineSet
EndChar

StartChar: w
Encoding: 119 119 87
Width: 683
GlyphClass: 2
Flags: W
AnchorPoint: "Anchor-4" 425 443 basechar 0
AnchorPoint: "Anchor-2" 299 0 basechar 0
AnchorPoint: "Anchor-1" 353 233 basechar 0
AnchorPoint: "Anchor-0" 560 442 basechar 0
LayerCount: 2
Fore
SplineSet
86 405 m 0,0,1
 81 405 81 405 77.5 404.5 c 128,-1,2
 74 404 74 404 71 404 c 2,3,-1
 51 404 l 1,4,-1
 51 417 l 1,5,6
 75 421 75 421 77 421 c 0,7,8
 104 425 104 425 123 429 c 128,-1,9
 142 433 142 433 149.5 435.5 c 128,-1,10
 157 438 157 438 163 439.5 c 128,-1,11
 169 441 169 441 175 441 c 0,12,13
 193 441 193 441 207.5 321 c 128,-1,14
 222 201 222 201 225 126 c 1,15,-1
 417 430 l 2,16,17
 423 440 423 440 430 440 c 128,-1,18
 437 440 437 440 438 426 c 2,19,-1
 470 74 l 1,20,21
 568 196 568 196 601.5 249 c 128,-1,22
 635 302 635 302 635 334 c 0,23,24
 635 349 635 349 613.5 370 c 128,-1,25
 592 391 592 391 592 407 c 0,26,27
 592 441 592 441 631 441 c 0,28,29
 654 441 654 441 668.5 426.5 c 128,-1,30
 683 412 683 412 683 389 c 0,31,32
 683 341 683 341 621 240 c 128,-1,33
 559 139 559 139 494.5 60.5 c 128,-1,34
 430 -18 430 -18 417 -18 c 0,35,36
 412 -18 412 -18 409.5 -13 c 128,-1,37
 407 -8 407 -8 406 12 c 2,38,-1
 377 331 l 1,39,-1
 288 175 l 2,40,41
 271 145 271 145 252.5 110 c 128,-1,42
 234 75 234 75 223 55 c 128,-1,43
 212 35 212 35 201.5 16.5 c 128,-1,44
 191 -2 191 -2 183 -10 c 128,-1,45
 175 -18 175 -18 169 -18 c 0,46,47
 162 -18 162 -18 160 -9 c 128,-1,48
 158 0 158 0 156 29 c 2,49,-1
 152 117 l 1,50,51
 147 256 147 256 125 359 c 0,52,53
 120 385 120 385 112 395 c 128,-1,54
 104 405 104 405 86 405 c 0,0,1
EndSplineSet
EndChar

StartChar: x
Encoding: 120 120 88
Width: 435
GlyphClass: 2
Flags: W
AnchorPoint: "Anchor-4" 284 443 basechar 0
AnchorPoint: "Anchor-2" 186 0 basechar 0
AnchorPoint: "Anchor-1" 239 233 basechar 0
AnchorPoint: "Anchor-0" 350 442 basechar 0
LayerCount: 2
Fore
SplineSet
331 44 m 0,0,1
 336 44 336 44 340 45.5 c 128,-1,2
 344 47 344 47 349 52 c 128,-1,3
 354 57 354 57 359 63 c 128,-1,4
 364 69 364 69 375.5 83 c 128,-1,5
 387 97 387 97 399 111 c 1,6,-1
 413 103 l 1,7,8
 370 36 370 36 345 12.5 c 128,-1,9
 320 -11 320 -11 291 -11 c 0,10,11
 267 -11 267 -11 255 3 c 128,-1,12
 243 17 243 17 233 56 c 2,13,-1
 203 176 l 1,14,15
 114 53 114 53 81.5 21 c 128,-1,16
 49 -11 49 -11 20 -11 c 0,17,18
 -3 -11 -3 -11 -16.5 0.5 c 128,-1,19
 -30 12 -30 12 -30 31 c 0,20,21
 -30 46 -30 46 -20 56 c 128,-1,22
 -10 66 -10 66 4 66 c 0,23,24
 16 66 16 66 35 56.5 c 128,-1,25
 54 47 54 47 62 47 c 0,26,27
 79 47 79 47 113 95 c 2,28,-1
 195 212 l 1,29,-1
 166 335 l 2,30,31
 156 380 156 380 148 392 c 128,-1,32
 140 404 140 404 121 404 c 0,33,34
 111 404 111 404 65 393 c 1,35,-1
 61 408 l 1,36,-1
 72 412 l 1,37,38
 160 441 160 441 189 441 c 0,39,40
 209 441 209 441 219.5 422.5 c 128,-1,41
 230 404 230 404 241 353 c 2,42,-1
 252 298 l 1,43,44
 304 378 304 378 337 409.5 c 128,-1,45
 370 441 370 441 403 441 c 0,46,47
 421 441 421 441 432.5 430.5 c 128,-1,48
 444 420 444 420 444 404 c 128,-1,49
 444 388 444 388 434.5 378 c 128,-1,50
 425 368 425 368 409 368 c 0,51,52
 399 368 399 368 383 376.5 c 128,-1,53
 367 385 367 385 358 385 c 0,54,55
 329 385 329 385 260 264 c 1,56,57
 260 241 260 241 300 85 c 0,58,59
 310 44 310 44 331 44 c 0,0,1
EndSplineSet
EndChar

StartChar: y
Encoding: 121 121 89
Width: 462
GlyphClass: 2
Flags: W
AnchorPoint: "Anchor-4" 343 443 basechar 0
AnchorPoint: "Anchor-3" 358 0 basechar 0
AnchorPoint: "Anchor-2" 352 0 basechar 0
AnchorPoint: "Anchor-1" 280 233 basechar 0
AnchorPoint: "Anchor-0" 376 442 basechar 0
LayerCount: 2
Fore
SplineSet
51 417 m 1,0,1
 167 439 167 439 194 441 c 0,2,3
 205 441 205 441 237 347.5 c 128,-1,4
 269 254 269 254 280 188 c 2,5,-1
 300 72 l 1,6,7
 422 274 422 274 422 331 c 0,8,9
 422 349 422 349 395 366 c 128,-1,10
 368 383 368 383 368 404 c 0,11,12
 368 420 368 420 379 430.5 c 128,-1,13
 390 441 390 441 407 441 c 0,14,15
 430 441 430 441 446 424.5 c 128,-1,16
 462 408 462 408 462 386 c 0,17,18
 462 323 462 323 388 179.5 c 128,-1,19
 314 36 314 36 216.5 -85 c 128,-1,20
 119 -206 119 -206 63 -206 c 0,21,22
 41 -206 41 -206 26.5 -193.5 c 128,-1,23
 12 -181 12 -181 12 -162 c 0,24,25
 12 -146 12 -146 23 -134.5 c 128,-1,26
 34 -123 34 -123 51 -123 c 0,27,28
 64 -123 64 -123 85 -137 c 128,-1,29
 106 -151 106 -151 112 -151 c 0,30,31
 136 -151 136 -151 188.5 -86 c 128,-1,32
 241 -21 241 -21 241 8 c 0,33,34
 241 21 241 21 227 90 c 128,-1,35
 213 159 213 159 200 207 c 0,36,37
 166 336 166 336 145.5 370 c 128,-1,38
 125 404 125 404 82 404 c 0,39,40
 68 404 68 404 51 400 c 1,41,-1
 51 417 l 1,0,1
EndSplineSet
EndChar

StartChar: z
Encoding: 122 122 90
Width: 389
GlyphClass: 2
Flags: W
AnchorPoint: "Anchor-4" 246 443 basechar 0
AnchorPoint: "Anchor-2" 177 0 basechar 0
AnchorPoint: "Anchor-1" 217 233 basechar 0
AnchorPoint: "Anchor-0" 300 442 basechar 0
LayerCount: 2
Fore
SplineSet
269 -81 m 0,0,1
 230 -81 230 -81 158.5 -38 c 128,-1,2
 87 5 87 5 53 5 c 0,3,4
 29 5 29 5 7 -13 c 1,5,-1
 -2 -4 l 1,6,-1
 308 368 l 1,7,-1
 162 368 l 2,8,9
 127 368 127 368 112 357 c 128,-1,10
 97 346 97 346 81 309 c 1,11,-1
 65 313 l 1,12,-1
 96 428 l 1,13,-1
 380 428 l 1,14,-1
 380 417 l 1,15,-1
 90 73 l 1,16,17
 135 63 135 63 165.5 40 c 128,-1,18
 196 17 196 17 208 -4.5 c 128,-1,19
 220 -26 220 -26 238.5 -43 c 128,-1,20
 257 -60 257 -60 281 -60 c 0,21,22
 308 -60 308 -60 308 -45 c 0,23,24
 308 -41 308 -41 301 -26 c 128,-1,25
 294 -11 294 -11 294 0 c 0,26,27
 294 14 294 14 303.5 22.5 c 128,-1,28
 313 31 313 31 328 31 c 0,29,30
 344 31 344 31 353.5 21 c 128,-1,31
 363 11 363 11 363 -5 c 0,32,33
 363 -35 363 -35 334.5 -58 c 128,-1,34
 306 -81 306 -81 269 -81 c 0,0,1
EndSplineSet
EndChar

StartChar: braceleft
Encoding: 123 123 91
Width: 400
GlyphClass: 2
Flags: W
LayerCount: 2
Fore
SplineSet
51 -99 m 0,0,1
 51 -69 51 -69 84 49 c 128,-1,2
 117 167 117 167 117 198 c 0,3,4
 117 220 117 220 105.5 232 c 128,-1,5
 94 244 94 244 65 255 c 1,6,7
 113 268 113 268 134 291 c 128,-1,8
 155 314 155 314 170 369 c 2,9,-1
 218 547 l 1,10,11
 241 627 241 627 281.5 657 c 128,-1,12
 322 687 322 687 407 687 c 1,13,-1
 404 676 l 1,14,15
 357 664 357 664 334 637.5 c 128,-1,16
 311 611 311 611 295 552 c 2,17,-1
 250 384 l 2,18,19
 234 322 234 322 210 295 c 128,-1,20
 186 268 186 268 137 255 c 1,21,22
 192 231 192 231 192 192 c 0,23,24
 192 168 192 168 159 44.5 c 128,-1,25
 126 -79 126 -79 126 -100 c 0,26,27
 126 -128 126 -128 138 -143 c 128,-1,28
 150 -158 150 -158 179 -166 c 1,29,-1
 176 -177 l 1,30,31
 107 -175 107 -175 79 -157.5 c 128,-1,32
 51 -140 51 -140 51 -99 c 0,0,1
EndSplineSet
EndChar

StartChar: bar
Encoding: 124 124 92
Width: 275
GlyphClass: 2
Flags: W
LayerCount: 2
Fore
SplineSet
105 -18 m 1,0,-1
 105 666 l 1,1,-1
 171 666 l 1,2,-1
 171 -18 l 1,3,-1
 105 -18 l 1,0,-1
EndSplineSet
EndChar

StartChar: braceright
Encoding: 125 125 93
Width: 400
GlyphClass: 2
Flags: W
LayerCount: 2
Fore
SplineSet
208 318 m 0,0,1
 208 343 208 343 241 467 c 128,-1,2
 274 591 274 591 274 609 c 0,3,4
 274 661 274 661 221 676 c 1,5,-1
 224 687 l 1,6,7
 292 685 292 685 320.5 667 c 128,-1,8
 349 649 349 649 349 609 c 0,9,10
 349 580 349 580 316 462.5 c 128,-1,11
 283 345 283 345 283 312 c 0,12,13
 283 290 283 290 294.5 278 c 128,-1,14
 306 266 306 266 335 255 c 1,15,16
 287 242 287 242 266 219 c 128,-1,17
 245 196 245 196 230 141 c 2,18,-1
 182 -37 l 1,19,20
 159 -116 159 -116 118 -146.5 c 128,-1,21
 77 -177 77 -177 -7 -177 c 1,22,-1
 -4 -166 l 1,23,24
 43 -154 43 -154 66 -127.5 c 128,-1,25
 89 -101 89 -101 105 -42 c 2,26,-1
 150 126 l 2,27,28
 167 188 167 188 190.5 215 c 128,-1,29
 214 242 214 242 263 255 c 1,30,31
 208 279 208 279 208 318 c 0,0,1
EndSplineSet
EndChar

StartChar: asciitilde
Encoding: 126 126 94
Width: 541
GlyphClass: 2
Flags: W
LayerCount: 2
Fore
SplineSet
163 320 m 0,0,1
 216 320 216 320 277 286 c 128,-1,2
 338 252 338 252 374 252 c 0,3,4
 397 252 397 252 412.5 263 c 128,-1,5
 428 274 428 274 448 303 c 1,6,-1
 502 271 l 1,7,8
 468 223 468 223 441 204.5 c 128,-1,9
 414 186 414 186 379 186 c 0,10,11
 326 186 326 186 265 220 c 128,-1,12
 204 254 204 254 168 254 c 0,13,14
 145 254 145 254 129.5 243 c 128,-1,15
 114 232 114 232 94 203 c 1,16,-1
 40 235 l 1,17,18
 74 283 74 283 101 301.5 c 128,-1,19
 128 320 128 320 163 320 c 0,0,1
EndSplineSet
EndChar

StartChar: exclamdown
Encoding: 161 161 96
Width: 333
GlyphClass: 2
Flags: W
LayerCount: 2
Fore
SplineSet
241 281 m 1,0,1
 228 221 228 221 215.5 161 c 128,-1,2
 203 101 203 101 195.5 60 c 128,-1,3
 188 19 188 19 180.5 -20.5 c 128,-1,4
 173 -60 173 -60 168 -84.5 c 128,-1,5
 163 -109 163 -109 157 -132 c 128,-1,6
 151 -155 151 -155 146 -167 c 128,-1,7
 141 -179 141 -179 134 -188.5 c 128,-1,8
 127 -198 127 -198 118.5 -201.5 c 128,-1,9
 110 -205 110 -205 99 -205 c 0,10,11
 59 -205 59 -205 59 -154 c 0,12,13
 59 -129 59 -129 67.5 -102.5 c 128,-1,14
 76 -76 76 -76 92 -42.5 c 128,-1,15
 108 -9 108 -9 145 81 c 128,-1,16
 182 171 182 171 224 285 c 1,17,-1
 241 281 l 1,0,1
270 474 m 128,-1,19
 292 474 292 474 306.5 458.5 c 128,-1,20
 321 443 321 443 321 419 c 0,21,22
 321 399 321 399 305 383.5 c 128,-1,23
 289 368 289 368 269 368 c 0,24,25
 247 368 247 368 231 384 c 128,-1,26
 215 400 215 400 215 422 c 0,27,28
 215 443 215 443 231.5 458.5 c 128,-1,18
 248 474 248 474 270 474 c 128,-1,19
EndSplineSet
EndChar

StartChar: cent
Encoding: 162 162 97
Width: 500
GlyphClass: 2
Flags: W
LayerCount: 2
Fore
SplineSet
185 -7 m 1,0,1
 77 16 77 16 77 140 c 0,2,3
 77 203 77 203 106.5 266 c 128,-1,4
 136 329 136 329 198.5 378.5 c 128,-1,5
 261 428 261 428 342 440 c 1,6,-1
 384 560 l 1,7,-1
 414 560 l 1,8,-1
 372 440 l 1,9,10
 419 436 419 436 445.5 415.5 c 128,-1,11
 472 395 472 395 472 360 c 0,12,13
 472 340 472 340 458.5 327 c 128,-1,14
 445 314 445 314 424 314 c 0,15,16
 385 314 385 314 385 352 c 0,17,18
 385 362 385 362 392.5 378.5 c 128,-1,19
 400 395 400 395 400 400 c 0,20,21
 400 418 400 418 365 420 c 1,22,-1
 228 29 l 1,23,24
 239 25 239 25 252 25 c 0,25,26
 290 25 290 25 322.5 43 c 128,-1,27
 355 61 355 61 397 106 c 1,28,-1
 413 96 l 1,29,30
 368 39 368 39 324.5 14 c 128,-1,31
 281 -11 281 -11 227 -11 c 0,32,33
 220 -11 220 -11 215 -10 c 1,34,-1
 168 -143 l 1,35,-1
 137 -143 l 1,36,-1
 185 -7 l 1,0,1
334 417 m 1,37,38
 283 402 283 402 246.5 364.5 c 128,-1,39
 210 327 210 327 193.5 281.5 c 128,-1,40
 177 236 177 236 170 200.5 c 128,-1,41
 163 165 163 165 163 139 c 0,42,43
 163 74 163 74 202 41 c 1,44,-1
 334 417 l 1,37,38
EndSplineSet
EndChar

StartChar: sterling
Encoding: 163 163 98
Width: 500
GlyphClass: 2
Flags: W
LayerCount: 2
Fore
SplineSet
478 553 m 0,0,1
 458 553 458 553 450 566.5 c 128,-1,2
 442 580 442 580 442 597 c 128,-1,3
 442 614 442 614 432.5 627.5 c 128,-1,4
 423 641 423 641 402 641 c 0,5,6
 359 641 359 641 335.5 586 c 128,-1,7
 312 531 312 531 280 361 c 1,8,-1
 403 361 l 1,9,-1
 396 319 l 1,10,-1
 270 319 l 1,11,12
 251 238 251 238 239.5 205 c 128,-1,13
 228 172 228 172 197 104 c 1,14,15
 297 66 297 66 357 66 c 0,16,17
 398 66 398 66 436 93 c 2,18,-1
 446 100 l 1,19,-1
 457 91 l 1,20,21
 418 -6 418 -6 315 -6 c 0,22,23
 278 -6 278 -6 248.5 7 c 128,-1,24
 219 20 219 20 171 57 c 1,25,26
 142 20 142 20 121.5 7 c 128,-1,27
 101 -6 101 -6 75 -6 c 0,28,29
 46 -6 46 -6 28 11.5 c 128,-1,30
 10 29 10 29 10 58 c 0,31,32
 10 88 10 88 36.5 107 c 128,-1,33
 63 126 63 126 104 126 c 0,34,35
 120 126 120 126 160 115 c 1,36,-1
 185 319 l 1,37,-1
 72 319 l 1,38,-1
 81 361 l 1,39,-1
 191 361 l 1,40,41
 201 418 201 418 217 467 c 128,-1,42
 233 516 233 516 260 564.5 c 128,-1,43
 287 613 287 613 329 641.5 c 128,-1,44
 371 670 371 670 424 670 c 0,45,46
 465 670 465 670 491 649 c 128,-1,47
 517 628 517 628 517 594 c 0,48,49
 517 553 517 553 478 553 c 0,0,1
146 73 m 1,50,51
 110 98 110 98 86 98 c 128,-1,52
 62 98 62 98 47 85.5 c 128,-1,53
 32 73 32 73 32 53 c 0,54,55
 32 37 32 37 44.5 26.5 c 128,-1,56
 57 16 57 16 75 16 c 0,57,58
 98 16 98 16 117.5 32 c 128,-1,59
 137 48 137 48 146 73 c 1,50,51
EndSplineSet
EndChar

StartChar: currency
Encoding: 164 164 99
Width: 500
GlyphClass: 2
Flags: W
LayerCount: 2
Fore
SplineSet
-22 103 m 1,0,-1
 76 199 l 1,1,2
 35 258 35 258 35 325 c 0,3,4
 35 394 35 394 76 451 c 1,5,-1
 -22 549 l 1,6,-1
 28 597 l 1,7,-1
 124 501 l 1,8,9
 184 540 184 540 251 540 c 0,10,11
 321 540 321 540 376 501 c 1,12,-1
 474 597 l 1,13,-1
 522 549 l 1,14,-1
 426 451 l 1,15,16
 465 392 465 392 465 326 c 0,17,18
 465 259 465 259 426 199 c 1,19,-1
 522 103 l 1,20,-1
 474 53 l 1,21,-1
 376 151 l 1,22,23
 319 110 319 110 251 110 c 0,24,25
 186 110 186 110 124 151 c 1,26,-1
 28 53 l 1,27,-1
 -22 103 l 1,0,-1
253 476 m 0,28,29
 191 476 191 476 147 432.5 c 128,-1,30
 103 389 103 389 103 327 c 0,31,32
 103 263 103 263 146 218.5 c 128,-1,33
 189 174 189 174 251 174 c 0,34,35
 312 174 312 174 354.5 218 c 128,-1,36
 397 262 397 262 397 326 c 0,37,38
 397 388 397 388 354.5 432 c 128,-1,39
 312 476 312 476 253 476 c 0,28,29
EndSplineSet
EndChar

StartChar: yen
Encoding: 165 165 100
Width: 500
GlyphClass: 2
Flags: W
LayerCount: 2
Fore
SplineSet
483 606 m 0,0,1
 483 623 483 623 466.5 628.5 c 128,-1,2
 450 634 450 634 414 637 c 1,3,-1
 414 653 l 1,4,-1
 603 653 l 1,5,-1
 603 637 l 1,6,7
 579 626 579 626 566.5 616 c 128,-1,8
 554 606 554 606 530 576 c 2,9,-1
 349 352 l 1,10,-1
 500 352 l 1,11,-1
 488 312 l 1,12,-1
 318 312 l 1,13,-1
 312 304 l 1,14,-1
 288 222 l 1,15,-1
 468 222 l 1,16,-1
 456 182 l 1,17,-1
 276 182 l 1,18,19
 245 84 245 84 245 57 c 0,20,21
 245 32 245 32 262.5 25.5 c 128,-1,22
 280 19 280 19 337 16 c 1,23,-1
 337 0 l 1,24,-1
 52 0 l 1,25,-1
 56 16 l 1,26,27
 104 19 104 19 129 35.5 c 128,-1,28
 154 52 154 52 165 90 c 2,29,-1
 192 182 l 1,30,-1
 27 182 l 1,31,-1
 39 222 l 1,32,-1
 203 222 l 1,33,-1
 226 302 l 1,34,-1
 223 312 l 1,35,-1
 60 312 l 1,36,-1
 72 352 l 1,37,-1
 212 352 l 1,38,-1
 149 571 l 1,39,40
 136 612 136 612 123 621.5 c 128,-1,41
 110 631 110 631 61 637 c 1,42,-1
 61 653 l 1,43,-1
 300 653 l 1,44,-1
 300 637 l 1,45,46
 252 632 252 632 238.5 626 c 128,-1,47
 225 620 225 620 225 601 c 0,48,49
 225 581 225 581 264 447 c 2,50,-1
 293 347 l 1,51,52
 483 564 483 564 483 606 c 0,0,1
EndSplineSet
EndChar

StartChar: brokenbar
Encoding: 166 166 101
Width: 275
GlyphClass: 2
Flags: W
LayerCount: 2
Fore
SplineSet
105 -18 m 1,0,-1
 105 257 l 1,1,-1
 171 257 l 1,2,-1
 171 -18 l 1,3,-1
 105 -18 l 1,0,-1
105 391 m 1,4,-1
 105 666 l 1,5,-1
 171 666 l 1,6,-1
 171 391 l 1,7,-1
 105 391 l 1,4,-1
EndSplineSet
EndChar

StartChar: section
Encoding: 167 167 102
Width: 500
GlyphClass: 2
Flags: W
LayerCount: 2
Fore
SplineSet
156 -41 m 0,0,1
 156 -58 156 -58 149.5 -68.5 c 128,-1,2
 143 -79 143 -79 135 -82.5 c 128,-1,3
 127 -86 127 -86 120.5 -91 c 128,-1,4
 114 -96 114 -96 114 -104 c 0,5,6
 114 -119 114 -119 135.5 -130 c 128,-1,7
 157 -141 157 -141 185 -141 c 0,8,9
 230 -141 230 -141 258.5 -116 c 128,-1,10
 287 -91 287 -91 287 -51 c 128,-1,11
 287 -11 287 -11 237 46 c 2,12,-1
 161 133 l 2,13,14
 90 213 90 213 90 286 c 0,15,16
 90 336 90 336 121.5 372.5 c 128,-1,17
 153 409 153 409 196 409 c 0,18,19
 222 409 222 409 249 398 c 1,20,-1
 251 401 l 1,21,22
 213 447 213 447 198.5 477.5 c 128,-1,23
 184 508 184 508 184 541 c 0,24,25
 184 596 184 596 225.5 631 c 128,-1,26
 267 666 267 666 331 666 c 0,27,28
 388 666 388 666 424.5 638 c 128,-1,29
 461 610 461 610 461 567 c 0,30,31
 461 542 461 542 447 527 c 128,-1,32
 433 512 433 512 409 512 c 0,33,34
 389 512 389 512 376 524.5 c 128,-1,35
 363 537 363 537 363 557 c 0,36,37
 363 576 363 576 380 592 c 128,-1,38
 397 608 397 608 397 614 c 0,39,40
 397 627 397 627 379.5 636 c 128,-1,41
 362 645 362 645 337 645 c 0,42,43
 294 645 294 645 269.5 622.5 c 128,-1,44
 245 600 245 600 245 562 c 0,45,46
 245 521 245 521 271 490 c 2,47,-1
 394 340 l 2,48,49
 435 290 435 290 435 226 c 0,50,51
 435 170 435 170 402.5 135 c 128,-1,52
 370 100 370 100 317 100 c 0,53,54
 301 100 301 100 284 107 c 1,55,-1
 282 104 l 1,56,57
 322 53 322 53 333.5 29 c 128,-1,58
 345 5 345 5 345 -25 c 0,59,60
 345 -83 345 -83 300 -122.5 c 128,-1,61
 255 -162 255 -162 189 -162 c 0,62,63
 132 -162 132 -162 92.5 -131 c 128,-1,64
 53 -100 53 -100 53 -54 c 0,65,66
 53 -28 53 -28 68 -13 c 128,-1,67
 83 2 83 2 109 2 c 0,68,69
 131 2 131 2 143.5 -9.5 c 128,-1,70
 156 -21 156 -21 156 -41 c 0,0,1
377 192 m 0,71,72
 377 245 377 245 318.5 316.5 c 128,-1,73
 260 388 260 388 213 388 c 0,74,75
 186 388 186 388 166.5 369 c 128,-1,76
 147 350 147 350 147 322 c 0,77,78
 147 269 147 269 207.5 195 c 128,-1,79
 268 121 268 121 312 121 c 0,80,81
 338 121 338 121 357.5 142 c 128,-1,82
 377 163 377 163 377 192 c 0,71,72
EndSplineSet
EndChar

StartChar: copyright
Encoding: 169 169 104
Width: 760
GlyphClass: 2
Flags: W
LayerCount: 2
Fore
SplineSet
401 676 m 0,0,1
 262 676 262 676 164.5 581 c 0,2,3
 67 486 67 486 67 350 c 0,4,5
 67 212 67 212 163 115 c 0,6,7
 259 18 259 18 396 18 c 0,8,9
 532 18 532 18 628.5 114.5 c 0,10,11
 725 211 725 211 725 347 c 0,12,13
 725 482 725 482 629 579 c 0,14,15
 533 676 533 676 401 676 c 0,0,1
402 708 m 0,16,17
 547 708 547 708 652 601.5 c 0,18,19
 757 495 757 495 757 347 c 0,20,21
 757 198 757 198 651 92 c 0,22,23
 545 -14 545 -14 396 -14 c 0,24,25
 246 -14 246 -14 140.5 92.5 c 0,26,27
 35 199 35 199 35 350 c 0,28,29
 35 499 35 499 142 603.5 c 0,30,31
 249 708 249 708 402 708 c 0,16,17
EndSplineSet
Refer: 35 67 N 0.679993 0 0 0.679993 133 124 2
EndChar

StartChar: ordfeminine
Encoding: 170 170 105
Width: 276
GlyphClass: 2
Flags: W
LayerCount: 2
Fore
SplineSet
272 355 m 1,0,-1
 259 292 l 1,1,-1
 39 292 l 1,2,-1
 53 355 l 1,3,-1
 272 355 l 1,0,-1
307 447 m 2,4,5
 308 447 308 447 343 482 c 1,6,-1
 350 472 l 1,7,8
 313 431 313 431 296.5 418.5 c 128,-1,9
 280 406 280 406 260 406 c 0,10,11
 229 406 229 406 229 432 c 0,12,13
 229 450 229 450 246 493 c 1,14,15
 209 442 209 442 183 424 c 128,-1,16
 157 406 157 406 120 406 c 0,17,18
 84 406 84 406 63 425 c 128,-1,19
 42 444 42 444 42 476 c 0,20,21
 42 546 42 546 103.5 611 c 128,-1,22
 165 676 165 676 231 676 c 0,23,24
 283 676 283 676 290 641 c 1,25,-1
 297 671 l 1,26,-1
 299 673 l 1,27,-1
 352 675 l 1,28,29
 306 512 306 512 298 472 c 2,30,-1
 295 457 l 2,31,32
 294 454 294 454 294 449 c 0,33,34
 294 443 294 443 298 443 c 1,35,-1
 307 447 l 2,4,5
269 620 m 0,36,37
 269 658 269 658 245 658 c 0,38,39
 207 658 207 658 161 596 c 128,-1,40
 115 534 115 534 115 480 c 0,41,42
 115 465 115 465 124 452.5 c 128,-1,43
 133 440 133 440 144 440 c 0,44,45
 190 440 190 440 229.5 509.5 c 128,-1,46
 269 579 269 579 269 620 c 0,36,37
EndSplineSet
EndChar

StartChar: guillemotleft
Encoding: 171 171 106
Width: 444
GlyphClass: 2
Flags: W
LayerCount: 2
Fore
SplineSet
200 37 m 0,0,1
 192 37 192 37 130 114.5 c 0,2,3
 68 192 68 192 51 216 c 1,4,-1
 51 225 l 1,5,-1
 87 252 l 1,6,7
 145 297 145 297 178 326 c 0,8,9
 266 403 266 403 274 403 c 0,10,11
 281 403 281 403 281 395 c 0,12,13
 281 382 281 382 260.5 357.5 c 0,14,15
 240 333 240 333 192 285 c 0,16,17
 144 237 144 237 125 217 c 1,18,-1
 145 177 l 1,19,20
 207 62 207 62 207 44 c 0,21,22
 207 37 207 37 200 37 c 0,0,1
364 37 m 0,23,24
 356 37 356 37 294 114.5 c 0,25,26
 232 192 232 192 215 216 c 1,27,-1
 215 225 l 1,28,-1
 251 252 l 1,29,30
 309 297 309 297 342 326 c 0,31,32
 430 403 430 403 438 403 c 0,33,34
 445 403 445 403 445 395 c 0,35,36
 445 382 445 382 424.5 357.5 c 0,37,38
 404 333 404 333 356 285 c 0,39,40
 308 237 308 237 289 217 c 1,41,-1
 309 177 l 1,42,43
 371 62 371 62 371 44 c 0,44,45
 371 37 371 37 364 37 c 0,23,24
EndSplineSet
EndChar

StartChar: logicalnot
Encoding: 172 172 107
Width: 675
GlyphClass: 2
Flags: W
LayerCount: 2
Fore
SplineSet
524 108 m 1,0,-1
 524 320 l 1,1,-1
 86 320 l 1,2,-1
 86 386 l 1,3,-1
 590 386 l 1,4,-1
 590 108 l 1,5,-1
 524 108 l 1,0,-1
EndSplineSet
EndChar

StartChar: registered
Encoding: 174 174 109
Width: 760
GlyphClass: 2
Flags: W
LayerCount: 2
Fore
SplineSet
401 676 m 0,0,1
 262 676 262 676 164.5 581 c 0,2,3
 67 486 67 486 67 350 c 0,4,5
 67 212 67 212 163 115 c 0,6,7
 259 18 259 18 396 18 c 0,8,9
 532 18 532 18 628.5 114.5 c 0,10,11
 725 211 725 211 725 347 c 0,12,13
 725 482 725 482 629 579 c 0,14,15
 533 676 533 676 401 676 c 0,0,1
402 708 m 0,16,17
 547 708 547 708 652 601.5 c 0,18,19
 757 495 757 495 757 347 c 0,20,21
 757 198 757 198 651 92 c 0,22,23
 545 -14 545 -14 396 -14 c 0,24,25
 246 -14 246 -14 140.5 92.5 c 0,26,27
 35 199 35 199 35 350 c 0,28,29
 35 499 35 499 142 603.5 c 0,30,31
 249 708 249 708 402 708 c 0,16,17
EndSplineSet
Refer: 50 82 N 0.679993 0 0 0.679993 176 124 2
EndChar

StartChar: macron
Encoding: 175 175 110
Width: 333
GlyphClass: 2
Flags: W
LayerCount: 2
Fore
SplineSet
411 583 m 1,0,-1
 400 532 l 1,1,-1
 99 532 l 1,2,-1
 110 583 l 1,3,-1
 411 583 l 1,0,-1
EndSplineSet
EndChar

StartChar: degree
Encoding: 176 176 111
Width: 400
GlyphClass: 2
Flags: W
LayerCount: 2
Fore
SplineSet
244 676 m 128,-1,1
 304 676 304 676 345.5 634.5 c 128,-1,2
 387 593 387 593 387 533 c 0,3,4
 387 472 387 472 345.5 431 c 128,-1,5
 304 390 304 390 242 390 c 0,6,7
 184 390 184 390 142.5 432 c 128,-1,8
 101 474 101 474 101 533 c 0,9,10
 101 593 101 593 142.5 634.5 c 128,-1,0
 184 676 184 676 244 676 c 128,-1,1
244 642 m 0,11,12
 201 642 201 642 170.5 609.5 c 128,-1,13
 140 577 140 577 140 533 c 128,-1,14
 140 489 140 489 170.5 456.5 c 128,-1,15
 201 424 201 424 243 424 c 0,16,17
 286 424 286 424 317 456 c 128,-1,18
 348 488 348 488 348 533 c 0,19,20
 348 577 348 577 317 609.5 c 128,-1,21
 286 642 286 642 244 642 c 0,11,12
EndSplineSet
EndChar

StartChar: plusminus
Encoding: 177 177 112
Width: 675
GlyphClass: 2
Flags: W
LayerCount: 2
Fore
SplineSet
86 0 m 1,0,-1
 86 66 l 1,1,-1
 590 66 l 1,2,-1
 590 0 l 1,3,-1
 86 0 l 1,0,-1
305 348 m 1,4,-1
 305 568 l 1,5,-1
 371 568 l 1,6,-1
 371 348 l 1,7,-1
 590 348 l 1,8,-1
 590 282 l 1,9,-1
 371 282 l 1,10,-1
 371 122 l 1,11,-1
 305 122 l 1,12,-1
 305 282 l 1,13,-1
 86 282 l 1,14,-1
 86 348 l 1,15,-1
 305 348 l 1,4,-1
EndSplineSet
EndChar

StartChar: twosuperior
Encoding: 178 178 113
Width: 300
GlyphClass: 2
Flags: W
LayerCount: 2
Fore
SplineSet
185 700 m 1,0,1
 227 799 227 799 320 799 c 0,2,3
 366 799 366 799 398.5 769 c 128,-1,4
 431 739 431 739 431 698 c 0,5,6
 431 670 431 670 415 644 c 128,-1,7
 399 618 399 618 337 559 c 2,8,-1
 223 449 l 1,9,-1
 225 444 l 1,10,-1
 328 444 l 2,11,12
 355 444 355 444 367 450.5 c 128,-1,13
 379 457 379 457 391 478 c 1,14,-1
 404 470 l 1,15,-1
 371 391 l 1,16,-1
 140 391 l 1,17,-1
 140 409 l 1,18,-1
 273 539 l 2,19,20
 363 626 363 626 363 678 c 0,21,22
 363 706 363 706 341.5 724 c 128,-1,23
 320 742 320 742 288 742 c 0,24,25
 238 742 238 742 198 690 c 1,26,-1
 185 700 l 1,0,1
EndSplineSet
EndChar

StartChar: threesuperior
Encoding: 179 179 114
Width: 300
GlyphClass: 2
Flags: W
LayerCount: 2
Fore
SplineSet
330 512 m 0,0,1
 330 566 330 566 301 586.5 c 128,-1,2
 272 607 272 607 219 607 c 1,3,-1
 219 620 l 1,4,5
 364 646 364 646 364 712 c 0,6,7
 364 735 364 735 350.5 749.5 c 128,-1,8
 337 764 337 764 316 764 c 0,9,10
 284 764 284 764 245 728 c 1,11,-1
 233 735 l 1,12,13
 248 764 248 764 276.5 781.5 c 128,-1,14
 305 799 305 799 338 799 c 0,15,16
 378 799 378 799 405.5 776 c 128,-1,17
 433 753 433 753 433 720 c 1,18,19
 432 689 432 689 409 668.5 c 128,-1,20
 386 648 386 648 332 633 c 1,21,22
 333 632 333 632 341 628.5 c 128,-1,23
 349 625 349 625 353 623 c 128,-1,24
 357 621 357 621 365 615.5 c 128,-1,25
 373 610 373 610 377.5 604 c 128,-1,26
 382 598 382 598 387 589.5 c 128,-1,27
 392 581 392 581 394.5 570 c 128,-1,28
 397 559 397 559 397 545 c 0,29,30
 397 476 397 476 344 430.5 c 128,-1,31
 291 385 291 385 210 385 c 0,32,33
 175 385 175 385 156 396.5 c 128,-1,34
 137 408 137 408 137 427 c 0,35,36
 137 438 137 438 145.5 446.5 c 128,-1,37
 154 455 154 455 167 455 c 128,-1,38
 180 455 180 455 205.5 438 c 128,-1,39
 231 421 231 421 248 421 c 0,40,41
 284 421 284 421 307 446.5 c 128,-1,42
 330 472 330 472 330 512 c 0,0,1
EndSplineSet
EndChar

StartChar: acute
Encoding: 180 180 115
Width: 250
GlyphClass: 2
Flags: W
LayerCount: 2
Fore
SplineSet
101 494 m 1,0,-1
 263 654 l 1,1,2
 275 664 275 664 288 664 c 0,3,4
 303 664 303 664 313.5 653.5 c 128,-1,5
 324 643 324 643 324 628 c 0,6,7
 324 610 324 610 307 600 c 2,8,-1
 136 494 l 1,9,-1
 101 494 l 1,0,-1
EndSplineSet
EndChar

StartChar: micro
Encoding: 181 181 116
Width: 500
GlyphClass: 2
Flags: W
LayerCount: 2
Fore
SplineSet
73 18 m 0,0,1
 73 -6 73 -6 74 -24 c 128,-1,2
 75 -42 75 -42 75 -66 c 0,3,4
 75 -131 75 -131 55.5 -170 c 128,-1,5
 36 -209 36 -209 4 -209 c 0,6,7
 -30 -209 -30 -209 -30 -164 c 0,8,9
 -30 -122 -30 -122 0 -61.5 c 128,-1,10
 30 -1 30 -1 42 54 c 2,11,-1
 127 428 l 1,12,-1
 215 428 l 1,13,-1
 148 144 l 2,14,15
 145 134 145 134 145 114 c 0,16,17
 145 82 145 82 163.5 63.5 c 128,-1,18
 182 45 182 45 214 45 c 0,19,20
 282 45 282 45 336 115 c 1,21,-1
 409 428 l 1,22,-1
 497 428 l 1,23,-1
 419 92 l 2,24,25
 413 70 413 70 413 58 c 0,26,27
 413 30 413 30 439 30 c 0,28,29
 461 30 461 30 495 56 c 1,30,31
 489 39 489 39 457 14.5 c 128,-1,32
 425 -10 425 -10 385 -10 c 0,33,34
 328 -10 328 -10 328 49 c 0,35,36
 328 61 328 61 332 80 c 1,37,38
 255 -10 255 -10 178 -10 c 0,39,40
 103 -10 103 -10 75 66 c 1,41,42
 73 24 73 24 73 18 c 0,0,1
EndSplineSet
EndChar

StartChar: paragraph
Encoding: 182 182 117
Width: 523
GlyphClass: 2
Flags: W
LayerCount: 2
Fore
SplineSet
92 403 m 0,0,1
 92 436 92 436 97.5 466.5 c 128,-1,2
 103 497 103 497 121 532.5 c 128,-1,3
 139 568 139 568 167 593.5 c 128,-1,4
 195 619 195 619 244.5 636 c 128,-1,5
 294 653 294 653 359 653 c 2,6,-1
 616 653 l 1,7,-1
 610 632 l 1,8,9
 553 628 553 628 538 619 c 128,-1,10
 523 610 523 610 513 574 c 2,11,-1
 357 -11 l 1,12,13
 342 -56 342 -56 342 -76 c 0,14,15
 342 -94 342 -94 391 -100 c 0,16,17
 394 -100 394 -100 414 -102 c 1,18,-1
 409 -123 l 1,19,-1
 261 -123 l 1,20,-1
 461 632 l 1,21,-1
 403 632 l 1,22,-1
 203 -123 l 1,23,-1
 55 -123 l 1,24,-1
 60 -102 l 1,25,26
 118 -97 118 -97 134 -89 c 0,27,28
 140 -87 140 -87 149 -65 c 128,-1,29
 158 -43 158 -43 169.5 -2 c 128,-1,30
 181 39 181 39 192 80 c 128,-1,31
 203 121 203 121 218.5 181.5 c 128,-1,32
 234 242 234 242 245 283 c 1,33,34
 92 289 92 289 92 403 c 0,0,1
334 632 m 1,35,36
 279 628 279 628 239.5 587.5 c 128,-1,37
 200 547 200 547 184.5 499 c 128,-1,38
 169 451 169 451 169 406 c 0,39,40
 169 313 169 313 255 304 c 1,41,-1
 334 632 l 1,35,36
EndSplineSet
EndChar

StartChar: middot
Encoding: 183 183 118
Width: 250
GlyphClass: 2
Flags: W
LayerCount: 2
Fore
SplineSet
192 286 m 0,0,1
 211 286 211 286 225.5 271 c 128,-1,2
 240 256 240 256 240 237 c 0,3,4
 240 217 240 217 225.5 202.5 c 128,-1,5
 211 188 211 188 191 188 c 128,-1,6
 171 188 171 188 156.5 202.5 c 128,-1,7
 142 217 142 217 142 238 c 0,8,9
 142 258 142 258 156.5 272 c 128,-1,10
 171 286 171 286 192 286 c 0,0,1
EndSplineSet
EndChar

StartChar: cedilla
Encoding: 184 184 119
Width: 250
GlyphClass: 2
Flags: W
LayerCount: 2
Fore
SplineSet
21 -96 m 1,0,-1
 81 0 l 1,1,-1
 119 0 l 1,2,-1
 75 -66 l 1,3,4
 90 -63 90 -63 100 -63 c 0,5,6
 137 -63 137 -63 159.5 -81.5 c 128,-1,7
 182 -100 182 -100 182 -131 c 0,8,9
 182 -168 182 -168 148.5 -192.5 c 128,-1,10
 115 -217 115 -217 63 -217 c 0,11,12
 25 -217 25 -217 -30 -196 c 1,13,-1
 -13 -167 l 1,14,15
 28 -182 28 -182 55 -182 c 0,16,17
 108 -182 108 -182 108 -141 c 0,18,19
 108 -122 108 -122 95 -109.5 c 128,-1,20
 82 -97 82 -97 62 -97 c 0,21,22
 50 -97 50 -97 30 -104 c 1,23,-1
 21 -96 l 1,0,-1
EndSplineSet
EndChar

StartChar: onesuperior
Encoding: 185 185 120
Width: 250
GlyphClass: 2
Flags: W
LayerCount: 2
Fore
SplineSet
235 774 m 1,0,1
 268 779 268 779 293 784 c 128,-1,2
 318 789 318 789 327.5 791 c 128,-1,3
 337 793 337 793 344.5 794.5 c 128,-1,4
 352 796 352 796 360 796 c 2,5,-1
 370 796 l 2,6,7
 375 796 375 796 375 791 c 0,8,9
 375 788 375 788 371 775 c 2,10,-1
 285 501 l 2,11,12
 266 441 266 441 266 427 c 0,13,14
 266 416 266 416 274.5 412 c 128,-1,15
 283 408 283 408 311 407 c 1,16,-1
 311 391 l 1,17,-1
 130 391 l 1,18,-1
 130 407 l 1,19,20
 165 411 165 411 178 416 c 128,-1,21
 191 421 191 421 195 432 c 2,22,-1
 285 717 l 2,23,24
 290 732 290 732 290 738 c 0,25,26
 290 746 290 746 285 751 c 128,-1,27
 280 756 280 756 274 756 c 0,28,29
 271 756 271 756 269 755 c 1,30,-1
 235 755 l 1,31,-1
 235 774 l 1,0,1
EndSplineSet
EndChar

StartChar: ordmasculine
Encoding: 186 186 121
Width: 310
GlyphClass: 2
Flags: W
LayerCount: 2
Fore
SplineSet
272 355 m 1,0,-1
 259 292 l 1,1,-1
 39 292 l 1,2,-1
 53 355 l 1,3,-1
 272 355 l 1,0,-1
265 676 m 0,4,5
 308 676 308 676 335 652.5 c 128,-1,6
 362 629 362 629 362 592 c 0,7,8
 362 523 362 523 299.5 464.5 c 128,-1,9
 237 406 237 406 164 406 c 0,10,11
 120 406 120 406 93.5 428.5 c 128,-1,12
 67 451 67 451 67 489 c 0,13,14
 67 560 67 560 128 618 c 128,-1,15
 189 676 189 676 265 676 c 0,4,5
289 607 m 0,16,17
 289 654 289 654 255 654 c 0,18,19
 215 654 215 654 177.5 596 c 128,-1,20
 140 538 140 538 140 476 c 0,21,22
 140 455 140 455 150.5 442.5 c 128,-1,23
 161 430 161 430 178 430 c 0,24,25
 222 430 222 430 255.5 490.5 c 128,-1,26
 289 551 289 551 289 607 c 0,16,17
EndSplineSet
EndChar

StartChar: guillemotright
Encoding: 187 187 122
Width: 444
GlyphClass: 2
Flags: W
LayerCount: 2
Fore
SplineSet
98 403 m 0,0,1
 106 403 106 403 170 323.5 c 0,2,3
 234 244 234 244 247 224 c 1,4,-1
 247 215 l 1,5,6
 149 139 149 139 120 114 c 0,7,8
 32 37 32 37 24 37 c 0,9,10
 17 37 17 37 17 45 c 0,11,12
 17 58 17 58 40.5 86 c 0,13,14
 64 114 64 114 108 158 c 0,15,16
 152 202 152 202 171 223 c 1,17,-1
 153 263 l 1,18,19
 91 378 91 378 91 396 c 0,20,21
 91 403 91 403 98 403 c 0,0,1
261 403 m 0,22,23
 269 403 269 403 333 323.5 c 0,24,25
 397 244 397 244 410 224 c 1,26,-1
 410 215 l 1,27,28
 312 139 312 139 283 114 c 0,29,30
 195 37 195 37 187 37 c 0,31,32
 180 37 180 37 180 45 c 0,33,34
 180 58 180 58 203.5 86 c 0,35,36
 227 114 227 114 271 158 c 0,37,38
 315 202 315 202 334 223 c 1,39,-1
 316 263 l 1,40,41
 254 378 254 378 254 396 c 0,42,43
 254 403 254 403 261 403 c 0,22,23
EndSplineSet
EndChar

StartChar: onequarter
Encoding: 188 188 123
Width: 750
GlyphClass: 3
Flags: W
LayerCount: 2
Fore
SplineSet
708 676 m 1,0,-1
 253 -10 l 1,1,-1
 202 -10 l 1,2,-1
 657 676 l 1,3,-1
 708 676 l 1,0,-1
767 147 m 1,4,-1
 757 102 l 1,5,-1
 703 102 l 1,6,-1
 674 0 l 1,7,-1
 607 0 l 1,8,-1
 638 103 l 1,9,-1
 470 103 l 1,10,-1
 484 147 l 1,11,-1
 757 413 l 1,12,-1
 797 413 l 1,13,-1
 716 147 l 1,14,-1
 767 147 l 1,4,-1
710 333 m 1,15,-1
 521 147 l 1,16,-1
 648 147 l 1,17,-1
 710 333 l 1,15,-1
EndSplineSet
Refer: 120 185 N 1 0 0 1 -40 -120 2
Ligature2: "'frac' Diagonal Fractions lookup 22 per glyph data 1" one fraction four
Ligature2: "'frac' Diagonal Fractions lookup 22 per glyph data 0" one slash four
EndChar

StartChar: onehalf
Encoding: 189 189 124
Width: 740
GlyphClass: 3
Flags: W
LayerCount: 2
Fore
SplineSet
203 655 m 1,0,1
 236 660 236 660 261 665 c 0,2,3
 286 670 286 670 295.5 672 c 0,4,5
 305 674 305 674 312.5 675.5 c 0,6,7
 320 677 320 677 328 677 c 2,8,-1
 338 677 l 2,9,10
 343 677 343 677 343 672 c 0,11,12
 343 669 343 669 339 656 c 2,13,-1
 253 382 l 2,14,15
 234 322 234 322 234 308 c 0,16,17
 234 297 234 297 242.5 293 c 0,18,19
 251 289 251 289 279 288 c 1,20,-1
 279 272 l 1,21,-1
 98 272 l 1,22,-1
 98 288 l 1,23,24
 133 292 133 292 146 297 c 0,25,26
 159 302 159 302 163 313 c 2,27,-1
 253 598 l 2,28,29
 258 613 258 613 258 619 c 0,30,31
 258 627 258 627 253 632 c 0,32,33
 248 637 248 637 242 637 c 0,34,35
 239 637 239 637 237 636 c 1,36,-1
 203 636 l 1,37,-1
 203 655 l 1,0,1
668 676 m 1,38,-1
 213 -10 l 1,39,-1
 162 -10 l 1,40,-1
 617 676 l 1,41,-1
 668 676 l 1,38,-1
EndSplineSet
Refer: 113 178 N 1 0 0 1 350 -391 2
Ligature2: "'frac' Diagonal Fractions lookup 22 per glyph data 1" one fraction two
Ligature2: "'frac' Diagonal Fractions lookup 22 per glyph data 0" one slash two
EndChar

StartChar: threequarters
Encoding: 190 190 125
Width: 750
GlyphClass: 3
Flags: W
LayerCount: 2
Fore
SplineSet
708 676 m 1,0,-1
 253 -10 l 1,1,-1
 202 -10 l 1,2,-1
 657 676 l 1,3,-1
 708 676 l 1,0,-1
777 147 m 1,4,-1
 767 102 l 1,5,-1
 713 102 l 1,6,-1
 684 0 l 1,7,-1
 617 0 l 1,8,-1
 648 103 l 1,9,-1
 480 103 l 1,10,-1
 494 147 l 1,11,-1
 767 413 l 1,12,-1
 807 413 l 1,13,-1
 726 147 l 1,14,-1
 777 147 l 1,4,-1
720 333 m 1,15,-1
 531 147 l 1,16,-1
 658 147 l 1,17,-1
 720 333 l 1,15,-1
EndSplineSet
Refer: 114 179 N 1 0 0 1 -50 -124 2
Ligature2: "'frac' Diagonal Fractions lookup 22 per glyph data 1" three fraction four
Ligature2: "'frac' Diagonal Fractions lookup 22 per glyph data 0" three slash four
EndChar

StartChar: questiondown
Encoding: 191 191 126
Width: 500
GlyphClass: 2
Flags: W
LayerCount: 2
Fore
SplineSet
252 -135 m 0,0,1
 252 -126 252 -126 244.5 -109 c 128,-1,2
 237 -92 237 -92 237 -83 c 0,3,4
 237 -68 237 -68 248 -58 c 128,-1,5
 259 -48 259 -48 277 -48 c 128,-1,6
 295 -48 295 -48 305.5 -61 c 128,-1,7
 316 -74 316 -74 316 -96 c 0,8,9
 316 -144 316 -144 276.5 -174.5 c 128,-1,10
 237 -205 237 -205 175 -205 c 0,11,12
 108 -205 108 -205 68 -170 c 128,-1,13
 28 -135 28 -135 28 -76 c 0,14,15
 28 -37 28 -37 50 -3 c 128,-1,16
 72 31 72 31 105 58 c 128,-1,17
 138 85 138 85 172.5 112 c 128,-1,18
 207 139 207 139 236.5 176.5 c 128,-1,19
 266 214 266 214 277 256 c 2,20,-1
 284 285 l 1,21,-1
 301 283 l 1,22,23
 287 207 287 207 269 171.5 c 128,-1,24
 251 136 251 136 189 67 c 0,25,26
 140 12 140 12 121 -24 c 128,-1,27
 102 -60 102 -60 102 -99 c 0,28,29
 102 -139 102 -139 123 -161 c 128,-1,30
 144 -183 144 -183 182 -183 c 0,31,32
 214 -183 214 -183 233 -170 c 128,-1,33
 252 -157 252 -157 252 -135 c 0,0,1
314 473 m 0,34,35
 336 473 336 473 351.5 458 c 128,-1,36
 367 443 367 443 367 421 c 128,-1,37
 367 399 367 399 352 383.5 c 128,-1,38
 337 368 337 368 315 368 c 128,-1,39
 293 368 293 368 277.5 383.5 c 128,-1,40
 262 399 262 399 262 421 c 0,41,42
 262 441 262 441 277.5 457 c 128,-1,43
 293 473 293 473 314 473 c 0,34,35
EndSplineSet
EndChar

StartChar: AE
Encoding: 198 198 133
Width: 877
GlyphClass: 2
Flags: W
LayerCount: 2
Fore
SplineSet
250 234 m 1,0,1
 249 232 249 232 222 199 c 128,-1,2
 195 166 195 166 177.5 143 c 128,-1,3
 160 120 160 120 142.5 90.5 c 128,-1,4
 125 61 125 61 125 47 c 128,-1,5
 125 33 125 33 137.5 26.5 c 128,-1,6
 150 20 150 20 189 16 c 1,7,-1
 189 0 l 1,8,-1
 2 0 l 1,9,-1
 2 16 l 1,10,11
 20 21 20 21 35.5 34.5 c 128,-1,12
 51 48 51 48 86 92 c 2,13,-1
 455 557 l 2,14,15
 487 596 487 596 487 610 c 0,16,17
 487 633 487 633 449 636 c 0,18,19
 445 636 445 636 423 638 c 1,20,-1
 423 653 l 1,21,-1
 940 653 l 1,22,-1
 907 500 l 1,23,-1
 890 502 l 1,24,25
 891 515 891 515 891 538 c 0,26,27
 891 591 891 591 856.5 605.5 c 128,-1,28
 822 620 822 620 699 620 c 0,29,30
 664 620 664 620 653 613.5 c 128,-1,31
 642 607 642 607 635 583 c 2,32,-1
 574 361 l 1,33,34
 628 361 628 361 654 363 c 128,-1,35
 680 365 680 365 703.5 369 c 128,-1,36
 727 373 727 373 739.5 385.5 c 128,-1,37
 752 398 752 398 761.5 412.5 c 128,-1,38
 771 427 771 427 785 458 c 1,39,-1
 803 454 l 1,40,-1
 734 222 l 1,41,-1
 717 226 l 1,42,43
 723 262 723 262 723 278 c 0,44,45
 723 309 723 309 700.5 318.5 c 128,-1,46
 678 328 678 328 605 328 c 2,47,-1
 565 328 l 1,48,49
 494 76 494 76 494 62 c 0,50,51
 494 33 494 33 545 33 c 2,52,-1
 575 33 l 2,53,54
 687 33 687 33 742.5 60 c 128,-1,55
 798 87 798 87 855 169 c 1,56,-1
 873 164 l 1,57,-1
 809 0 l 1,58,-1
 311 0 l 1,59,-1
 311 16 l 1,60,61
 357 20 357 20 370 28 c 128,-1,62
 383 36 383 36 391 64 c 2,63,-1
 440 234 l 1,64,-1
 250 234 l 1,0,1
278 271 m 1,65,-1
 451 271 l 1,66,-1
 546 613 l 1,67,-1
 278 271 l 1,65,-1
EndSplineSet
EndChar

StartChar: Ccedilla
Encoding: 199 199 134
Width: 611
GlyphClass: 2
Flags: W
LayerCount: 2
Fore
SplineSet
451 666 m 0,0,1
 489 666 489 666 544.5 654 c 128,-1,2
 600 642 600 642 609 642 c 0,3,4
 636 642 636 642 647 664 c 1,5,-1
 668 664 l 1,6,-1
 631 465 l 1,7,-1
 613 468 l 1,8,9
 598 630 598 630 460 630 c 0,10,11
 358 630 358 630 283 553 c 0,12,13
 224 492 224 492 190.5 406.5 c 128,-1,14
 157 321 157 321 157 232 c 0,15,16
 157 135 157 135 203 81 c 128,-1,17
 249 27 249 27 332 27 c 0,18,19
 393 27 393 27 443.5 53 c 128,-1,20
 494 79 494 79 562 145 c 1,21,-1
 579 131 l 1,22,23
 511 52 511 52 447 17 c 128,-1,24
 383 -18 383 -18 306 -18 c 0,25,26
 280 -18 280 -18 256 -14 c 1,27,-1
 221 -66 l 1,28,29
 236 -63 236 -63 246 -63 c 0,30,31
 283 -63 283 -63 305.5 -81.5 c 128,-1,32
 328 -100 328 -100 328 -131 c 0,33,34
 328 -168 328 -168 294.5 -192.5 c 128,-1,35
 261 -217 261 -217 209 -217 c 0,36,37
 171 -217 171 -217 116 -196 c 1,38,-1
 133 -167 l 1,39,40
 173 -182 173 -182 201 -182 c 0,41,42
 254 -182 254 -182 254 -141 c 0,43,44
 254 -122 254 -122 241 -109.5 c 128,-1,45
 228 -97 228 -97 208 -97 c 0,46,47
 196 -97 196 -97 176 -104 c 1,48,-1
 167 -96 l 1,49,-1
 223 -6 l 1,50,51
 141 18 141 18 93 85 c 128,-1,52
 45 152 45 152 45 243 c 0,53,54
 45 352 45 352 101.5 450 c 128,-1,55
 158 548 158 548 252.5 607 c 128,-1,56
 347 666 347 666 451 666 c 0,0,1
EndSplineSet
EndChar

StartChar: Eth
Encoding: 208 208 143
Width: 702
GlyphClass: 2
Flags: W
LayerCount: 2
Fore
SplineSet
708 384 m 0,0,1
 708 219 708 219 581.5 109.5 c 128,-1,2
 455 0 455 0 253 0 c 2,3,-1
 0 0 l 1,4,-1
 0 16 l 1,5,6
 43 24 43 24 56 35.5 c 128,-1,7
 69 47 69 47 81 90 c 2,8,-1
 146 326 l 1,9,-1
 56 326 l 1,10,-1
 68 368 l 1,11,-1
 158 368 l 1,12,-1
 204 532 l 2,13,14
 215 570 215 570 215 596 c 0,15,16
 215 616 215 616 200 624.5 c 128,-1,17
 185 633 185 633 138 637 c 1,18,-1
 138 653 l 1,19,-1
 416 653 l 2,20,21
 550 653 550 653 629 580 c 128,-1,22
 708 507 708 507 708 384 c 0,0,1
597 408 m 0,23,24
 597 445 597 445 588.5 478.5 c 128,-1,25
 580 512 580 512 559 546.5 c 128,-1,26
 538 581 538 581 493.5 602 c 128,-1,27
 449 623 449 623 385 623 c 0,28,29
 353 623 353 623 339 616.5 c 128,-1,30
 325 610 325 610 321 594 c 2,31,-1
 258 368 l 1,32,-1
 411 368 l 1,33,-1
 399 326 l 1,34,-1
 246 326 l 1,35,-1
 200 162 l 2,36,37
 178 85 178 85 178 67 c 0,38,39
 178 30 178 30 243 30 c 0,40,41
 402 30 402 30 499.5 134 c 128,-1,42
 597 238 597 238 597 408 c 0,23,24
EndSplineSet
EndChar

StartChar: multiply
Encoding: 215 215 150
Width: 675
GlyphClass: 2
Flags: W
LayerCount: 2
Fore
SplineSet
289 253 m 1,0,-1
 93 449 l 1,1,-1
 141 497 l 1,2,-1
 337 300 l 1,3,-1
 534 497 l 1,4,-1
 582 449 l 1,5,-1
 385 253 l 1,6,-1
 582 56 l 1,7,-1
 534 8 l 1,8,-1
 337 205 l 1,9,-1
 141 8 l 1,10,-1
 93 56 l 1,11,-1
 289 253 l 1,0,-1
EndSplineSet
EndChar

StartChar: Oslash
Encoding: 216 216 151
Width: 657
GlyphClass: 2
Flags: W
LayerCount: 2
Fore
SplineSet
37 222 m 0,0,1
 37 310 37 310 77.5 394.5 c 128,-1,2
 118 479 118 479 179.5 537 c 128,-1,3
 241 595 241 595 312 630.5 c 128,-1,4
 383 666 383 666 445 666 c 0,5,6
 499 666 499 666 550 644 c 1,7,-1
 602 722 l 1,8,-1
 646 722 l 1,9,-1
 582 626 l 1,10,11
 676 552 676 552 676 431 c 0,12,13
 676 348 676 348 640 265.5 c 128,-1,14
 604 183 604 183 546 121 c 128,-1,15
 488 59 488 59 411.5 20.5 c 128,-1,16
 335 -18 335 -18 258 -18 c 0,17,18
 217 -18 217 -18 164 3 c 1,19,-1
 90 -105 l 1,20,-1
 46 -105 l 1,21,-1
 132 22 l 1,22,23
 37 91 37 91 37 222 c 0,0,1
441 633 m 0,24,25
 377 633 377 633 319 585.5 c 128,-1,26
 261 538 261 538 223.5 467.5 c 128,-1,27
 186 397 186 397 164 319 c 128,-1,28
 142 241 142 241 142 176 c 0,29,30
 142 121 142 121 167 74 c 1,31,-1
 523 607 l 1,32,33
 487 633 487 633 441 633 c 0,24,25
547 574 m 1,34,-1
 192 44 l 1,35,36
 222 15 222 15 272 15 c 0,37,38
 379 15 379 15 460 132 c 0,39,40
 507 200 507 200 539 299.5 c 128,-1,41
 571 399 571 399 571 475 c 0,42,43
 571 530 571 530 547 574 c 1,34,-1
EndSplineSet
EndChar

StartChar: Thorn
Encoding: 222 222 157
Width: 537
GlyphClass: 2
Flags: W
LayerCount: 2
Fore
SplineSet
539 369 m 0,0,1
 539 335 539 335 526.5 303 c 128,-1,2
 514 271 514 271 485 239.5 c 128,-1,3
 456 208 456 208 399.5 189 c 128,-1,4
 343 170 343 170 265 170 c 0,5,6
 210 170 210 170 176 180 c 1,7,-1
 159 120 l 2,8,9
 147 76 147 76 147 62 c 0,10,11
 147 37 147 37 157.5 30 c 128,-1,12
 168 23 168 23 215 16 c 1,13,-1
 215 0 l 1,14,-1
 -30 0 l 1,15,-1
 -30 16 l 1,16,17
 13 22 13 22 26 33.5 c 128,-1,18
 39 45 39 45 52 90 c 2,19,-1
 170 515 l 2,20,21
 187 575 187 575 187 595 c 128,-1,22
 187 615 187 615 173 623.5 c 128,-1,23
 159 632 159 632 116 637 c 1,24,-1
 116 653 l 1,25,-1
 354 653 l 1,26,-1
 354 637 l 1,27,28
 324 633 324 633 310.5 624.5 c 128,-1,29
 297 616 297 616 292 595 c 2,30,-1
 272 518 l 1,31,-1
 328 518 l 2,32,33
 430 518 430 518 484.5 479.5 c 128,-1,34
 539 441 539 441 539 369 c 0,0,1
436 368 m 0,35,36
 436 424 436 424 407.5 456 c 128,-1,37
 379 488 379 488 302 488 c 0,38,39
 264 488 264 488 256 459 c 2,40,-1
 185 211 l 1,41,42
 215 206 215 206 237 206 c 0,43,44
 333 206 333 206 384.5 241 c 128,-1,45
 436 276 436 276 436 368 c 0,35,36
EndSplineSet
EndChar

StartChar: ssharp
Encoding: 223 223 158
Width: 569
GlyphClass: 2
Flags: W
LayerCount: 2
Fore
SplineSet
586 548 m 0,0,1
 586 495 586 495 550.5 456.5 c 128,-1,2
 515 418 515 418 423 384 c 1,3,-1
 423 381 l 1,4,5
 462 376 462 376 489 358.5 c 128,-1,6
 516 341 516 341 527.5 317.5 c 128,-1,7
 539 294 539 294 543 277 c 128,-1,8
 547 260 547 260 547 244 c 0,9,10
 547 153 547 153 485.5 70 c 128,-1,11
 424 -13 424 -13 334 -13 c 0,12,13
 298 -13 298 -13 276 5.5 c 128,-1,14
 254 24 254 24 254 53 c 0,15,16
 254 74 254 74 266 87 c 128,-1,17
 278 100 278 100 298 100 c 0,18,19
 315 100 315 100 325.5 89 c 128,-1,20
 336 78 336 78 336 60 c 0,21,22
 336 48 336 48 330 36 c 128,-1,23
 324 24 324 24 324 22 c 0,24,25
 324 17 324 17 329.5 13 c 128,-1,26
 335 9 335 9 342 9 c 0,27,28
 375 9 375 9 400 42 c 128,-1,29
 425 75 425 75 437 121 c 128,-1,30
 449 167 449 167 454.5 204 c 128,-1,31
 460 241 460 241 460 262 c 0,32,33
 460 366 460 366 379 369 c 0,34,35
 353 370 353 370 353 384 c 0,36,37
 353 397 353 397 370 397 c 0,38,39
 431 397 431 397 468.5 447 c 128,-1,40
 506 497 506 497 506 577 c 0,41,42
 506 656 506 656 444 656 c 0,43,44
 357 656 357 656 299 438 c 1,45,-1
 188 12 l 2,46,47
 161 -91 161 -91 112 -149 c 128,-1,48
 63 -207 63 -207 3 -207 c 0,49,50
 -32 -207 -32 -207 -53.5 -190 c 128,-1,51
 -75 -173 -75 -173 -75 -145 c 0,52,53
 -75 -126 -75 -126 -64.5 -114.5 c 128,-1,54
 -54 -103 -54 -103 -36 -103 c 0,55,56
 -19 -103 -19 -103 -7.5 -113 c 128,-1,57
 4 -123 4 -123 4 -139 c 0,58,59
 4 -149 4 -149 -2 -160.5 c 128,-1,60
 -8 -172 -8 -172 -8 -175 c 0,61,62
 -8 -183 -8 -183 10 -183 c 0,63,64
 47 -183 47 -183 70.5 -144 c 128,-1,65
 94 -105 94 -105 116 -4 c 2,66,-1
 188 315 l 2,67,68
 231 507 231 507 292.5 593 c 128,-1,69
 354 679 354 679 447 679 c 0,70,71
 509 679 509 679 547.5 643 c 128,-1,72
 586 607 586 607 586 548 c 0,0,1
EndSplineSet
EndChar

StartChar: ae
Encoding: 230 230 165
Width: 634
GlyphClass: 2
Flags: W
LayerCount: 2
Fore
SplineSet
582 113 m 1,0,-1
 592 101 l 1,1,2
 550 50 550 50 497 19.5 c 128,-1,3
 444 -11 444 -11 397 -11 c 128,-1,4
 350 -11 350 -11 320 23.5 c 128,-1,5
 290 58 290 58 290 111 c 0,6,7
 290 127 290 127 296 151 c 1,8,9
 232 58 232 58 190.5 23.5 c 128,-1,10
 149 -11 149 -11 101 -11 c 0,11,12
 64 -11 64 -11 40.5 15.5 c 128,-1,13
 17 42 17 42 17 83 c 0,14,15
 17 160 17 160 60.5 244.5 c 128,-1,16
 104 329 104 329 170.5 385 c 128,-1,17
 237 441 237 441 297 441 c 0,18,19
 323 441 323 441 337 431 c 128,-1,20
 351 421 351 421 363 394 c 1,21,-1
 382 437 l 1,22,-1
 453 439 l 1,23,-1
 431 377 l 1,24,25
 496 441 496 441 553 441 c 0,26,27
 590 441 590 441 612 422 c 128,-1,28
 634 403 634 403 634 371 c 0,29,30
 634 343 634 343 618.5 318.5 c 128,-1,31
 603 294 603 294 578 277 c 128,-1,32
 553 260 553 260 520.5 246 c 128,-1,33
 488 232 488 232 456.5 221.5 c 128,-1,34
 425 211 425 211 393 202 c 0,35,36
 383 199 383 199 378 198 c 1,37,38
 370 161 370 161 370 137 c 0,39,40
 370 36 370 36 440 36 c 0,41,42
 501 36 501 36 582 113 c 1,0,-1
344 370 m 0,43,44
 344 393 344 393 331 407 c 128,-1,45
 318 421 318 421 296 421 c 0,46,47
 256 421 256 421 210 366 c 128,-1,48
 164 311 164 311 133.5 233.5 c 128,-1,49
 103 156 103 156 103 92 c 0,50,51
 103 39 103 39 137 39 c 0,52,53
 181 39 181 39 230 95.5 c 128,-1,54
 279 152 279 152 311.5 230 c 128,-1,55
 344 308 344 308 344 370 c 0,43,44
384 223 m 1,56,57
 421 234 421 234 447.5 244.5 c 128,-1,58
 474 255 474 255 504.5 273.5 c 128,-1,59
 535 292 535 292 551.5 318.5 c 128,-1,60
 568 345 568 345 568 379 c 0,61,62
 568 416 568 416 533 416 c 0,63,64
 447 416 447 416 384 223 c 1,56,57
EndSplineSet
EndChar

StartChar: ccedilla
Encoding: 231 231 166
Width: 403
GlyphClass: 2
Flags: W
LayerCount: 2
Fore
SplineSet
310 420 m 0,0,1
 265 420 265 420 228.5 396.5 c 128,-1,2
 192 373 192 373 170.5 339 c 128,-1,3
 149 305 149 305 134.5 264 c 128,-1,4
 120 223 120 223 115 191.5 c 128,-1,5
 110 160 110 160 110 139 c 0,6,7
 110 86 110 86 134 55.5 c 128,-1,8
 158 25 158 25 201 25 c 0,9,10
 238 25 238 25 270.5 43.5 c 128,-1,11
 303 62 303 62 344 106 c 1,12,-1
 360 96 l 1,13,14
 315 38 315 38 271 13.5 c 128,-1,15
 227 -11 227 -11 170 -11 c 2,16,-1
 162 -11 l 1,17,-1
 125 -66 l 1,18,19
 140 -63 140 -63 150 -63 c 0,20,21
 187 -63 187 -63 209.5 -81.5 c 128,-1,22
 232 -100 232 -100 232 -131 c 0,23,24
 232 -168 232 -168 198.5 -192.5 c 128,-1,25
 165 -217 165 -217 113 -217 c 0,26,27
 75 -217 75 -217 20 -196 c 1,28,-1
 37 -167 l 1,29,30
 77 -182 77 -182 105 -182 c 0,31,32
 158 -182 158 -182 158 -141 c 0,33,34
 158 -122 158 -122 145 -109.5 c 128,-1,35
 132 -97 132 -97 112 -97 c 0,36,37
 100 -97 100 -97 80 -104 c 1,38,-1
 71 -96 l 1,39,-1
 127 -6 l 1,40,41
 24 19 24 19 24 139 c 0,42,43
 24 256 24 256 113 348.5 c 128,-1,44
 202 441 202 441 314 441 c 0,45,46
 359 441 359 441 389 418 c 128,-1,47
 419 395 419 395 419 360 c 0,48,49
 419 341 419 341 405 327.5 c 128,-1,50
 391 314 391 314 371 314 c 0,51,52
 332 314 332 314 332 352 c 0,53,54
 332 362 332 362 339.5 378.5 c 128,-1,55
 347 395 347 395 347 400 c 0,56,57
 347 420 347 420 310 420 c 0,0,1
EndSplineSet
EndChar

StartChar: eth
Encoding: 240 240 175
Width: 456
GlyphClass: 2
Flags: W
LayerCount: 2
Fore
SplineSet
322 567 m 1,0,-1
 205 516 l 1,1,-1
 172 545 l 1,2,-1
 295 599 l 1,3,4
 248 643 248 643 192 666 c 1,5,-1
 227 683 l 1,6,7
 293 668 293 668 349 622 c 1,8,-1
 448 665 l 1,9,-1
 480 637 l 1,10,-1
 379 592 l 1,11,12
 425 537 425 537 445 483 c 128,-1,13
 465 429 465 429 465 359 c 0,14,15
 465 210 465 210 377.5 99.5 c 128,-1,16
 290 -11 290 -11 172 -11 c 0,17,18
 104 -11 104 -11 64.5 26.5 c 128,-1,19
 25 64 25 64 25 129 c 0,20,21
 25 242 25 242 115 341.5 c 128,-1,22
 205 441 205 441 308 441 c 0,23,24
 366 441 366 441 392 392 c 1,25,-1
 394 393 l 1,26,27
 380 492 380 492 322 567 c 1,0,-1
187 10 m 0,28,29
 240 10 240 10 286.5 65 c 128,-1,30
 333 120 333 120 357.5 192.5 c 128,-1,31
 382 265 382 265 382 326 c 0,32,33
 382 369 382 369 362.5 394.5 c 128,-1,34
 343 420 343 420 311 420 c 0,35,36
 261 420 261 420 212.5 367 c 128,-1,37
 164 314 164 314 136.5 240 c 128,-1,38
 109 166 109 166 109 101 c 0,39,40
 109 60 109 60 130.5 35 c 128,-1,41
 152 10 152 10 187 10 c 0,28,29
EndSplineSet
EndChar

StartChar: divide
Encoding: 247 247 182
Width: 675
GlyphClass: 2
Flags: W
LayerCount: 2
Fore
SplineSet
590 220 m 1,0,-1
 86 220 l 1,1,-1
 86 286 l 1,2,-1
 590 286 l 1,3,-1
 590 220 l 1,0,-1
338 100 m 0,4,5
 361 100 361 100 377.5 83 c 128,-1,6
 394 66 394 66 394 43 c 0,7,8
 394 21 394 21 377 5 c 128,-1,9
 360 -11 360 -11 336 -11 c 0,10,11
 315 -11 315 -11 299 5 c 128,-1,12
 283 21 283 21 283 43 c 0,13,14
 283 66 283 66 299.5 83 c 128,-1,15
 316 100 316 100 338 100 c 0,4,5
338 517 m 0,16,17
 361 517 361 517 377.5 500 c 128,-1,18
 394 483 394 483 394 460 c 0,19,20
 394 438 394 438 377 422 c 128,-1,21
 360 406 360 406 337 406 c 0,22,23
 315 406 315 406 299 422 c 128,-1,24
 283 438 283 438 283 460 c 0,25,26
 283 483 283 483 299.5 500 c 128,-1,27
 316 517 316 517 338 517 c 0,16,17
EndSplineSet
EndChar

StartChar: oslash
Encoding: 248 248 183
Width: 474
GlyphClass: 2
Flags: W
LayerCount: 2
Fore
SplineSet
121 -4 m 1,0,1
 25 26 25 26 25 130 c 0,2,3
 25 245 25 245 118 343 c 128,-1,4
 211 441 211 441 320 441 c 0,5,6
 329 441 329 441 336 440 c 1,7,-1
 391 554 l 1,8,-1
 425 554 l 1,9,-1
 367 435 l 1,10,11
 466 407 466 407 466 298 c 0,12,13
 466 231 466 231 425.5 159.5 c 128,-1,14
 385 88 385 88 316 38.5 c 128,-1,15
 247 -11 247 -11 173 -11 c 0,16,17
 159 -11 159 -11 153 -9 c 1,18,-1
 92 -135 l 1,19,-1
 57 -135 l 1,20,-1
 121 -4 l 1,0,1
315 420 m 0,21,22
 260 420 260 420 211 365 c 128,-1,23
 162 310 162 310 135.5 235.5 c 128,-1,24
 109 161 109 161 109 97 c 0,25,26
 109 57 109 57 137 29 c 1,27,-1
 325 418 l 1,28,29
 323 418 323 418 320 419 c 0,30,31
 316 420 316 420 315 420 c 0,21,22
186 10 m 0,32,33
 238 10 238 10 284.5 63.5 c 128,-1,34
 331 117 331 117 356.5 189 c 128,-1,35
 382 261 382 261 382 325 c 0,36,37
 382 375 382 375 354 406 c 1,38,-1
 164 14 l 1,39,40
 175 10 175 10 186 10 c 0,32,33
EndSplineSet
EndChar

StartChar: thorn
Encoding: 254 254 189
Width: 471
GlyphClass: 2
Flags: W
LayerCount: 2
Fore
SplineSet
130 -190 m 1,0,-1
 130 -205 l 1,1,-1
 -75 -205 l 1,2,-1
 -75 -189 l 1,3,4
 -43 -188 -43 -188 -30 -176.5 c 128,-1,5
 -17 -165 -17 -165 -8 -130 c 2,6,-1
 179 573 l 2,7,8
 188 603 188 603 188 616 c 0,9,10
 188 633 188 633 177.5 637.5 c 128,-1,11
 167 642 167 642 123 643 c 1,12,-1
 123 660 l 1,13,14
 200 669 200 669 275 683 c 1,15,-1
 280 678 l 1,16,17
 196 358 196 358 189 335 c 1,18,-1
 191 333 l 1,19,20
 259 441 259 441 353 441 c 0,21,22
 408 441 408 441 438.5 407.5 c 128,-1,23
 469 374 469 374 469 315 c 0,24,25
 469 196 469 196 373.5 92.5 c 128,-1,26
 278 -11 278 -11 169 -11 c 0,27,28
 136 -11 136 -11 103 6 c 1,29,30
 66 -136 66 -136 66 -159 c 0,31,32
 66 -176 66 -176 80.5 -183 c 128,-1,33
 95 -190 95 -190 130 -190 c 1,0,-1
166 8 m 0,34,35
 223 8 223 8 273.5 59 c 128,-1,36
 324 110 324 110 351.5 180 c 128,-1,37
 379 250 379 250 379 312 c 0,38,39
 379 398 379 398 317 398 c 0,40,41
 276 398 276 398 239 367 c 128,-1,42
 202 336 202 336 182 284 c 0,43,44
 160 228 160 228 138.5 149 c 128,-1,45
 117 70 117 70 117 45 c 0,46,47
 117 29 117 29 130.5 18.5 c 128,-1,48
 144 8 144 8 166 8 c 0,34,35
EndSplineSet
EndChar

StartChar: Aogonek
Encoding: 260 260 195
Width: 611
GlyphClass: 2
Flags: W
AnchorPoint: "Anchor-4" 382 659 basechar 0
LayerCount: 2
Fore
SplineSet
374 226 m 1,0,-1
 154 226 l 1,1,-1
 97 113 l 2,2,3
 77 73 77 73 77 51 c 0,4,5
 77 32 77 32 87.5 26 c 128,-1,6
 98 20 98 20 136 16 c 1,7,-1
 136 0 l 1,8,-1
 -51 0 l 1,9,-1
 -51 16 l 1,10,11
 -20 22 -20 22 0.5 46 c 128,-1,12
 21 70 21 70 78 168 c 2,13,-1
 368 668 l 1,14,-1
 394 668 l 1,15,-1
 488 102 l 2,16,17
 498 47 498 47 510 33.5 c 128,-1,18
 522 20 522 20 564 16 c 1,19,-1
 564 0 l 1,20,21
 548 -16 548 -16 548 -49 c 0,22,23
 548 -76 548 -76 563.5 -91 c 128,-1,24
 579 -106 579 -106 607 -106 c 0,25,26
 651 -106 651 -106 690 -74 c 1,27,-1
 707 -92 l 1,28,29
 654 -169 654 -169 582 -169 c 0,30,31
 543 -169 543 -169 515 -141 c 128,-1,32
 487 -113 487 -113 487 -73 c 0,33,34
 487 -38 487 -38 515 0 c 1,35,-1
 318 0 l 1,36,-1
 318 16 l 1,37,38
 366 21 366 21 381 31 c 128,-1,39
 396 41 396 41 396 69 c 0,40,41
 396 77 396 77 394 95 c 2,42,-1
 374 226 l 1,0,-1
175 262 m 1,43,-1
 369 262 l 1,44,-1
 325 522 l 1,45,-1
 175 262 l 1,43,-1
EndSplineSet
EndChar

StartChar: aogonek
Encoding: 261 261 196
Width: 500
GlyphClass: 2
Flags: W
AnchorPoint: "Anchor-4" 307 443 basechar 0
LayerCount: 2
Fore
SplineSet
384 41 m 0,0,1
 388 41 388 41 394 44.5 c 128,-1,2
 400 48 400 48 409.5 56 c 128,-1,3
 419 64 419 64 425 70.5 c 128,-1,4
 431 77 431 77 444.5 90.5 c 128,-1,5
 458 104 458 104 464 110 c 1,6,-1
 476 100 l 1,7,8
 409 18 409 18 372 -4 c 0,9,10
 354 -14 354 -14 347.5 -24 c 128,-1,11
 341 -34 341 -34 341 -52 c 0,12,13
 341 -77 341 -77 357 -91.5 c 128,-1,14
 373 -106 373 -106 400 -106 c 0,15,16
 444 -106 444 -106 483 -74 c 1,17,-1
 500 -92 l 1,18,19
 447 -169 447 -169 375 -169 c 0,20,21
 336 -169 336 -169 308 -141 c 128,-1,22
 280 -113 280 -113 280 -74 c 0,23,24
 280 -38 280 -38 306 0 c 1,25,26
 297 10 297 10 297 31 c 0,27,28
 297 56 297 56 320 146 c 1,29,30
 254 53 254 53 213 21 c 128,-1,31
 172 -11 172 -11 119 -11 c 0,32,33
 71 -11 71 -11 44 18.5 c 128,-1,34
 17 48 17 48 17 100 c 0,35,36
 17 177 17 177 60.5 257 c 128,-1,37
 104 337 104 337 171.5 389 c 128,-1,38
 239 441 239 441 303 441 c 0,39,40
 370 441 370 441 383 383 c 1,41,-1
 394 431 l 1,42,-1
 397 434 l 1,43,-1
 458 441 l 1,44,-1
 465 438 l 1,45,46
 464 434 464 434 459 417 c 0,47,48
 370 91 370 91 370 54 c 0,49,50
 370 41 370 41 384 41 c 0,0,1
365 358 m 0,51,52
 365 386 365 386 348.5 402.5 c 128,-1,53
 332 419 332 419 304 419 c 0,54,55
 249 419 249 419 199.5 355 c 128,-1,56
 150 291 150 291 125.5 221.5 c 128,-1,57
 101 152 101 152 101 113 c 0,58,59
 101 79 101 79 117 58.5 c 128,-1,60
 133 38 133 38 159 38 c 0,61,62
 206 38 206 38 255 92.5 c 128,-1,63
 304 147 304 147 334.5 222 c 128,-1,64
 365 297 365 297 365 358 c 0,51,52
EndSplineSet
EndChar

StartChar: dcaron
Encoding: 271 271 206
Width: 625
GlyphClass: 2
Flags: W
LayerCount: 2
Fore
SplineSet
558 461 m 1,0,-1
 523 461 l 1,1,-1
 621 631 l 2,2,3
 640 665 640 665 669 665 c 0,4,5
 683 665 683 665 692 657 c 0,6,7
 701 649 701 649 701 634 c 0,8,9
 701 617 701 617 680 594 c 2,10,-1
 558 461 l 1,0,-1
EndSplineSet
Refer: 68 100 N 1 0 0 1 0 0 2
EndChar

StartChar: dcroat
Encoding: 273 273 208
Width: 500
GlyphClass: 2
Flags: W
LayerCount: 2
Fore
SplineSet
418 544 m 1,0,-1
 252 544 l 1,1,-1
 260 579 l 1,2,-1
 428 579 l 1,3,4
 434 602 434 602 434 616 c 0,5,6
 434 632 434 632 423.5 636.5 c 128,-1,7
 413 641 413 641 372 643 c 1,8,-1
 372 660 l 1,9,10
 449 667 449 667 525 683 c 1,11,-1
 530 678 l 1,12,-1
 504 579 l 1,13,-1
 561 579 l 1,14,-1
 553 544 l 1,15,-1
 495 544 l 1,16,17
 456 390 456 390 431 306 c 0,18,19
 366 91 366 91 366 60 c 0,20,21
 366 52 366 52 371.5 46 c 128,-1,22
 377 40 377 40 384 40 c 0,23,24
 397 40 397 40 411.5 52.5 c 128,-1,25
 426 65 426 65 466 111 c 1,26,-1
 478 101 l 1,27,28
 397 -13 397 -13 332 -13 c 0,29,30
 313 -13 313 -13 301.5 -0.5 c 128,-1,31
 290 12 290 12 290 32 c 0,32,33
 290 61 290 61 303 121 c 1,34,35
 252 46 252 46 213 17.5 c 128,-1,36
 174 -11 174 -11 123 -11 c 0,37,38
 74 -11 74 -11 46 19.5 c 128,-1,39
 18 50 18 50 18 103 c 0,40,41
 18 176 18 176 63.5 256 c 128,-1,42
 109 336 109 336 178 388.5 c 128,-1,43
 247 441 247 441 310 441 c 0,44,45
 339 441 339 441 354 427.5 c 128,-1,46
 369 414 369 414 375 383 c 1,47,-1
 418 544 l 1,0,-1
314 418 m 1,48,-1
 310 418 l 2,49,50
 265 418 265 418 221 372 c 0,51,52
 172 320 172 320 138.5 242.5 c 128,-1,53
 105 165 105 165 105 103 c 0,54,55
 105 74 105 74 121 55.5 c 128,-1,56
 137 37 137 37 163 37 c 0,57,58
 208 37 208 37 254 86 c 128,-1,59
 300 135 300 135 329.5 211 c 128,-1,60
 359 287 359 287 359 361 c 0,61,62
 359 415 359 415 314 418 c 1,48,-1
EndSplineSet
EndChar

StartChar: Eogonek
Encoding: 280 280 215
Width: 611
GlyphClass: 2
Flags: W
AnchorPoint: "Anchor-4" 402 659 basechar 0
LayerCount: 2
Fore
SplineSet
256 33 m 0,0,1
 326 33 326 33 371.5 40.5 c 128,-1,2
 417 48 417 48 450.5 68.5 c 128,-1,3
 484 89 484 89 502.5 109 c 128,-1,4
 521 129 521 129 552 170 c 1,5,-1
 568 162 l 1,6,-1
 506 0 l 2,7,8
 492 -36 492 -36 492 -56 c 0,9,10
 492 -78 492 -78 508.5 -92 c 128,-1,11
 525 -106 525 -106 551 -106 c 0,12,13
 595 -106 595 -106 634 -74 c 1,14,-1
 651 -92 l 1,15,16
 598 -169 598 -169 526 -169 c 0,17,18
 486 -169 486 -169 458.5 -141 c 128,-1,19
 431 -113 431 -113 431 -72 c 0,20,21
 431 -36 431 -36 459 0 c 1,22,-1
 -1 0 l 1,23,-1
 -1 16 l 1,24,25
 41 24 41 24 54.5 36 c 128,-1,26
 68 48 68 48 80 90 c 2,27,-1
 203 532 l 2,28,29
 214 572 214 572 214 596 c 0,30,31
 214 616 214 616 198.5 624.5 c 128,-1,32
 183 633 183 633 137 637 c 1,33,-1
 137 653 l 1,34,-1
 634 653 l 1,35,-1
 603 500 l 1,36,-1
 582 502 l 1,37,38
 584 536 584 536 584 547 c 0,39,40
 584 592 584 592 547 606 c 128,-1,41
 510 620 510 620 392 620 c 0,42,43
 350 620 350 620 337 615.5 c 128,-1,44
 324 611 324 611 319 594 c 2,45,-1
 253 361 l 1,46,47
 323 363 323 363 332 363 c 0,48,49
 400 366 400 366 421 380 c 128,-1,50
 442 394 442 394 470 458 c 1,51,-1
 488 454 l 1,52,-1
 420 222 l 1,53,-1
 400 227 l 1,54,55
 407 258 407 258 407 279 c 0,56,57
 407 305 407 305 391.5 315 c 128,-1,58
 376 325 376 325 330 325 c 2,59,-1
 322 325 l 2,60,61
 296 325 296 325 244 328 c 1,62,63
 226 261 226 261 210.5 207.5 c 128,-1,64
 195 154 195 154 189 135 c 128,-1,65
 183 116 183 116 179.5 99.5 c 128,-1,66
 176 83 176 83 176 67 c 0,67,68
 176 33 176 33 256 33 c 0,0,1
EndSplineSet
EndChar

StartChar: eogonek
Encoding: 281 281 216
Width: 406
GlyphClass: 2
Flags: W
AnchorPoint: "Anchor-4" 330 443 basechar 0
LayerCount: 2
Fore
SplineSet
363 97 m 1,0,1
 355 88 355 88 337 67.5 c 128,-1,2
 319 47 319 47 312.5 38 c 128,-1,3
 306 29 306 29 295.5 13 c 128,-1,4
 285 -3 285 -3 281.5 -18.5 c 128,-1,5
 278 -34 278 -34 278 -53 c 0,6,7
 278 -77 278 -77 294.5 -91.5 c 128,-1,8
 311 -106 311 -106 337 -106 c 0,9,10
 381 -106 381 -106 420 -74 c 1,11,-1
 437 -92 l 1,12,13
 384 -169 384 -169 312 -169 c 0,14,15
 273 -169 273 -169 245 -141 c 128,-1,16
 217 -113 217 -113 217 -75 c 0,17,18
 217 -28 217 -28 255 14 c 1,19,20
 205 -11 205 -11 157 -11 c 0,21,22
 98 -11 98 -11 61 27 c 128,-1,23
 24 65 24 65 24 126 c 0,24,25
 24 199 24 199 69 273 c 128,-1,26
 114 347 114 347 184.5 394 c 128,-1,27
 255 441 255 441 325 441 c 0,28,29
 362 441 362 441 383.5 423 c 128,-1,30
 405 405 405 405 405 373 c 0,31,32
 405 308 405 308 333 257 c 128,-1,33
 261 206 261 206 149 190 c 2,34,-1
 121 186 l 1,35,36
 111 146 111 146 111 124 c 0,37,38
 111 83 111 83 136.5 58.5 c 128,-1,39
 162 34 162 34 205 34 c 0,40,41
 237 34 237 34 267 49.5 c 128,-1,42
 297 65 297 65 351 109 c 1,43,-1
 363 97 l 1,0,1
128 208 m 1,44,45
 182 221 182 221 222.5 240 c 128,-1,46
 263 259 263 259 284.5 277 c 128,-1,47
 306 295 306 295 319 316 c 128,-1,48
 332 337 332 337 335.5 351 c 128,-1,49
 339 365 339 365 339 379 c 0,50,51
 339 396 339 396 329.5 407 c 128,-1,52
 320 418 320 418 304 418 c 0,53,54
 266 418 266 418 218 368.5 c 128,-1,55
 170 319 170 319 145 252 c 2,56,-1
 128 208 l 1,44,45
EndSplineSet
EndChar

StartChar: Hbar
Encoding: 294 294 229
Width: 722
GlyphClass: 2
Flags: W
LayerCount: 2
Fore
SplineSet
576 526 m 1,0,-1
 291 526 l 1,1,-1
 248 368 l 1,2,-1
 533 368 l 1,3,-1
 576 526 l 1,0,-1
194 526 m 1,4,-1
 95 526 l 1,5,-1
 105 561 l 1,6,-1
 202 561 l 1,7,8
 207 583 207 583 207 594 c 0,9,10
 207 616 207 616 192 624 c 128,-1,11
 177 632 177 632 130 637 c 1,12,-1
 130 653 l 1,13,-1
 403 653 l 1,14,-1
 403 637 l 1,15,16
 389 636 389 636 377 634.5 c 128,-1,17
 365 633 365 633 355.5 629 c 128,-1,18
 346 625 346 625 339.5 622.5 c 128,-1,19
 333 620 333 620 327.5 613.5 c 128,-1,20
 322 607 322 607 319 605 c 128,-1,21
 316 603 316 603 312 594 c 128,-1,22
 308 585 308 585 307.5 584 c 128,-1,23
 307 583 307 583 304 572 c 2,24,-1
 300 561 l 1,25,-1
 585 561 l 1,26,27
 590 577 590 577 590 594 c 0,28,29
 590 615 590 615 576.5 623.5 c 128,-1,30
 563 632 563 632 520 637 c 1,31,-1
 520 653 l 1,32,-1
 767 653 l 1,33,-1
 767 637 l 1,34,35
 724 629 724 629 710 617 c 128,-1,36
 696 605 696 605 684 561 c 1,37,-1
 766 561 l 1,38,-1
 756 526 l 1,39,-1
 675 526 l 1,40,-1
 553 82 l 2,41,42
 550 70 550 70 550 58 c 0,43,44
 550 37 550 37 565 28.5 c 128,-1,45
 580 20 580 20 628 16 c 1,46,-1
 628 0 l 1,47,-1
 355 0 l 1,48,-1
 355 16 l 1,49,50
 404 21 404 21 424.5 36 c 128,-1,51
 445 51 445 51 456 90 c 2,52,-1
 521 326 l 1,53,-1
 236 326 l 1,54,-1
 170 82 l 2,55,56
 167 72 167 72 167 60 c 0,57,58
 167 38 167 38 180 30 c 128,-1,59
 193 22 193 22 238 16 c 1,60,-1
 238 0 l 1,61,-1
 -8 0 l 1,62,-1
 -8 16 l 1,63,64
 35 24 35 24 48 35.5 c 128,-1,65
 61 47 61 47 73 90 c 2,66,-1
 194 526 l 1,4,-1
EndSplineSet
EndChar

StartChar: hbar
Encoding: 295 295 230
Width: 500
GlyphClass: 2
Flags: W
LayerCount: 2
Fore
SplineSet
146 643 m 0,0,1
 131 643 131 643 111 641 c 1,2,-1
 111 656 l 1,3,4
 187 665 187 665 268 683 c 1,5,-1
 273 678 l 1,6,-1
 244 569 l 1,7,-1
 446 569 l 1,8,-1
 436 534 l 1,9,-1
 234 534 l 1,10,-1
 153 230 l 1,11,12
 288 441 288 441 382 441 c 0,13,14
 411 441 411 441 429.5 422.5 c 128,-1,15
 448 404 448 404 448 374 c 0,16,17
 448 342 448 342 407.5 206.5 c 128,-1,18
 367 71 367 71 367 56 c 0,19,20
 367 49 367 49 371.5 43.5 c 128,-1,21
 376 38 376 38 383 38 c 0,22,23
 395 38 395 38 410 52.5 c 128,-1,24
 425 67 425 67 465 117 c 1,25,-1
 478 105 l 1,26,27
 433 40 433 40 401.5 15.5 c 128,-1,28
 370 -9 370 -9 332 -9 c 0,29,30
 312 -9 312 -9 300 2.5 c 128,-1,31
 288 14 288 14 288 33 c 0,32,33
 288 50 288 50 308 125 c 2,34,-1
 363 332 l 2,35,36
 370 360 370 360 370 365 c 0,37,38
 370 375 370 375 361.5 382.5 c 128,-1,39
 353 390 353 390 342 390 c 0,40,41
 316 390 316 390 271 349 c 128,-1,42
 226 308 226 308 187 249 c 0,43,44
 157 203 157 203 140.5 159 c 128,-1,45
 124 115 124 115 94 0 c 1,46,-1
 19 0 l 1,47,-1
 160 534 l 1,48,-1
 78 534 l 1,49,-1
 88 569 l 1,50,-1
 169 569 l 1,51,-1
 172 579 l 1,52,53
 178 603 178 603 178 617 c 0,54,55
 178 626 178 626 167.5 634.5 c 128,-1,56
 157 643 157 643 146 643 c 0,0,1
EndSplineSet
EndChar

StartChar: Iogonek
Encoding: 302 302 237
Width: 343
GlyphClass: 2
Flags: W
AnchorPoint: "Anchor-4" 280 659 basechar 0
LayerCount: 2
Fore
SplineSet
145 653 m 1,0,-1
 392 653 l 1,1,-1
 392 637 l 1,2,3
 348 629 348 629 335 617.5 c 128,-1,4
 322 606 322 606 310 563 c 2,5,-1
 187 120 l 2,6,7
 176 81 176 81 176 57 c 0,8,9
 176 36 176 36 188.5 28.5 c 128,-1,10
 201 21 201 21 244 16 c 1,11,-1
 244 0 l 1,12,13
 228 -20 228 -20 228 -49 c 0,14,15
 228 -76 228 -76 243.5 -91 c 128,-1,16
 259 -106 259 -106 287 -106 c 0,17,18
 331 -106 331 -106 370 -74 c 1,19,-1
 387 -92 l 1,20,21
 334 -169 334 -169 262 -169 c 0,22,23
 223 -169 223 -169 195 -141 c 128,-1,24
 167 -113 167 -113 167 -73 c 0,25,26
 167 -40 167 -40 194 0 c 1,27,-1
 0 0 l 1,28,-1
 0 16 l 1,29,30
 43 24 43 24 56 35.5 c 128,-1,31
 69 47 69 47 81 90 c 2,32,-1
 204 532 l 2,33,34
 215 571 215 571 215 594 c 0,35,36
 215 615 215 615 201.5 623.5 c 128,-1,37
 188 632 188 632 145 637 c 1,38,-1
 145 653 l 1,0,-1
EndSplineSet
EndChar

StartChar: iogonek
Encoding: 303 303 238
Width: 278
GlyphClass: 2
Flags: W
AnchorPoint: "Anchor-4" 222 659 basechar 0
LayerCount: 2
Fore
SplineSet
140 36 m 0,0,1
 163 36 163 36 222 114 c 1,2,-1
 235 103 l 1,3,4
 207 60 207 60 181.5 33 c 128,-1,5
 156 6 156 6 144 -1 c 128,-1,6
 132 -8 132 -8 125.5 -19 c 128,-1,7
 119 -30 119 -30 119 -50 c 0,8,9
 119 -76 119 -76 134.5 -91 c 128,-1,10
 150 -106 150 -106 178 -106 c 0,11,12
 222 -106 222 -106 261 -74 c 1,13,-1
 278 -92 l 1,14,15
 226 -169 226 -169 153 -169 c 0,16,17
 113 -169 113 -169 85.5 -141 c 128,-1,18
 58 -113 58 -113 58 -72 c 0,19,20
 58 -39 58 -39 80 -9 c 1,21,22
 49 2 49 2 49 46 c 0,23,24
 49 75 49 75 71 155 c 2,25,-1
 119 332 l 2,26,27
 128 362 128 362 128 376 c 0,28,29
 128 391 128 391 116.5 395 c 128,-1,30
 105 399 105 399 65 400 c 1,31,-1
 65 416 l 1,32,33
 111 420 111 420 225 441 c 1,34,-1
 228 439 l 1,35,-1
 140 117 l 1,36,-1
 139 115 l 1,37,-1
 139 113 l 1,38,39
 138 110 138 110 137 106 c 128,-1,40
 136 102 136 102 135 99 c 128,-1,41
 134 96 134 96 134 95 c 0,42,43
 124 68 124 68 124 51 c 0,44,45
 124 46 124 46 129 41 c 128,-1,46
 134 36 134 36 140 36 c 0,0,1
214 654 m 128,-1,48
 234 654 234 654 249 637.5 c 128,-1,49
 264 621 264 621 264 599 c 0,50,51
 264 578 264 578 249.5 563 c 128,-1,52
 235 548 235 548 215 548 c 0,53,54
 193 548 193 548 180 562.5 c 128,-1,55
 167 577 167 577 167 601 c 0,56,57
 167 624 167 624 180.5 639 c 128,-1,47
 194 654 194 654 214 654 c 128,-1,48
EndSplineSet
MultipleSubs2: "Multiple Substitution lookup 0 subtable" dotlessi ogonekcmb
EndChar

StartChar: dotlessi
Encoding: 305 305 240
Width: 278
GlyphClass: 2
Flags: W
AnchorPoint: "Anchor-4" 189 443 basechar 0
AnchorPoint: "Anchor-3" 102 0 basechar 0
AnchorPoint: "Anchor-2" 95 0 basechar 0
LayerCount: 2
Fore
SplineSet
140 36 m 0,0,1
 163 36 163 36 222 114 c 1,2,-1
 235 103 l 1,3,4
 192 40 192 40 161 14.5 c 128,-1,5
 130 -11 130 -11 95 -11 c 0,6,7
 49 -11 49 -11 49 46 c 0,8,9
 49 75 49 75 71 155 c 2,10,-1
 119 332 l 2,11,12
 128 362 128 362 128 376 c 0,13,14
 128 391 128 391 116.5 395 c 128,-1,15
 105 399 105 399 65 400 c 1,16,-1
 65 416 l 1,17,18
 111 420 111 420 225 441 c 1,19,-1
 228 439 l 1,20,-1
 140 117 l 2,21,22
 124 58 124 58 124 51 c 0,23,24
 124 46 124 46 129 41 c 128,-1,25
 134 36 134 36 140 36 c 0,0,1
EndSplineSet
EndChar

StartChar: ij
Encoding: 307 307 242
Width: 452
GlyphClass: 3
Flags: W
LayerCount: 2
Fore
SplineSet
190 652 m 0,0,1
 209 652 209 652 223.5 637 c 128,-1,2
 238 622 238 622 238 603 c 0,3,4
 238 583 238 583 223.5 568.5 c 128,-1,5
 209 554 209 554 189 554 c 128,-1,6
 169 554 169 554 154.5 568.5 c 128,-1,7
 140 583 140 583 140 604 c 0,8,9
 140 624 140 624 154.5 638 c 128,-1,10
 169 652 169 652 190 652 c 0,0,1
440 652 m 0,11,12
 459 652 459 652 473.5 637 c 128,-1,13
 488 622 488 622 488 603 c 0,14,15
 488 583 488 583 473.5 568.5 c 128,-1,16
 459 554 459 554 439 554 c 128,-1,17
 419 554 419 554 404.5 568.5 c 128,-1,18
 390 583 390 583 390 604 c 0,19,20
 390 624 390 624 404.5 638 c 128,-1,21
 419 652 419 652 440 652 c 0,11,12
463 439 m 1,22,-1
 359 28 l 2,23,24
 350 -7 350 -7 341.5 -33.5 c 128,-1,25
 333 -60 333 -60 316.5 -94.5 c 128,-1,26
 300 -129 300 -129 281.5 -152 c 128,-1,27
 263 -175 263 -175 234 -191 c 128,-1,28
 205 -207 205 -207 171 -207 c 0,29,30
 138 -207 138 -207 115.5 -190.5 c 128,-1,31
 93 -174 93 -174 93 -143 c 0,32,33
 93 -128 93 -128 106 -116 c 128,-1,34
 119 -104 119 -104 134 -104 c 0,35,36
 150 -104 150 -104 162 -114.5 c 128,-1,37
 174 -125 174 -125 174 -140 c 0,38,39
 174 -150 174 -150 167.5 -159 c 128,-1,40
 161 -168 161 -168 161 -173 c 0,41,42
 161 -184 161 -184 181 -184 c 0,43,44
 234 -184 234 -184 274 -13 c 0,45,46
 275 -6 275 -6 276 -3 c 2,47,-1
 339 250 l 1,48,49
 335 244 335 244 316.5 212.5 c 128,-1,50
 298 181 298 181 287 164 c 128,-1,51
 276 147 276 147 255.5 116 c 128,-1,52
 235 85 235 85 218 66.5 c 128,-1,53
 201 48 201 48 179.5 28 c 128,-1,54
 158 8 158 8 136 -1.5 c 128,-1,55
 114 -11 114 -11 93 -11 c 0,56,57
 38 -11 38 -11 38 48 c 0,58,59
 38 89 38 89 76 213.5 c 128,-1,60
 114 338 114 338 114 371 c 0,61,62
 114 400 114 400 72 400 c 2,63,-1
 54 400 l 1,64,-1
 54 414 l 1,65,66
 132 423 132 423 204 441 c 1,67,-1
 207 439 l 1,68,69
 205 431 205 431 194 387.5 c 128,-1,70
 183 344 183 344 170.5 295.5 c 128,-1,71
 158 247 158 247 145 195.5 c 128,-1,72
 132 144 132 144 123.5 108 c 128,-1,73
 115 72 115 72 115 67 c 0,74,75
 115 42 115 42 137 42 c 0,76,77
 168 42 168 42 224 112 c 128,-1,78
 280 182 280 182 322.5 263 c 128,-1,79
 365 344 365 344 365 378 c 0,80,81
 365 401 365 401 315 401 c 0,82,83
 309 401 309 401 300.5 400.5 c 128,-1,84
 292 400 292 400 290 400 c 1,85,-1
 290 416 l 1,86,87
 333 418 333 418 460 441 c 1,88,-1
 463 439 l 1,22,-1
EndSplineSet
Ligature2: "'liga' Standard Ligatures in Latin lookup 15 subtable" i j
EndChar

StartChar: kgreenlandic
Encoding: 312 312 247
Width: 454
GlyphClass: 2
Flags: W
LayerCount: 2
Fore
SplineSet
466 412 m 1,0,1
 446 411 446 411 422 400 c 128,-1,2
 398 389 398 389 369.5 367.5 c 128,-1,3
 341 346 341 346 323 331 c 128,-1,4
 305 316 305 316 275 289 c 128,-1,5
 245 262 245 262 241 258 c 1,6,7
 242 256 242 256 249 238 c 128,-1,8
 256 220 256 220 263 203 c 128,-1,9
 270 186 270 186 280 161.5 c 128,-1,10
 290 137 290 137 300 117.5 c 128,-1,11
 310 98 310 98 320.5 80 c 128,-1,12
 331 62 331 62 340.5 51.5 c 128,-1,13
 350 41 350 41 358 41 c 128,-1,14
 366 41 366 41 373.5 45.5 c 128,-1,15
 381 50 381 50 388 59.5 c 128,-1,16
 395 69 395 69 400 76 c 128,-1,17
 405 83 405 83 411 94.5 c 128,-1,18
 417 106 417 106 419 109 c 1,19,-1
 434 98 l 1,20,21
 422 74 422 74 414.5 62 c 128,-1,22
 407 50 407 50 392 29.5 c 128,-1,23
 377 9 377 9 359.5 -1 c 128,-1,24
 342 -11 342 -11 323 -11 c 0,25,26
 302 -11 302 -11 279.5 15.5 c 128,-1,27
 257 42 257 42 237 83.5 c 128,-1,28
 217 125 217 125 205.5 154.5 c 128,-1,29
 194 184 194 184 184 212 c 1,30,-1
 142 180 l 1,31,-1
 94 0 l 1,32,-1
 19 0 l 1,33,-1
 104 324 l 1,34,35
 119 375 119 375 119 387 c 0,36,37
 119 412 119 412 67 412 c 0,38,39
 60 412 60 412 51 412 c 1,40,-1
 51 428 l 1,41,42
 132 437 132 437 207 455 c 1,43,-1
 212 450 l 1,44,-1
 153 225 l 1,45,-1
 155 223 l 1,46,47
 157 225 157 225 169 234 c 128,-1,48
 181 243 181 243 190.5 250.5 c 128,-1,49
 200 258 200 258 216 270.5 c 128,-1,50
 232 283 232 283 244.5 293.5 c 128,-1,51
 257 304 257 304 272 316.5 c 128,-1,52
 287 329 287 329 298 340 c 128,-1,53
 309 351 309 351 318.5 361 c 128,-1,54
 328 371 328 371 333 379.5 c 128,-1,55
 338 388 338 388 338 393 c 0,56,57
 338 412 338 412 295 412 c 0,58,59
 292 412 292 412 288 412 c 128,-1,60
 284 412 284 412 283 412 c 1,61,-1
 283 428 l 1,62,-1
 466 428 l 1,63,-1
 466 412 l 1,0,1
EndSplineSet
EndChar

StartChar: Lcaron
Encoding: 317 317 252
Width: 568
GlyphClass: 2
Flags: W
LayerCount: 2
Fore
SplineSet
436 461 m 1,0,-1
 401 461 l 1,1,-1
 499 631 l 2,2,3
 518 665 518 665 547 665 c 0,4,5
 561 665 561 665 570 657 c 0,6,7
 579 649 579 649 579 634 c 0,8,9
 579 617 579 617 558 594 c 2,10,-1
 436 461 l 1,0,-1
EndSplineSet
Refer: 44 76 N 1 0 0 1 0 0 0
EndChar

StartChar: lcaron
Encoding: 318 318 253
Width: 377
GlyphClass: 2
Flags: W
LayerCount: 2
Fore
SplineSet
309 461 m 1,0,-1
 274 461 l 1,1,-1
 372 631 l 2,2,3
 391 665 391 665 420 665 c 0,4,5
 434 665 434 665 443 657 c 0,6,7
 452 649 452 649 452 634 c 0,8,9
 452 617 452 617 431 594 c 2,10,-1
 309 461 l 1,0,-1
EndSplineSet
Refer: 76 108 N 1 0 0 1 0 0 0
EndChar

StartChar: Lslash
Encoding: 321 321 256
Width: 564
GlyphClass: 2
Flags: W
LayerCount: 2
Fore
SplineSet
281 36 m 0,0,1
 400 36 400 36 450.5 63.5 c 128,-1,2
 501 91 501 91 547 185 c 1,3,-1
 567 179 l 1,4,-1
 509 0 l 1,5,-1
 0 0 l 1,6,-1
 0 16 l 1,7,8
 43 24 43 24 56 35.5 c 128,-1,9
 69 47 69 47 81 90 c 2,10,-1
 135 284 l 1,11,-1
 36 225 l 1,12,-1
 49 273 l 1,13,-1
 148 332 l 1,14,-1
 204 532 l 2,15,16
 215 571 215 571 215 594 c 0,17,18
 215 616 215 616 200 624 c 128,-1,19
 185 632 185 632 138 637 c 1,20,-1
 138 653 l 1,21,-1
 411 653 l 1,22,-1
 411 637 l 1,23,24
 366 634 366 634 343 617.5 c 128,-1,25
 320 601 320 601 310 563 c 2,26,-1
 261 388 l 1,27,-1
 404 473 l 1,28,-1
 390 424 l 1,29,-1
 248 341 l 1,30,-1
 214 218 l 1,31,32
 176 87 176 87 176 70 c 0,33,34
 176 51 176 51 198.5 43.5 c 128,-1,35
 221 36 221 36 281 36 c 0,0,1
EndSplineSet
EndChar

StartChar: lslash
Encoding: 322 322 257
Width: 278
GlyphClass: 2
Flags: W
LayerCount: 2
Fore
SplineSet
133 32 m 0,0,1
 144 32 144 32 159.5 44 c 128,-1,2
 175 56 175 56 185.5 68 c 128,-1,3
 196 80 196 80 211 100 c 128,-1,4
 226 120 226 120 228 123 c 1,5,-1
 241 114 l 1,6,7
 192 42 192 42 160.5 15.5 c 128,-1,8
 129 -11 129 -11 90 -11 c 0,9,10
 41 -11 41 -11 41 45 c 0,11,12
 41 63 41 63 51.5 104.5 c 128,-1,13
 62 146 62 146 82.5 218 c 128,-1,14
 103 290 103 290 109 314 c 1,15,-1
 37 278 l 1,16,-1
 49 324 l 1,17,-1
 121 360 l 1,18,19
 186 604 186 604 186 616 c 0,20,21
 186 640 186 640 118 640 c 1,22,-1
 118 656 l 1,23,24
 190 665 190 665 274 683 c 1,25,-1
 279 678 l 1,26,-1
 209 410 l 1,27,-1
 307 460 l 1,28,-1
 295 414 l 1,29,-1
 197 364 l 1,30,-1
 128 99 l 1,31,-1
 128 97 l 1,32,33
 126 95 126 95 126 89 c 1,34,35
 118 59 118 59 118 50 c 0,36,37
 118 32 118 32 133 32 c 0,0,1
EndSplineSet
EndChar

StartChar: Eng
Encoding: 330 330 265
Width: 696
GlyphClass: 2
Flags: W
LayerCount: 2
Fore
SplineSet
437 24 m 0,0,1
 479 24 479 24 517.5 81 c 128,-1,2
 556 138 556 138 579.5 217 c 128,-1,3
 603 296 603 296 617 371 c 128,-1,4
 631 446 631 446 631 489 c 0,5,6
 631 566 631 566 614.5 592 c 128,-1,7
 598 618 598 618 559 618 c 0,8,9
 513 618 513 618 438.5 580.5 c 128,-1,10
 364 543 364 543 298 465 c 1,11,-1
 196 98 l 2,12,13
 190 78 190 78 190 65 c 0,14,15
 190 43 190 43 207 33 c 128,-1,16
 224 23 224 23 265 19 c 1,17,-1
 265 0 l 1,18,-1
 -8 0 l 1,19,-1
 -8 19 l 1,20,21
 48 23 48 23 68.5 44.5 c 128,-1,22
 89 66 89 66 107 131 c 2,23,-1
 208 493 l 2,24,25
 215 519 215 519 215 546 c 0,26,27
 215 569 215 569 204.5 578 c 128,-1,28
 194 587 194 587 172 587 c 0,29,30
 145 587 145 587 130 581 c 1,31,-1
 130 606 l 1,32,33
 243 636 243 636 340 669 c 1,34,-1
 350 666 l 1,35,-1
 306 510 l 1,36,37
 442 667 442 667 586 667 c 0,38,39
 657 667 657 667 697.5 635.5 c 128,-1,40
 738 604 738 604 738 513 c 0,41,42
 738 484 738 484 733 443.5 c 128,-1,43
 728 403 728 403 715.5 352 c 128,-1,44
 703 301 703 301 685.5 250.5 c 128,-1,45
 668 200 668 200 640 151 c 128,-1,46
 612 102 612 102 578 65 c 128,-1,47
 544 28 544 28 497 5 c 128,-1,48
 450 -18 450 -18 397 -18 c 0,49,50
 360 -18 360 -18 338 -0.5 c 128,-1,51
 316 17 316 17 316 42 c 0,52,53
 316 68 316 68 336.5 88 c 128,-1,54
 357 108 357 108 381 108 c 0,55,56
 402 108 402 108 410.5 95 c 128,-1,57
 419 82 419 82 418.5 66 c 128,-1,58
 418 50 418 50 421.5 37 c 128,-1,59
 425 24 425 24 437 24 c 0,0,1
EndSplineSet
Substitution2: "'locl' Localized Forms in Latin lookup 16 subtable" Engsami
EndChar

StartChar: eng
Encoding: 331 331 266
Width: 500
GlyphClass: 2
Flags: W
AnchorPoint: "Anchor-4" 316 443 basechar 0
AnchorPoint: "Anchor-1" 244 233 basechar 0
AnchorPoint: "Anchor-0" 370 442 basechar 0
LayerCount: 2
Fore
SplineSet
433 323 m 2,0,-1
 352 28 l 2,1,2
 317 -99 317 -99 274 -153 c 128,-1,3
 231 -207 231 -207 165 -207 c 0,4,5
 131 -207 131 -207 108.5 -189.5 c 128,-1,6
 86 -172 86 -172 86 -146 c 0,7,8
 86 -128 86 -128 97.5 -116 c 128,-1,9
 109 -104 109 -104 126 -104 c 128,-1,10
 143 -104 143 -104 155 -114.5 c 128,-1,11
 167 -125 167 -125 167 -141 c 0,12,13
 167 -152 167 -152 160.5 -160 c 128,-1,14
 154 -168 154 -168 154 -173 c 0,15,16
 154 -184 154 -184 172 -184 c 0,17,18
 201 -184 201 -184 221 -144.5 c 128,-1,19
 241 -105 241 -105 269 -3 c 2,20,-1
 347 285 l 2,21,22
 361 337 361 337 361 361 c 0,23,24
 361 390 361 390 337 390 c 0,25,26
 282 390 282 390 189 248 c 0,27,28
 156 197 156 197 140 157.5 c 128,-1,29
 124 118 124 118 89 0 c 1,30,-1
 14 0 l 1,31,-1
 110 350 l 2,32,33
 112 360 112 360 112 367 c 0,34,35
 112 382 112 382 99 387.5 c 128,-1,36
 86 393 86 393 48 394 c 1,37,-1
 48 410 l 1,38,39
 149 429 149 429 210 441 c 1,40,-1
 213 439 l 1,41,-1
 146 221 l 1,42,43
 223 341 223 341 275.5 391 c 128,-1,44
 328 441 328 441 376 441 c 0,45,46
 405 441 405 441 423.5 424 c 128,-1,47
 442 407 442 407 442 380 c 0,48,49
 442 356 442 356 433 323 c 2,0,-1
EndSplineSet
EndChar

StartChar: OE
Encoding: 338 338 273
Width: 891
GlyphClass: 2
Flags: W
LayerCount: 2
Fore
SplineSet
431 666 m 0,0,1
 460 666 460 666 515.5 659.5 c 128,-1,2
 571 653 571 653 583 653 c 2,3,-1
 952 653 l 1,4,-1
 921 503 l 1,5,-1
 905 503 l 1,6,7
 905 576 905 576 885 598 c 128,-1,8
 865 620 865 620 785 620 c 2,9,-1
 689 620 l 2,10,11
 661 620 661 620 652 588 c 2,12,-1
 588 361 l 1,13,-1
 600 361 l 2,14,15
 641 361 641 361 663 361.5 c 128,-1,16
 685 362 685 362 707 366 c 128,-1,17
 729 370 729 370 739 374.5 c 128,-1,18
 749 379 749 379 761 391.5 c 128,-1,19
 773 404 773 404 779.5 417.5 c 128,-1,20
 786 431 786 431 798 456 c 1,21,-1
 816 452 l 1,22,-1
 750 222 l 1,23,-1
 730 224 l 1,24,25
 731 232 731 232 732.5 240 c 128,-1,26
 734 248 734 248 735 253 c 128,-1,27
 736 258 736 258 736 266 c 0,28,29
 736 301 736 301 718.5 312 c 128,-1,30
 701 323 701 323 641 325 c 2,31,-1
 579 328 l 1,32,-1
 527 138 l 1,33,-1
 524 124 l 1,34,35
 520 111 520 111 516 94 c 128,-1,36
 512 77 512 77 512 69 c 0,37,38
 512 49 512 49 528 41 c 128,-1,39
 544 33 544 33 587 33 c 0,40,41
 696 33 696 33 753.5 61 c 128,-1,42
 811 89 811 89 871 172 c 1,43,-1
 887 166 l 1,44,-1
 822 0 l 1,45,-1
 476 0 l 2,46,47
 433 0 433 0 363 -4 c 128,-1,48
 293 -8 293 -8 264 -8 c 0,49,50
 167 -8 167 -8 102 58.5 c 128,-1,51
 37 125 37 125 37 225 c 0,52,53
 37 339 37 339 92 441 c 128,-1,54
 147 543 147 543 238 604.5 c 128,-1,55
 329 666 329 666 431 666 c 0,0,1
436 634 m 0,56,57
 373 634 373 634 317 593 c 128,-1,58
 261 552 261 552 224.5 488 c 128,-1,59
 188 424 188 424 166.5 348.5 c 128,-1,60
 145 273 145 273 145 202 c 0,61,62
 145 24 145 24 289 24 c 0,63,64
 356 24 356 24 387.5 62.5 c 128,-1,65
 419 101 419 101 446 199 c 2,66,-1
 519 467 l 2,67,68
 539 540 539 540 539 555 c 0,69,70
 539 590 539 590 510 612 c 128,-1,71
 481 634 481 634 436 634 c 0,56,57
EndSplineSet
EndChar

StartChar: oe
Encoding: 339 339 274
Width: 653
GlyphClass: 2
Flags: W
LayerCount: 2
Fore
SplineSet
598 105 m 1,0,-1
 609 94 l 1,1,2
 503 -12 503 -12 412 -12 c 0,3,4
 344 -12 344 -12 308 56 c 1,5,6
 270 19 270 19 239 4 c 128,-1,7
 208 -11 208 -11 170 -11 c 0,8,9
 107 -11 107 -11 66 30.5 c 128,-1,10
 25 72 25 72 25 135 c 0,11,12
 25 205 25 205 66 277 c 128,-1,13
 107 349 107 349 171.5 395 c 128,-1,14
 236 441 236 441 299 441 c 0,15,16
 339 441 339 441 368.5 419.5 c 128,-1,17
 398 398 398 398 411 361 c 1,18,19
 462 407 462 407 495.5 424 c 128,-1,20
 529 441 529 441 570 441 c 0,21,22
 608 441 608 441 629.5 423 c 128,-1,23
 651 405 651 405 651 373 c 0,24,25
 651 335 651 335 623 302 c 128,-1,26
 595 269 595 269 555.5 249 c 128,-1,27
 516 229 516 229 481 217 c 128,-1,28
 446 205 446 205 424 203 c 0,29,30
 393 200 393 200 388 185 c 0,31,32
 378 153 378 153 378 114 c 0,33,34
 378 77 378 77 399 53.5 c 128,-1,35
 420 30 420 30 453 30 c 0,36,37
 482 30 482 30 511 45 c 128,-1,38
 540 60 540 60 598 105 c 1,0,-1
175 9 m 0,39,40
 216 9 216 9 251.5 53.5 c 128,-1,41
 287 98 287 98 306.5 159 c 128,-1,42
 326 220 326 220 337 273 c 128,-1,43
 348 326 348 326 348 352 c 0,44,45
 348 382 348 382 332 400 c 128,-1,46
 316 418 316 418 289 418 c 0,47,48
 244 418 244 418 201 365.5 c 128,-1,49
 158 313 158 313 133 239 c 128,-1,50
 108 165 108 165 108 100 c 0,51,52
 108 58 108 58 126 33.5 c 128,-1,53
 144 9 144 9 175 9 c 0,39,40
397 215 m 1,54,55
 460 235 460 235 478.5 242.5 c 128,-1,56
 497 250 497 250 516 264 c 0,57,58
 585 315 585 315 585 377 c 0,59,60
 585 416 585 416 551 416 c 0,61,62
 539 416 539 416 524.5 409.5 c 128,-1,63
 510 403 510 403 487.5 384.5 c 128,-1,64
 465 366 465 366 441 322.5 c 128,-1,65
 417 279 417 279 397 215 c 1,54,55
EndSplineSet
EndChar

StartChar: Scedilla
Encoding: 350 350 285
Width: 464
GlyphClass: 2
Flags: W
LayerCount: 2
Fore
SplineSet
302 666 m 0,0,1
 343 666 343 666 383.5 653.5 c 128,-1,2
 424 641 424 641 433 641 c 0,3,4
 450 641 450 641 459 646 c 128,-1,5
 468 651 468 651 478 667 c 1,6,-1
 501 667 l 1,7,-1
 461 468 l 1,8,-1
 443 471 l 1,9,10
 440 550 440 550 415.5 591.5 c 128,-1,11
 391 633 391 633 322 633 c 0,12,13
 271 633 271 633 241.5 605.5 c 128,-1,14
 212 578 212 578 212 531 c 0,15,16
 212 494 212 494 228 469.5 c 128,-1,17
 244 445 244 445 311 377 c 0,18,19
 379 309 379 309 401.5 270 c 128,-1,20
 424 231 424 231 424 182 c 0,21,22
 424 97 424 97 366 39.5 c 128,-1,23
 308 -18 308 -18 222 -18 c 0,24,25
 212 -18 212 -18 186 -15 c 1,26,-1
 152 -66 l 1,27,28
 167 -63 167 -63 177 -63 c 0,29,30
 214 -63 214 -63 236.5 -81.5 c 128,-1,31
 259 -100 259 -100 259 -131 c 0,32,33
 259 -168 259 -168 225.5 -192.5 c 128,-1,34
 192 -217 192 -217 140 -217 c 0,35,36
 102 -217 102 -217 47 -196 c 1,37,-1
 64 -167 l 1,38,39
 104 -182 104 -182 132 -182 c 0,40,41
 185 -182 185 -182 185 -141 c 0,42,43
 185 -122 185 -122 172 -109.5 c 128,-1,44
 159 -97 159 -97 139 -97 c 0,45,46
 125 -97 125 -97 107 -104 c 1,47,-1
 98 -96 l 1,48,-1
 153 -7 l 1,49,50
 78 18 78 18 66 18 c 0,51,52
 38 18 38 18 28 -15 c 1,53,-1
 10 -15 l 1,54,-1
 44 208 l 1,55,-1
 64 206 l 1,56,57
 62 192 62 192 62 183 c 0,58,59
 62 112 62 112 104 64.5 c 128,-1,60
 146 17 146 17 208 17 c 0,61,62
 263 17 263 17 300 55.5 c 128,-1,63
 337 94 337 94 337 150 c 0,64,65
 337 186 337 186 315 221.5 c 128,-1,66
 293 257 293 257 261.5 287.5 c 128,-1,67
 230 318 230 318 199 349 c 128,-1,68
 168 380 168 380 146 419 c 128,-1,69
 124 458 124 458 124 499 c 0,70,71
 124 572 124 572 174 619 c 128,-1,72
 224 666 224 666 302 666 c 0,0,1
EndSplineSet
EndChar

StartChar: scedilla
Encoding: 351 351 286
Width: 345
GlyphClass: 2
Flags: W
LayerCount: 2
Fore
SplineSet
166 364 m 0,0,1
 166 340 166 340 185 308 c 128,-1,2
 204 276 204 276 227 249.5 c 128,-1,3
 250 223 250 223 269 187 c 128,-1,4
 288 151 288 151 288 119 c 0,5,6
 288 62 288 62 247.5 25.5 c 128,-1,7
 207 -11 207 -11 143 -11 c 0,8,9
 133 -11 133 -11 125 -10 c 1,10,-1
 87 -66 l 1,11,12
 102 -63 102 -63 112 -63 c 0,13,14
 149 -63 149 -63 171.5 -81.5 c 128,-1,15
 194 -100 194 -100 194 -131 c 0,16,17
 194 -168 194 -168 160.5 -192.5 c 128,-1,18
 127 -217 127 -217 75 -217 c 0,19,20
 37 -217 37 -217 -18 -196 c 1,21,-1
 -1 -167 l 1,22,23
 40 -182 40 -182 67 -182 c 0,24,25
 120 -182 120 -182 120 -141 c 0,26,27
 120 -122 120 -122 107 -109.5 c 128,-1,28
 94 -97 94 -97 74 -97 c 0,29,30
 62 -97 62 -97 42 -104 c 1,31,-1
 33 -96 l 1,32,-1
 92 -2 l 1,33,34
 55 8 55 8 40 8 c 0,35,36
 26 8 26 8 16 -13 c 1,37,-1
 0 -13 l 1,38,-1
 20 146 l 1,39,-1
 36 146 l 1,40,41
 48 75 48 75 72.5 42.5 c 128,-1,42
 97 10 97 10 138 10 c 0,43,44
 171 10 171 10 191.5 31.5 c 128,-1,45
 212 53 212 53 212 87 c 0,46,47
 212 116 212 116 193.5 149 c 128,-1,48
 175 182 175 182 152.5 206.5 c 128,-1,49
 130 231 130 231 111.5 265 c 128,-1,50
 93 299 93 299 93 331 c 0,51,52
 93 381 93 381 126 411 c 128,-1,53
 159 441 159 441 214 441 c 0,54,55
 234 441 234 441 265.5 432.5 c 128,-1,56
 297 424 297 424 306 424 c 0,57,58
 326 424 326 424 336 442 c 1,59,-1
 350 442 l 1,60,-1
 330 303 l 1,61,-1
 314 303 l 1,62,63
 299 418 299 418 222 418 c 0,64,65
 196 418 196 418 181 403.5 c 128,-1,66
 166 389 166 389 166 364 c 0,0,1
EndSplineSet
EndChar

StartChar: Tcedilla
Encoding: 354 354 289
Width: 556
GlyphClass: 2
Flags: W
LayerCount: 2
Fore
SplineSet
189 0 m 1,0,-1
 65 0 l 1,1,-1
 65 16 l 1,2,3
 115 20 115 20 137 35 c 128,-1,4
 159 50 159 50 171 90 c 1,5,-1
 315 618 l 1,6,-1
 294 618 l 2,7,8
 193 618 193 618 154 595.5 c 128,-1,9
 115 573 115 573 77 495 c 1,10,-1
 59 499 l 1,11,-1
 101 653 l 1,12,-1
 633 653 l 1,13,-1
 589 490 l 1,14,-1
 572 492 l 1,15,16
 575 518 575 518 575 537 c 0,17,18
 575 579 575 579 550 598.5 c 128,-1,19
 525 618 525 618 471 618 c 2,20,-1
 416 618 l 1,21,-1
 277 120 l 2,22,23
 265 75 265 75 265 61 c 0,24,25
 265 39 265 39 276 30 c 128,-1,26
 287 21 287 21 317 19 c 0,27,28
 320 19 320 19 333 18 c 128,-1,29
 346 17 346 17 355 16 c 1,30,-1
 355 0 l 1,31,-1
 227 0 l 1,32,-1
 183 -66 l 1,33,34
 198 -63 198 -63 208 -63 c 0,35,36
 245 -63 245 -63 267.5 -81.5 c 128,-1,37
 290 -100 290 -100 290 -131 c 0,38,39
 290 -168 290 -168 256.5 -192.5 c 128,-1,40
 223 -217 223 -217 171 -217 c 0,41,42
 133 -217 133 -217 78 -196 c 1,43,-1
 95 -167 l 1,44,45
 136 -182 136 -182 163 -182 c 0,46,47
 216 -182 216 -182 216 -141 c 0,48,49
 216 -122 216 -122 203 -109.5 c 128,-1,50
 190 -97 190 -97 170 -97 c 0,51,52
 158 -97 158 -97 138 -104 c 1,53,-1
 129 -96 l 1,54,-1
 189 0 l 1,0,-1
EndSplineSet
EndChar

StartChar: tcedilla
Encoding: 355 355 290
Width: 238
GlyphClass: 2
Flags: W
LayerCount: 2
Fore
SplineSet
94 -10 m 1,0,-1
 50 -77 l 1,1,2
 65 -74 65 -74 75 -74 c 0,3,4
 112 -74 112 -74 134.5 -92.5 c 128,-1,5
 157 -111 157 -111 157 -142 c 0,6,7
 157 -179 157 -179 123.5 -203.5 c 128,-1,8
 90 -228 90 -228 38 -228 c 0,9,10
 0 -228 0 -228 -55 -207 c 1,11,-1
 -38 -178 l 1,12,13
 3 -193 3 -193 30 -193 c 0,14,15
 83 -193 83 -193 83 -152 c 0,16,17
 83 -133 83 -133 70 -120.5 c 128,-1,18
 57 -108 57 -108 37 -108 c 0,19,20
 25 -108 25 -108 5 -115 c 1,21,-1
 -4 -107 l 1,22,-1
 58 -9 l 1,23,24
 26 -1 26 -1 26 27 c 0,25,26
 26 35 26 35 31 55 c 128,-1,27
 36 75 36 75 42 96 c 128,-1,28
 48 117 48 117 49 121 c 2,29,-1
 121 396 l 1,30,-1
 47 396 l 1,31,32
 46 399 46 399 46 402 c 0,33,34
 46 417 46 417 78 427 c 1,35,36
 108 435 108 435 141.5 465 c 128,-1,37
 175 495 175 495 197.5 520.5 c 128,-1,38
 220 546 220 546 226 546 c 0,39,40
 234 546 234 546 234 536 c 0,41,42
 234 533 234 533 233 531 c 2,43,-1
 205 428 l 1,44,-1
 285 428 l 1,45,-1
 280 396 l 1,46,-1
 196 396 l 1,47,-1
 108 63 l 2,48,49
 107 60 107 60 107 58 c 0,50,51
 107 38 107 38 122 38 c 0,52,53
 134 38 134 38 150 53.5 c 128,-1,54
 166 69 166 69 203 117 c 1,55,-1
 216 110 l 1,56,57
 176 51 176 51 148.5 24 c 128,-1,58
 121 -3 121 -3 94 -10 c 1,0,-1
EndSplineSet
EndChar

StartChar: tcaron
Encoding: 357 357 292
Width: 364
GlyphClass: 2
Flags: W
LayerCount: 2
Fore
SplineSet
296 461 m 1,0,-1
 261 461 l 1,1,-1
 359 631 l 2,2,3
 378 665 378 665 407 665 c 0,4,5
 421 665 421 665 430 657 c 0,6,7
 439 649 439 649 439 634 c 0,8,9
 439 617 439 617 418 594 c 2,10,-1
 296 461 l 1,0,-1
EndSplineSet
Refer: 84 116 N 1 0 0 1 0 0 2
EndChar

StartChar: Tbar
Encoding: 358 358 293
Width: 556
GlyphClass: 2
Flags: W
LayerCount: 2
Fore
SplineSet
101 653 m 1,0,-1
 633 653 l 1,1,-1
 589 490 l 1,2,-1
 572 492 l 1,3,4
 575 518 575 518 575 537 c 0,5,6
 575 579 575 579 550 598.5 c 128,-1,7
 525 618 525 618 471 618 c 2,8,-1
 416 618 l 1,9,-1
 345 362 l 1,10,-1
 443 362 l 1,11,-1
 432 311 l 1,12,-1
 330 311 l 1,13,-1
 277 120 l 2,14,15
 265 75 265 75 265 61 c 0,16,17
 265 39 265 39 276 30 c 128,-1,18
 287 21 287 21 317 19 c 0,19,20
 320 19 320 19 333 18 c 128,-1,21
 346 17 346 17 355 16 c 1,22,-1
 355 0 l 1,23,-1
 65 0 l 1,24,-1
 65 16 l 1,25,26
 115 20 115 20 138 35.5 c 128,-1,27
 161 51 161 51 171 90 c 2,28,-1
 231 311 l 1,29,-1
 131 311 l 1,30,-1
 142 362 l 1,31,-1
 245 362 l 1,32,-1
 315 618 l 1,33,-1
 294 618 l 2,34,35
 193 618 193 618 154 595.5 c 128,-1,36
 115 573 115 573 77 495 c 1,37,-1
 59 499 l 1,38,-1
 101 653 l 1,0,-1
EndSplineSet
EndChar

StartChar: tbar
Encoding: 359 359 294
Width: 248
GlyphClass: 2
Flags: W
LayerCount: 2
Fore
SplineSet
216 428 m 1,0,-1
 296 428 l 1,1,-1
 291 396 l 1,2,-1
 207 396 l 1,3,-1
 179 290 l 1,4,-1
 270 290 l 1,5,-1
 258 239 l 1,6,-1
 166 239 l 1,7,-1
 119 63 l 2,8,9
 118 60 118 60 118 58 c 0,10,11
 118 38 118 38 133 38 c 0,12,13
 145 38 145 38 161 53.5 c 128,-1,14
 177 69 177 69 214 117 c 1,15,-1
 227 110 l 1,16,17
 180 40 180 40 150 14.5 c 128,-1,18
 120 -11 120 -11 85 -11 c 0,19,20
 65 -11 65 -11 51 0 c 128,-1,21
 37 11 37 11 37 27 c 0,22,23
 37 35 37 35 42 55 c 128,-1,24
 47 75 47 75 53 96.5 c 128,-1,25
 59 118 59 118 60 121 c 2,26,-1
 91 239 l 1,27,-1
 13 239 l 1,28,-1
 25 290 l 1,29,-1
 104 290 l 1,30,-1
 132 396 l 1,31,-1
 58 396 l 1,32,33
 57 399 57 399 57 402 c 0,34,35
 57 412 57 412 70 419.5 c 128,-1,36
 83 427 83 427 103 434.5 c 128,-1,37
 123 442 123 442 156.5 468.5 c 128,-1,38
 190 495 190 495 222 537 c 0,39,40
 229 546 229 546 237 546 c 128,-1,41
 245 546 245 546 245 536 c 0,42,43
 245 533 245 533 244 531 c 2,44,-1
 216 428 l 1,0,-1
EndSplineSet
EndChar

StartChar: Uogonek
Encoding: 370 370 305
Width: 698
GlyphClass: 2
Flags: W
AnchorPoint: "Anchor-4" 487 659 basechar 0
LayerCount: 2
Fore
SplineSet
637 591 m 0,0,1
 637 615 637 615 620 624.5 c 128,-1,2
 603 634 603 634 566 637 c 1,3,-1
 566 653 l 1,4,-1
 765 653 l 1,5,-1
 765 637 l 1,6,7
 744 632 744 632 733.5 627.5 c 128,-1,8
 723 623 723 623 713 616.5 c 128,-1,9
 703 610 703 610 695.5 592 c 128,-1,10
 688 574 688 574 681 553 c 128,-1,11
 674 532 674 532 661 488 c 2,12,-1
 578 203 l 2,13,14
 561 148 561 148 515 63.5 c 128,-1,15
 469 -21 469 -21 469 -52 c 0,16,17
 469 -77 469 -77 485 -91.5 c 128,-1,18
 501 -106 501 -106 528 -106 c 0,19,20
 572 -106 572 -106 611 -74 c 1,21,-1
 628 -92 l 1,22,23
 575 -169 575 -169 503 -169 c 0,24,25
 464 -169 464 -169 436 -141 c 128,-1,26
 408 -113 408 -113 408 -75 c 0,27,28
 408 -31 408 -31 443 10 c 1,29,30
 388 -18 388 -18 319 -18 c 0,31,32
 225 -18 225 -18 163.5 28.5 c 128,-1,33
 102 75 102 75 102 147 c 0,34,35
 102 204 102 204 145 359 c 2,36,-1
 198 551 l 1,37,38
 205 581 205 581 205 596 c 0,39,40
 205 618 205 618 191 625.5 c 128,-1,41
 177 633 177 633 127 637 c 1,42,-1
 127 653 l 1,43,-1
 400 653 l 1,44,-1
 400 637 l 1,45,46
 380 635 380 635 365.5 631.5 c 128,-1,47
 351 628 351 628 340.5 620.5 c 128,-1,48
 330 613 330 613 323.5 608.5 c 128,-1,49
 317 604 317 604 311 591 c 128,-1,50
 305 578 305 578 303 573 c 128,-1,51
 301 568 301 568 296 550 c 128,-1,52
 291 532 291 532 290 527 c 0,53,54
 192 189 192 189 192 141 c 0,55,56
 192 89 192 89 231 56 c 128,-1,57
 270 23 270 23 332 23 c 0,58,59
 375 23 375 23 411 40.5 c 128,-1,60
 447 58 447 58 468.5 81 c 128,-1,61
 490 104 490 104 508.5 141.5 c 128,-1,62
 527 179 527 179 535 202.5 c 128,-1,63
 543 226 543 226 552.5 262.5 c 128,-1,64
 562 299 562 299 563 304 c 0,65,66
 637 565 637 565 637 591 c 0,0,1
EndSplineSet
EndChar

StartChar: uogonek
Encoding: 371 371 306
Width: 484
GlyphClass: 2
Flags: W
AnchorPoint: "Anchor-4" 293 443 basechar 0
LayerCount: 2
Fore
SplineSet
107 376 m 128,-1,1
 107 390 107 390 93.5 395 c 128,-1,2
 80 400 80 400 47 400 c 1,3,-1
 47 414 l 1,4,5
 115 422 115 422 197 441 c 1,6,-1
 200 439 l 1,7,-1
 109 76 l 2,8,9
 108 73 108 73 108 67 c 0,10,11
 108 42 108 42 129 42 c 0,12,13
 178 42 178 42 270 188 c 0,14,15
 304 242 304 242 320.5 278.5 c 128,-1,16
 337 315 337 315 380 432 c 1,17,-1
 454 432 l 1,18,-1
 375 133 l 2,19,20
 356 61 356 61 356 55 c 0,21,22
 356 38 356 38 367 38 c 0,23,24
 379 38 379 38 395 53 c 128,-1,25
 411 68 411 68 450 117 c 1,26,-1
 464 108 l 1,27,28
 426 54 426 54 407.5 33 c 128,-1,29
 389 12 389 12 369 1 c 0,30,31
 345 -12 345 -12 337.5 -22 c 128,-1,32
 330 -32 330 -32 330 -51 c 0,33,34
 330 -76 330 -76 346 -91 c 128,-1,35
 362 -106 362 -106 389 -106 c 0,36,37
 433 -106 433 -106 472 -74 c 1,38,-1
 489 -92 l 1,39,40
 437 -169 437 -169 364 -169 c 0,41,42
 325 -169 325 -169 297 -141 c 128,-1,43
 269 -113 269 -113 269 -74 c 0,44,45
 269 -37 269 -37 295 -1 c 1,46,47
 278 13 278 13 278 39 c 0,48,49
 278 70 278 70 323 236 c 1,50,51
 237 92 237 92 187 40.5 c 128,-1,52
 137 -11 137 -11 84 -11 c 128,-1,53
 31 -11 31 -11 31 44 c 0,54,55
 31 68 31 68 56 167 c 2,56,-1
 93 309 l 2,57,0
 107 362 107 362 107 376 c 128,-1,1
EndSplineSet
EndChar

StartChar: longs
Encoding: 383 383 318
Width: 464
GlyphClass: 2
Flags: W
LayerCount: 2
Fore
SplineSet
-1 -143 m 0,0,1
 -1 -151 -1 -151 -5.5 -158.5 c 128,-1,2
 -10 -166 -10 -166 -10 -170 c 0,3,4
 -10 -186 -10 -186 10 -186 c 0,5,6
 74 -186 74 -186 107 -24 c 2,7,-1
 195 396 l 1,8,-1
 105 396 l 1,9,-1
 112 428 l 1,10,-1
 204 428 l 1,11,12
 217 469 217 469 226.5 496 c 128,-1,13
 236 523 236 523 254.5 561 c 128,-1,14
 273 599 273 599 293 622 c 128,-1,15
 313 645 313 645 343 661.5 c 128,-1,16
 373 678 373 678 408 678 c 0,17,18
 445 678 445 678 469.5 659.5 c 128,-1,19
 494 641 494 641 494 613 c 0,20,21
 494 597 494 597 481.5 585 c 128,-1,22
 469 573 469 573 452 573 c 128,-1,23
 435 573 435 573 425 584 c 128,-1,24
 415 595 415 595 415 613 c 0,25,26
 415 622 415 622 420 632 c 128,-1,27
 425 642 425 642 425 644 c 0,28,29
 425 656 425 656 403 656 c 0,30,31
 362 656 362 656 335 603 c 128,-1,32
 308 550 308 550 281 428 c 2,33,-1
 202 76 l 2,34,35
 171 -62 171 -62 120 -134.5 c 128,-1,36
 69 -207 69 -207 2 -207 c 0,37,38
 -31 -207 -31 -207 -54 -189 c 128,-1,39
 -77 -171 -77 -171 -77 -146 c 0,40,41
 -77 -129 -77 -129 -66.5 -117 c 128,-1,42
 -56 -105 -56 -105 -40 -105 c 128,-1,43
 -24 -105 -24 -105 -12.5 -116 c 128,-1,44
 -1 -127 -1 -127 -1 -143 c 0,0,1
EndSplineSet
Substitution2: "'fina' Terminal Forms in Latin lookup 14 subtable" s
EndChar

StartChar: bbar
Encoding: 384 384 319
Width: 479
GlyphClass: 2
Flags: W
LayerCount: 2
Fore
SplineSet
473 320 m 0,0,1
 473 203 473 203 371 96 c 128,-1,2
 269 -11 269 -11 153 -11 c 0,3,4
 127 -11 127 -11 75 5.5 c 128,-1,5
 23 22 23 22 23 42 c 0,6,7
 23 44 23 44 23 46 c 2,8,-1
 148 508 l 1,9,-1
 62 508 l 1,10,-1
 74 550 l 1,11,-1
 160 550 l 1,12,13
 175 607 175 607 175 614 c 0,14,15
 175 643 175 643 129 643 c 0,16,17
 125 643 125 643 119 643 c 128,-1,18
 113 643 113 643 110 643 c 1,19,-1
 110 660 l 1,20,21
 199 670 199 670 263 683 c 1,22,-1
 268 678 l 1,23,-1
 235 550 l 1,24,-1
 318 550 l 1,25,-1
 306 508 l 1,26,-1
 224 508 l 1,27,-1
 166 297 l 1,28,-1
 168 296 l 1,29,30
 259 441 259 441 354 441 c 0,31,32
 408 441 408 441 440.5 407.5 c 128,-1,33
 473 374 473 374 473 320 c 0,0,1
388 307 m 0,34,35
 388 345 388 345 370 368.5 c 128,-1,36
 352 392 352 392 315 392 c 0,37,38
 262 392 262 392 212 324 c 128,-1,39
 162 256 162 256 135.5 176 c 128,-1,40
 109 96 109 96 109 45 c 0,41,42
 109 12 109 12 156 12 c 0,43,44
 213 12 213 12 268.5 63.5 c 128,-1,45
 324 115 324 115 356 183.5 c 128,-1,46
 388 252 388 252 388 307 c 0,34,35
EndSplineSet
EndChar

StartChar: Bhook
Encoding: 385 385 320
Width: 738
GlyphClass: 2
Flags: W
LayerCount: 2
Fore
SplineSet
738 504 m 0,0,1
 738 386 738 386 566 352 c 1,2,-1
 566 350 l 1,3,4
 628 323 628 323 658.5 291 c 128,-1,5
 689 259 689 259 689 199 c 0,6,7
 689 132 689 132 647 85.5 c 128,-1,8
 605 39 605 39 547 19.5 c 128,-1,9
 489 0 489 0 424 0 c 2,10,-1
 142 0 l 1,11,-1
 142 16 l 1,12,13
 184 24 184 24 198 36.5 c 128,-1,14
 212 49 212 49 223 90 c 2,15,-1
 349 544 l 2,16,17
 358 580 358 580 358 593 c 0,18,19
 358 616 358 616 328 616 c 0,20,21
 326 616 326 616 321.5 616 c 128,-1,22
 317 616 317 616 315 616 c 0,23,24
 265 616 265 616 206 586 c 128,-1,25
 147 556 147 556 147 511 c 0,26,27
 147 498 147 498 166.5 477.5 c 128,-1,28
 186 457 186 457 186 442 c 0,29,30
 186 423 186 423 170 406.5 c 128,-1,31
 154 390 154 390 135 390 c 0,32,33
 98 390 98 390 98 442 c 0,34,35
 98 495 98 495 122.5 536.5 c 128,-1,36
 147 578 147 578 187 603 c 128,-1,37
 227 628 227 628 274 640.5 c 128,-1,38
 321 653 321 653 370 653 c 2,39,-1
 538 653 l 2,40,41
 593 653 593 653 635 641 c 128,-1,42
 677 629 677 629 707.5 594 c 128,-1,43
 738 559 738 559 738 504 c 0,0,1
637 519 m 0,44,45
 637 623 637 623 525 623 c 2,46,-1
 520 623 l 2,47,48
 504 623 504 623 495 622 c 128,-1,49
 486 621 486 621 476.5 614.5 c 128,-1,50
 467 608 467 608 463 595 c 2,51,-1
 398 363 l 1,52,-1
 430 362 l 2,53,54
 435 362 435 362 440 362 c 0,55,56
 637 362 637 362 637 519 c 0,44,45
581 208 m 0,57,58
 581 231 581 231 577 249 c 128,-1,59
 573 267 573 267 563 279.5 c 128,-1,60
 553 292 553 292 545 301 c 128,-1,61
 537 310 537 310 518.5 315.5 c 128,-1,62
 500 321 500 321 490.5 324 c 128,-1,63
 481 327 481 327 456.5 328.5 c 128,-1,64
 432 330 432 330 423.5 330.5 c 128,-1,65
 415 331 415 331 388 331 c 1,66,67
 384 315 384 315 366.5 254 c 128,-1,68
 349 193 349 193 335 140 c 128,-1,69
 321 87 321 87 321 75 c 0,70,71
 321 30 321 30 383 30 c 0,72,73
 474 30 474 30 527.5 75 c 128,-1,74
 581 120 581 120 581 208 c 0,57,58
EndSplineSet
EndChar

StartChar: Btopbar
Encoding: 386 386 321
Width: 583
GlyphClass: 2
Flags: W
LayerCount: 2
Fore
SplineSet
546 230 m 0,0,1
 546 127 546 127 455 63.5 c 0,2,3
 364 0 364 0 227 0 c 2,4,-1
 -8 0 l 1,5,-1
 -8 16 l 1,6,7
 35 24 35 24 48 35.5 c 0,8,9
 61 47 61 47 73 90 c 2,10,-1
 196 532 l 2,11,12
 207 571 207 571 207 594 c 0,13,14
 207 615 207 615 193.5 623.5 c 0,15,16
 180 632 180 632 137 637 c 1,17,-1
 137 653 l 1,18,-1
 604 653 l 1,19,-1
 573 500 l 1,20,-1
 552 502 l 1,21,22
 554 530 554 530 554 543 c 0,23,24
 554 568 554 568 543 584.5 c 0,25,26
 532 601 532 601 511.5 608.5 c 0,27,28
 491 616 491 616 471 618.5 c 0,29,30
 451 621 451 621 424 621 c 0,31,32
 414 621 414 621 395 620.5 c 0,33,34
 376 620 376 620 369 620 c 0,35,36
 323 620 323 620 312 581 c 2,37,-1
 252 371 l 1,38,39
 292 374 292 374 322 374 c 0,40,41
 388 374 388 374 434 361 c 0,42,43
 480 348 480 348 503.5 326 c 0,44,45
 527 304 527 304 536.5 280.5 c 0,46,47
 546 257 546 257 546 230 c 0,0,1
169 71 m 2,48,49
 166 59 166 59 166 53 c 0,50,51
 166 44 166 44 172 40.5 c 0,52,53
 178 37 178 37 193 37 c 0,54,55
 250 37 250 37 295 50 c 0,56,57
 340 63 340 63 366 83 c 0,58,59
 392 103 392 103 409.5 129 c 0,60,61
 427 155 427 155 433 178 c 0,62,63
 439 201 439 201 439 223 c 0,64,65
 439 279 439 279 409.5 306.5 c 0,66,67
 380 334 380 334 299 334 c 0,68,69
 277 334 277 334 241 331 c 1,70,-1
 169 71 l 2,48,49
EndSplineSet
EndChar

StartChar: btopbar
Encoding: 387 387 322
Width: 481
GlyphClass: 2
Flags: W
LayerCount: 2
Fore
SplineSet
157 12 m 0,0,1
 208 12 208 12 254.5 48 c 128,-1,2
 301 84 301 84 329 134 c 128,-1,3
 357 184 357 184 373.5 231 c 128,-1,4
 390 278 390 278 390 306 c 0,5,6
 390 346 390 346 371 369 c 128,-1,7
 352 392 352 392 320 392 c 0,8,9
 275 392 275 392 234 349.5 c 128,-1,10
 193 307 193 307 167 248 c 128,-1,11
 141 189 141 189 126 133.5 c 128,-1,12
 111 78 111 78 111 46 c 0,13,14
 111 12 111 12 157 12 c 0,0,1
111 636 m 1,15,-1
 111 653 l 1,16,-1
 494 653 l 1,17,-1
 456 538 l 1,18,-1
 437 534 l 1,19,20
 440 553 440 553 440 563 c 0,21,22
 440 581 440 581 430 587 c 128,-1,23
 420 593 420 593 392 593 c 2,24,-1
 247 593 l 1,25,-1
 166 290 l 1,26,27
 219 373 219 373 263 407 c 128,-1,28
 307 441 307 441 359 441 c 0,29,30
 409 441 409 441 442 407 c 128,-1,31
 475 373 475 373 475 321 c 0,32,33
 475 244 475 244 427.5 166.5 c 128,-1,34
 380 89 380 89 306 39 c 128,-1,35
 232 -11 232 -11 158 -11 c 0,36,37
 116 -11 116 -11 70.5 7 c 128,-1,38
 25 25 25 25 25 42 c 2,39,-1
 25 46 l 1,40,-1
 160 540 l 2,41,42
 176 596 176 596 176 609 c 0,43,44
 176 626 176 626 165.5 630.5 c 128,-1,45
 155 635 155 635 111 636 c 1,15,-1
EndSplineSet
EndChar

StartChar: uni0184
Encoding: 388 388 323
Width: 585
GlyphClass: 2
Flags: W
LayerCount: 2
Fore
SplineSet
540 199 m 0,0,1
 540 132 540 132 498 85.5 c 128,-1,2
 456 39 456 39 398 19.5 c 128,-1,3
 340 0 340 0 275 0 c 2,4,-1
 -6 0 l 1,5,-1
 -6 16 l 1,6,7
 36 24 36 24 49.5 36 c 128,-1,8
 63 48 63 48 74 90 c 2,9,-1
 151 369 l 1,10,11
 149 379 149 379 144 403.5 c 128,-1,12
 139 428 139 428 136 447 c 128,-1,13
 133 466 133 466 133 482 c 0,14,15
 133 492 133 492 221 575 c 128,-1,16
 309 658 309 658 322 658 c 0,17,18
 328 658 328 658 328 651 c 0,19,20
 328 641 328 641 248 361 c 1,21,-1
 311 362 l 2,22,23
 355 362 355 362 393 354.5 c 128,-1,24
 431 347 431 347 465.5 330 c 128,-1,25
 500 313 500 313 520 279.5 c 128,-1,26
 540 246 540 246 540 199 c 0,0,1
432 208 m 0,27,28
 432 231 432 231 428 249 c 128,-1,29
 424 267 424 267 414 279.5 c 128,-1,30
 404 292 404 292 396 301 c 128,-1,31
 388 310 388 310 369.5 315.5 c 128,-1,32
 351 321 351 321 341.5 324 c 128,-1,33
 332 327 332 327 307.5 328.5 c 128,-1,34
 283 330 283 330 274.5 330.5 c 128,-1,35
 266 331 266 331 239 331 c 1,36,37
 172 93 172 93 172 75 c 0,38,39
 172 30 172 30 234 30 c 0,40,41
 325 30 325 30 378.5 75 c 128,-1,42
 432 120 432 120 432 208 c 0,27,28
EndSplineSet
EndChar

StartChar: uni0185
Encoding: 389 389 324
Width: 509
GlyphClass: 2
Flags: W
LayerCount: 2
Fore
SplineSet
502 320 m 0,0,1
 502 203 502 203 400 96 c 128,-1,2
 298 -11 298 -11 182 -11 c 0,3,4
 156 -11 156 -11 104 5 c 128,-1,5
 52 21 52 21 52 42 c 0,6,7
 52 44 52 44 52 46 c 2,8,-1
 141 375 l 1,9,10
 140 379 140 379 128.5 412.5 c 128,-1,11
 117 446 117 446 107.5 474.5 c 128,-1,12
 98 503 98 503 98 507 c 0,13,14
 98 517 98 517 186 600 c 128,-1,15
 274 683 274 683 288 683 c 0,16,17
 295 683 295 683 295 675 c 128,-1,18
 295 667 295 667 292 654 c 128,-1,19
 289 641 289 641 283.5 626 c 128,-1,20
 278 611 278 611 277 605 c 2,21,-1
 195 297 l 1,22,-1
 197 296 l 1,23,24
 288 441 288 441 383 441 c 0,25,26
 437 441 437 441 469.5 407.5 c 128,-1,27
 502 374 502 374 502 320 c 0,0,1
417 307 m 0,28,29
 417 345 417 345 399 368.5 c 128,-1,30
 381 392 381 392 344 392 c 0,31,32
 291 392 291 392 241 324 c 128,-1,33
 191 256 191 256 164.5 176 c 128,-1,34
 138 96 138 96 138 45 c 0,35,36
 138 12 138 12 185 12 c 0,37,38
 242 12 242 12 297.5 63.5 c 128,-1,39
 353 115 353 115 385 183.5 c 128,-1,40
 417 252 417 252 417 307 c 0,28,29
EndSplineSet
EndChar

StartChar: uni0186
Encoding: 390 390 325
Width: 627
GlyphClass: 2
Flags: W
LayerCount: 2
Fore
SplineSet
212 -14 m 0,0,1
 151 -14 151 -14 96 2.5 c 128,-1,2
 41 19 41 19 35 19 c 0,3,4
 2 19 2 19 -15 -14 c 1,5,-1
 -36 -14 l 1,6,-1
 11 212 l 1,7,-1
 34 212 l 1,8,9
 42 26 42 26 203 26 c 0,10,11
 312 26 312 26 396.5 107 c 128,-1,12
 481 188 481 188 515 324 c 0,13,14
 531 387 531 387 531 442 c 0,15,16
 531 499 531 499 513 539.5 c 128,-1,17
 495 580 495 580 465 598.5 c 128,-1,18
 435 617 435 617 406 624.5 c 128,-1,19
 377 632 377 632 344 632 c 0,20,21
 227 632 227 632 96 531 c 1,22,-1
 82 549 l 1,23,24
 211 676 211 676 387 676 c 0,25,26
 432 676 432 676 473.5 665 c 128,-1,27
 515 654 515 654 556 629 c 128,-1,28
 597 604 597 604 622 554.5 c 128,-1,29
 647 505 647 505 647 437 c 0,30,31
 647 356 647 356 619.5 282.5 c 128,-1,32
 592 209 592 209 547 156 c 128,-1,33
 502 103 502 103 445 64 c 128,-1,34
 388 25 388 25 328 5.5 c 128,-1,35
 268 -14 268 -14 212 -14 c 0,0,1
EndSplineSet
EndChar

StartChar: uni0187
Encoding: 391 391 326
Width: 853
GlyphClass: 2
Flags: W
LayerCount: 2
Fore
SplineSet
875 575 m 0,0,1
 861 575 861 575 850 584.5 c 128,-1,2
 839 594 839 594 833.5 605 c 128,-1,3
 828 616 828 616 818.5 625.5 c 128,-1,4
 809 635 809 635 797 635 c 0,5,6
 770 635 770 635 748.5 620 c 128,-1,7
 727 605 727 605 714 586.5 c 128,-1,8
 701 568 701 568 690 536.5 c 128,-1,9
 679 505 679 505 674.5 486 c 128,-1,10
 670 467 670 467 665 439 c 0,11,12
 661 420 661 420 643 420 c 0,13,14
 627 420 627 420 627 441 c 0,15,16
 627 447 627 447 628.5 457.5 c 128,-1,17
 630 468 630 468 630 471 c 0,18,19
 630 542 630 542 579 586 c 128,-1,20
 528 630 528 630 456 630 c 0,21,22
 360 630 360 630 291 570 c 128,-1,23
 222 510 222 510 191.5 425.5 c 128,-1,24
 161 341 161 341 161 247 c 0,25,26
 161 149 161 149 213 89.5 c 128,-1,27
 265 30 265 30 361 30 c 0,28,29
 484 30 484 30 605 131 c 1,30,-1
 620 113 l 1,31,32
 570 55 570 55 488 20.5 c 128,-1,33
 406 -14 406 -14 327 -14 c 0,34,35
 201 -14 201 -14 123 55.5 c 128,-1,36
 45 125 45 125 45 250 c 0,37,38
 45 425 45 425 162 545.5 c 128,-1,39
 279 666 279 666 453 666 c 0,40,41
 520 666 520 666 577 631 c 128,-1,42
 634 596 634 596 654 535 c 1,43,44
 710 669 710 669 839 669 c 0,45,46
 869 669 869 669 896 658 c 128,-1,47
 923 647 923 647 923 621 c 0,48,49
 923 603 923 603 908 589 c 128,-1,50
 893 575 893 575 875 575 c 0,0,1
EndSplineSet
EndChar

StartChar: chook
Encoding: 392 392 327
Width: 578
GlyphClass: 2
Flags: W
LayerCount: 2
Fore
SplineSet
605 573 m 0,0,1
 590 573 590 573 579.5 583.5 c 128,-1,2
 569 594 569 594 569 612 c 0,3,4
 569 622 569 622 574 632 c 128,-1,5
 579 642 579 642 579 645 c 0,6,7
 579 656 579 656 554 656 c 0,8,9
 531 656 531 656 511 632.5 c 128,-1,10
 491 609 491 609 477 569.5 c 128,-1,11
 463 530 463 530 453 493 c 128,-1,12
 443 456 443 456 434 414 c 128,-1,13
 425 372 425 372 421 360 c 0,14,15
 407 314 407 314 374 314 c 0,16,17
 356 314 356 314 345 323.5 c 128,-1,18
 334 333 334 333 334 351 c 0,19,20
 334 364 334 364 341.5 378.5 c 128,-1,21
 349 393 349 393 349 400 c 0,22,23
 349 420 349 420 311 420 c 0,24,25
 253 420 253 420 205.5 373 c 128,-1,26
 158 326 158 326 135 264.5 c 128,-1,27
 112 203 112 203 112 147 c 0,28,29
 112 25 112 25 203 25 c 0,30,31
 273 25 273 25 346 106 c 1,32,-1
 362 96 l 1,33,34
 277 -11 277 -11 174 -11 c 0,35,36
 100 -11 100 -11 63 30 c 128,-1,37
 26 71 26 71 26 147 c 0,38,39
 26 256 26 256 114.5 348.5 c 128,-1,40
 203 441 203 441 312 441 c 0,41,42
 373 441 373 441 402 408 c 1,43,44
 407 424 407 424 417 459.5 c 128,-1,45
 427 495 427 495 434 520 c 128,-1,46
 441 545 441 545 454.5 577 c 128,-1,47
 468 609 468 609 482.5 629 c 128,-1,48
 497 649 497 649 519.5 663.5 c 128,-1,49
 542 678 542 678 569 678 c 128,-1,50
 596 678 596 678 622 660 c 128,-1,51
 648 642 648 642 648 613 c 0,52,53
 648 595 648 595 634.5 584 c 128,-1,54
 621 573 621 573 605 573 c 0,0,1
EndSplineSet
EndChar

StartChar: Dhook
Encoding: 394 394 329
Width: 892
GlyphClass: 2
Flags: W
LayerCount: 2
Fore
SplineSet
870 387 m 0,0,1
 870 265 870 265 803.5 175 c 128,-1,2
 737 85 737 85 635.5 42.5 c 128,-1,3
 534 0 534 0 415 0 c 2,4,-1
 162 0 l 1,5,-1
 162 16 l 1,6,7
 204 24 204 24 218 36.5 c 128,-1,8
 232 49 232 49 243 90 c 2,9,-1
 369 544 l 2,10,11
 378 580 378 580 378 593 c 0,12,13
 378 616 378 616 348 616 c 0,14,15
 346 616 346 616 341.5 616 c 128,-1,16
 337 616 337 616 335 616 c 0,17,18
 285 616 285 616 226 586 c 128,-1,19
 167 556 167 556 167 511 c 0,20,21
 167 498 167 498 186.5 477.5 c 128,-1,22
 206 457 206 457 206 442 c 0,23,24
 206 423 206 423 190 406.5 c 128,-1,25
 174 390 174 390 155 390 c 0,26,27
 118 390 118 390 118 442 c 0,28,29
 118 495 118 495 142.5 536.5 c 128,-1,30
 167 578 167 578 207 603 c 128,-1,31
 247 628 247 628 294 640.5 c 128,-1,32
 341 653 341 653 390 653 c 2,33,-1
 578 653 l 2,34,35
 706 653 706 653 788 582.5 c 128,-1,36
 870 512 870 512 870 387 c 0,0,1
759 399 m 0,37,38
 759 506 759 506 707 564.5 c 128,-1,39
 655 623 655 623 548 623 c 2,40,-1
 543 623 l 2,41,42
 527 623 527 623 517.5 622 c 128,-1,43
 508 621 508 621 497 614 c 128,-1,44
 486 607 486 607 483 594 c 2,45,-1
 362 162 l 2,46,47
 340 85 340 85 340 69 c 0,48,49
 340 55 340 55 345.5 46.5 c 128,-1,50
 351 38 351 38 362.5 35 c 128,-1,51
 374 32 374 32 383 31 c 128,-1,52
 392 30 392 30 407 30 c 2,53,54
 407 30 407 30 408.5 30 c 128,-1,55
 410 30 410 30 411 30 c 0,56,57
 567 30 567 30 663 135.5 c 128,-1,58
 759 241 759 241 759 399 c 0,37,38
EndSplineSet
EndChar

StartChar: Dtopbar
Encoding: 395 395 330
Width: 669
GlyphClass: 2
Flags: W
LayerCount: 2
Fore
SplineSet
367 615 m 2,0,1
 284 615 284 615 250.5 597 c 128,-1,2
 217 579 217 579 181 510 c 1,3,-1
 156 510 l 1,4,-1
 205 653 l 1,5,-1
 739 653 l 1,6,-1
 739 634 l 1,7,8
 676 630 676 630 654 614.5 c 128,-1,9
 632 599 632 599 614 544 c 2,10,-1
 473 109 l 2,11,12
 463 79 463 79 463 60 c 0,13,14
 463 37 463 37 481 29 c 128,-1,15
 499 21 499 21 546 19 c 1,16,-1
 546 0 l 1,17,-1
 201 0 l 2,18,19
 11 0 11 0 11 129 c 0,20,21
 11 178 11 178 39.5 248 c 128,-1,22
 68 318 68 318 121 353 c 0,23,24
 172 387 172 387 224.5 396.5 c 128,-1,25
 277 406 277 406 372 406 c 2,26,-1
 467 406 l 1,27,-1
 524 581 l 2,28,29
 529 596 529 596 529 602 c 0,30,31
 529 615 529 615 503 615 c 2,32,-1
 367 615 l 2,0,1
454 366 m 1,33,34
 321 366 321 366 262 344 c 128,-1,35
 203 322 203 322 162 253 c 0,36,37
 123 187 123 187 123 138 c 0,38,39
 123 37 123 37 285 37 c 0,40,41
 326 37 326 37 341.5 47.5 c 128,-1,42
 357 58 357 58 362 78 c 1,43,-1
 454 366 l 1,33,34
EndSplineSet
EndChar

StartChar: dtopbar
Encoding: 396 396 331
Width: 540
GlyphClass: 2
Flags: W
LayerCount: 2
Fore
SplineSet
466 111 m 1,0,-1
 478 101 l 1,1,2
 397 -13 397 -13 332 -13 c 0,3,4
 313 -13 313 -13 301.5 -0.5 c 128,-1,5
 290 12 290 12 290 32 c 0,6,7
 290 61 290 61 303 121 c 1,8,9
 252 46 252 46 213 17.5 c 128,-1,10
 174 -11 174 -11 123 -11 c 0,11,12
 74 -11 74 -11 46 19.5 c 128,-1,13
 18 50 18 50 18 103 c 0,14,15
 18 176 18 176 63.5 256 c 128,-1,16
 109 336 109 336 178 388.5 c 128,-1,17
 247 441 247 441 310 441 c 0,18,19
 339 441 339 441 354 427.5 c 128,-1,20
 369 414 369 414 375 383 c 1,21,-1
 406 497 l 2,22,23
 421 552 421 552 421 567 c 0,24,25
 421 583 421 583 409.5 588 c 128,-1,26
 398 593 398 593 359 593 c 2,27,-1
 287 593 l 2,28,29
 252 593 252 593 237 582 c 128,-1,30
 222 571 222 571 206 534 c 1,31,-1
 190 538 l 1,32,-1
 221 653 l 1,33,-1
 517 653 l 1,34,-1
 522 648 l 1,35,36
 460 404 460 404 431 306 c 0,37,38
 366 85 366 85 366 60 c 0,39,40
 366 52 366 52 371.5 46 c 128,-1,41
 377 40 377 40 384 40 c 0,42,43
 397 40 397 40 411.5 52.5 c 128,-1,44
 426 65 426 65 466 111 c 1,0,-1
359 361 m 0,45,46
 359 418 359 418 310 418 c 0,47,48
 265 418 265 418 216 365.5 c 128,-1,49
 167 313 167 313 136 238.5 c 128,-1,50
 105 164 105 164 105 103 c 0,51,52
 105 74 105 74 121 55.5 c 128,-1,53
 137 37 137 37 163 37 c 0,54,55
 208 37 208 37 254 86 c 128,-1,56
 300 135 300 135 329.5 211 c 128,-1,57
 359 287 359 287 359 361 c 0,45,46
EndSplineSet
EndChar

StartChar: deltaturned
Encoding: 397 397 332
Width: 472
GlyphClass: 2
Flags: W
LayerCount: 2
Fore
SplineSet
305 442 m 0,0,1
 351 442 351 442 383.5 425 c 0,2,3
 416 408 416 408 430 382.5 c 0,4,5
 444 357 444 357 449.5 337 c 0,6,7
 455 317 455 317 455 301 c 0,8,9
 455 174 455 174 383 91.5 c 0,10,11
 311 9 311 9 224 9 c 0,12,13
 189 9 189 9 171 17 c 1,14,-1
 169 15 l 1,15,16
 173 8 173 8 197.5 -24.5 c 0,17,18
 222 -57 222 -57 238.5 -90.5 c 0,19,20
 255 -124 255 -124 255 -157 c 0,21,22
 255 -246 255 -246 115 -246 c 0,23,24
 70 -246 70 -246 39.5 -216 c 0,25,26
 9 -186 9 -186 -5 -139 c 1,27,-1
 15 -129 l 1,28,29
 29 -169 29 -169 54.5 -196 c 0,30,31
 80 -223 80 -223 117 -223 c 0,32,33
 140 -223 140 -223 155.5 -210 c 0,34,35
 171 -197 171 -197 171 -168 c 0,36,37
 171 -143 171 -143 149.5 -103.5 c 0,38,39
 128 -64 128 -64 102 -28 c 0,40,41
 76 8 76 8 54.5 58 c 0,42,43
 33 108 33 108 33 152 c 0,44,45
 33 269 33 269 111.5 355.5 c 0,46,47
 190 442 190 442 305 442 c 0,0,1
119 123 m 2,48,-1
 134 83 l 1,49,50
 152 32 152 32 216 32 c 0,51,52
 259 32 259 32 296 78.5 c 0,53,54
 333 125 333 125 352 187.5 c 0,55,56
 371 250 371 250 371 307 c 0,57,58
 371 367 371 367 349 393 c 0,59,60
 327 419 327 419 299 419 c 0,61,62
 222 419 222 419 167 350 c 0,63,64
 112 281 112 281 112 201 c 0,65,66
 112 142 112 142 119 123 c 2,48,-1
EndSplineSet
EndChar

